<?xml version="1.0" encoding="utf-8"?>
<!-- Generator: Adobe Illustrator 25.0.0, SVG Export Plug-In . SVG Version: 6.00 Build 0)  -->
<svg version="1.1" id="Capa_1" xmlns="http://www.w3.org/2000/svg" xmlns:xlink="http://www.w3.org/1999/xlink" x="0px" y="0px"
	 viewBox="0 0 96.6 55.8" style="enable-background:new 0 0 96.6 55.8;" xml:space="preserve">
<style type="text/css">
	.st0{fill:none;}
	.st1{fill:#50565B;}
	.st2{fill-rule:evenodd;clip-rule:evenodd;fill:#50565B;}
</style>
<g>
	<rect class="st0" width="96.6" height="55.8"/>
	<g>
		<path class="st1" d="M32.3,46.4c0.5-1.3,1-2.5,1.5-3.8c0.2-0.6,0.4-1.1,0.6-1.7c0.1-0.2,0.2-0.3,0.4-0.3c0.1,0,0.3,0.2,0.4,0.3
			c0.7,1.8,1.4,3.6,2,5.4c0.1,0.2,0,0.4,0,0.6c-0.1,0-0.2,0-0.3,0c-0.2-0.6-0.5-1.2-0.7-1.7c-0.1-0.2-0.2-0.3-0.5-0.3
			c-0.7,0-1.3,0-2,0c-0.2,0-0.3,0.1-0.4,0.3c-0.2,0.6-0.4,1.2-0.7,1.7c-0.1,0-0.3,0-0.4,0C32.3,46.7,32.3,46.6,32.3,46.4z
			 M35.9,44.3c-0.4-0.9-0.7-1.9-1.1-2.9c-0.4,1-0.7,1.9-1.1,2.9C34.5,44.3,35.2,44.3,35.9,44.3z"/>
		<path class="st1" d="M43.2,46.9c0-0.2-0.1-0.4,0-0.6c0.6-1.8,1.3-3.5,2-5.3c0.1-0.2,0.2-0.3,0.5-0.3c0.3,0,0.3,0.1,0.4,0.3
			c0.7,1.8,1.3,3.5,2,5.3c0.1,0.2,0.2,0.4-0.1,0.6c-0.1,0-0.1,0-0.2,0c-0.2-0.6-0.5-1.2-0.7-1.8c-0.1-0.2-0.2-0.3-0.4-0.3
			c-0.7,0-1.3,0-2,0c-0.3,0-0.4,0.1-0.5,0.3c-0.2,0.6-0.5,1.2-0.7,1.7C43.4,46.9,43.3,46.9,43.2,46.9z M46.7,44.3
			c-0.4-1-0.7-1.9-1.1-2.9c-0.4,1-0.7,1.9-1.1,2.9C45.3,44.3,46,44.3,46.7,44.3z"/>
		<path class="st1" d="M59.4,46.9c0-0.2-0.1-0.4,0-0.6c0.7-1.8,1.3-3.6,2-5.4c0.1-0.2,0.2-0.3,0.4-0.3c0.3,0,0.3,0.1,0.4,0.3
			c0.6,1.7,1.3,3.4,1.9,5.1c0,0.1,0.1,0.3,0.2,0.4c0,0.1,0,0.3,0,0.4c-0.1,0-0.2,0-0.3,0c-0.2-0.6-0.5-1.2-0.7-1.8
			c-0.1-0.2-0.2-0.3-0.4-0.3c-0.7,0-1.3,0-2,0c-0.3,0-0.4,0.1-0.5,0.3c-0.2,0.6-0.5,1.2-0.7,1.7C59.5,46.9,59.4,46.9,59.4,46.9z
			 M62.8,44.3c-0.4-1-0.7-1.9-1.1-2.9c-0.4,1-0.7,1.9-1.1,2.9C61.4,44.3,62.1,44.3,62.8,44.3z"/>
		<path class="st1" d="M48.4,18.7c0-3.3,0-6.5,0-9.7c0.6,0,1.1,0,1.7,0c0,3.9,0,7.8,0,11.9c1.6-1.1,3.1-2.2,4.6-3.3
			c0,0.7,0,1.4,0,2.1c0,0.1-0.2,0.2-0.3,0.3c-1.3,0.9-2.6,1.9-4,2.8c-0.3,0.2-0.3,0.4-0.3,0.7c0,3.3,0,6.5,0,9.8c0,0.2,0,0.3,0,0.5
			c-2.7,0-5.5,0-8.2,0c0-0.5,0-1.1,0-1.7c2.2,0,4.3,0,6.5,0c0-0.2,0-0.3,0-0.5c0-3.4,0-6.9,0-10.3c0-0.3-0.1-0.5-0.3-0.7
			c-2-1.4-3.9-2.8-5.9-4.1c-0.2-0.1-0.3-0.3-0.3-0.6c0-0.6,0-1.1,0-1.8C44,15.6,46.2,17.1,48.4,18.7z"/>
		<path class="st1" d="M54.6,41.2c0,0.7,0,1.2,0,1.9c0.3,0,0.6,0,0.9,0c0.5,0,1.1,0,1.6,0c0.1,0,0.2,0.2,0.3,0.2
			c-0.1,0.1-0.2,0.2-0.3,0.2c-0.6,0-1.3,0-1.9,0c-0.2,0-0.3,0-0.5,0c0,0.9,0,1.7,0,2.6c0.3,0,0.6,0,0.9,0c0.9,0,1.8,0,2.7,0
			c0.1,0,0.2,0.2,0.3,0.3c-0.1,0.1-0.2,0.2-0.3,0.2c-0.2,0-0.4,0-0.6,0c-1,0-2,0-3,0c-0.3,0-0.5-0.1-0.5-0.4c0-1.8,0-3.5,0-5.3
			c0-0.3,0.1-0.4,0.4-0.4c1.2,0,2.4,0,3.6,0c0.1,0,0.3,0.2,0.4,0.2c-0.1,0.1-0.3,0.2-0.4,0.2c-1,0-2,0-3,0
			C55,41.2,54.8,41.2,54.6,41.2z"/>
		<path class="st1" d="M38.7,46.2c1.1,0,2.2,0,3.2,0c0.1,0,0.3,0,0.4,0c0.1,0,0.2,0.2,0.2,0.2c0,0.1-0.1,0.2-0.2,0.2
			c0,0-0.1,0-0.2,0c-1.3,0-2.6,0-3.9,0c-0.1,0-0.1,0-0.3,0c0.1-0.3,0.2-0.6,0.3-0.8c1.1-1.5,2.2-3,3.3-4.4c0.1-0.1,0.1-0.2,0.3-0.4
			c-0.2,0-0.4,0-0.5,0c-1,0-1.9,0-2.9,0c-0.1,0-0.3-0.2-0.4-0.2c0.1-0.1,0.3-0.2,0.4-0.2c1.3,0,2.7,0,4.1,0
			c-0.1,0.3-0.2,0.6-0.3,0.8c-1.1,1.5-2.2,3-3.3,4.4C38.9,45.9,38.8,46,38.7,46.2z"/>
		<path class="st1" d="M49.7,46.2c0.9,0,1.8,0,2.6,0c0.1,0,0.3,0,0.4,0c0.1,0.1,0.3,0.2,0.4,0.2c-0.1,0.1-0.2,0.2-0.4,0.2
			c-1.1,0-2.1,0-3.2,0c-0.2,0-0.3-0.1-0.3-0.3c0-1.8,0-3.7,0-5.5c0-0.1,0.2-0.2,0.3-0.3c0.1,0.1,0.2,0.3,0.2,0.4c0,1.2,0,2.3,0,3.5
			C49.7,45,49.7,45.6,49.7,46.2z"/>
	</g>
</g>
</svg>
