<svg xmlns="http://www.w3.org/2000/svg" viewBox="0 0 199.58 33.67"><defs><style>.cls-1{isolation:isolate;}.cls-2{fill:#111a29;}</style></defs><g id="Capa_2" data-name="Capa 2"><g id="Capa_1-2" data-name="Capa 1"><g id="_Light_Theme_1._Headline_H5" data-name=" Light Theme 1. Headline H5" class="cls-1"><g class="cls-1"><path class="cls-2" d="M0,0H11.36A9.68,9.68,0,0,1,15,.65a7.43,7.43,0,0,1,2.65,1.77,7.66,7.66,0,0,1,1.59,2.63,9.24,9.24,0,0,1,.54,3.16A8.13,8.13,0,0,1,19.31,11,7.17,7.17,0,0,1,18,13.36,7.48,7.48,0,0,1,15.8,15a9,9,0,0,1-2.85.87v.74a4.52,4.52,0,0,1,1.68,1,8.43,8.43,0,0,1,1.24,1.46l5,7.18h-5L9,16.21H6.44c-.37,0-.83,0-1.37-.08a4.71,4.71,0,0,1-1.33-.29l-.41.7A2.32,2.32,0,0,1,4,17.87c0,.47.07,1.1.07,1.89v6.51H0ZM3.33,12.47l.41.7a4.11,4.11,0,0,1,1.33-.29c.54-.05,1-.08,1.37-.08h4.4a4.81,4.81,0,0,0,3.57-1.24,4.5,4.5,0,0,0,1.24-3.35A4.39,4.39,0,0,0,14.41,4.9a4.92,4.92,0,0,0-3.57-1.2H6.44c-.37,0-.83,0-1.37-.07a4.36,4.36,0,0,1-1.33-.3L3.33,4a2,2,0,0,1,.44.8,5.89,5.89,0,0,1,.23,1A8.61,8.61,0,0,1,4.07,7V9.43A9.49,9.49,0,0,1,4,10.64a5.61,5.61,0,0,1-.23,1A2,2,0,0,1,3.33,12.47Z"/><path class="cls-2" d="M22.87,19.35v-11h3.88v10q0,4.89,4.4,4.89,4.56,0,4.56-4.89V8.36h3.88V26.27H35.71L35.89,23H35a5.71,5.71,0,0,1-.6,1.29,4.25,4.25,0,0,1-1.09,1.2,5.82,5.82,0,0,1-1.66.89,6.66,6.66,0,0,1-2.28.35,6,6,0,0,1-4.77-1.94A7.91,7.91,0,0,1,22.87,19.35Z"/><path class="cls-2" d="M43.59,0h3.88V8.25l-.37,3.37H48A5.57,5.57,0,0,1,50,9a6,6,0,0,1,3.65-1.07A8.68,8.68,0,0,1,57,8.55a7.87,7.87,0,0,1,2.72,1.83,8.77,8.77,0,0,1,1.85,3,10.82,10.82,0,0,1,.68,4,10.77,10.77,0,0,1-.68,4,8.77,8.77,0,0,1-1.85,3A7.73,7.73,0,0,1,57,26.08a8.68,8.68,0,0,1-3.29.63A6,6,0,0,1,50,25.64,5.52,5.52,0,0,1,48,23H47.1l.37,3.26H43.59Zm3.84,17.32a6.82,6.82,0,0,0,.39,2.33,5.47,5.47,0,0,0,1.11,1.85,5,5,0,0,0,1.74,1.2,5.84,5.84,0,0,0,2.24.42,5.7,5.7,0,0,0,2.22-.42,5,5,0,0,0,1.72-1.2A5.47,5.47,0,0,0,58,19.65,7.19,7.19,0,0,0,58,15a5.47,5.47,0,0,0-1.11-1.85,5.12,5.12,0,0,0-1.72-1.2,5.7,5.7,0,0,0-2.22-.42,5.84,5.84,0,0,0-2.24.42,5.11,5.11,0,0,0-1.74,1.2A5.47,5.47,0,0,0,47.82,15,6.84,6.84,0,0,0,47.43,17.32Z"/><path class="cls-2" d="M64.45,17.43a10.9,10.9,0,0,1,.61-3.61,9,9,0,0,1,1.78-3,8.47,8.47,0,0,1,2.87-2.1,9.36,9.36,0,0,1,3.88-.77,9.09,9.09,0,0,1,4,.81A7.34,7.34,0,0,1,80.31,11a8.55,8.55,0,0,1,1.46,3.29,11.22,11.22,0,0,1,.11,4H68.34a5.78,5.78,0,0,0,1.9,3.63,6,6,0,0,0,4.06,1.37A7.16,7.16,0,0,0,76.24,23a10.78,10.78,0,0,0,1.64-.63,6.62,6.62,0,0,0,1.3-.84,7.46,7.46,0,0,0,.89-.83L82,23.61c-.24.22-.58.51-1,.86a8.93,8.93,0,0,1-1.59,1,10.93,10.93,0,0,1-2.24.85,11.5,11.5,0,0,1-3,.35A11.06,11.06,0,0,1,70,26a8.75,8.75,0,0,1-3-1.91,8.2,8.2,0,0,1-1.9-2.94A10.37,10.37,0,0,1,64.45,17.43Zm4.48-1.26a5.13,5.13,0,0,1,1.5-.46,13.53,13.53,0,0,1,3-.28c.71,0,1.32,0,1.83.07a9.13,9.13,0,0,1,1.24.19,5.7,5.7,0,0,1,.76.22,1.34,1.34,0,0,1,.39.22l.51-.18a5.42,5.42,0,0,0-.37-2.09,4.28,4.28,0,0,0-1-1.52,4.13,4.13,0,0,0-1.48-.93,5.37,5.37,0,0,0-1.81-.31,5.07,5.07,0,0,0-1.65.3,5.19,5.19,0,0,0-1.59.88A5.35,5.35,0,0,0,69,13.78,5.63,5.63,0,0,0,68.41,16ZM74.41,0h4.4l-4.4,5.36H71.56Z"/><path class="cls-2" d="M85,8.36h3.88l-.18,3.29h.92a5.42,5.42,0,0,1,.59-1.29,4.55,4.55,0,0,1,1.09-1.2A5.74,5.74,0,0,1,93,8.27a6.81,6.81,0,0,1,2.27-.35,6,6,0,0,1,4.74,2,8.15,8.15,0,0,1,1.74,5.57v10.8H97.86V16.69a6.47,6.47,0,0,0-1-4.06,4.05,4.05,0,0,0-3.35-1.31A3.89,3.89,0,0,0,90,12.93a7.34,7.34,0,0,0-1.07,4.13v9.21H85Z"/><path class="cls-2" d="M113.48,26.27V0h7.66l5,16.35c.22.74.43,1.61.63,2.59s.37,1.95.52,2.89h.89c.14-.94.32-1.9.51-2.89s.41-1.85.63-2.59l5-16.35H142V26.27H137.9V8.21c0-.88,0-1.62,0-2.22a12.23,12.23,0,0,1,.28-1.88l-1.11-.3c-.1.37-.21.8-.33,1.3s-.32,1.17-.6,2l-5.88,19.13h-5.18L119.25,7.14c-.27-.86-.47-1.54-.59-2s-.24-.93-.34-1.3l-1.11.3A12.23,12.23,0,0,1,117.49,6q.06.9.06,2.22V26.27Z"/><path class="cls-2" d="M145.44,17.32a10.12,10.12,0,0,1,.69-3.8,8.65,8.65,0,0,1,1.94-3,9.18,9.18,0,0,1,3-1.94,10.94,10.94,0,0,1,7.7,0,9.24,9.24,0,0,1,3,1.94,8.51,8.51,0,0,1,1.94,3,10.12,10.12,0,0,1,.69,3.8,10.15,10.15,0,0,1-.69,3.77,8.41,8.41,0,0,1-1.94,3,9.24,9.24,0,0,1-3,1.94,10.94,10.94,0,0,1-7.7,0,9.18,9.18,0,0,1-3-1.94,8.55,8.55,0,0,1-1.94-3A10.15,10.15,0,0,1,145.44,17.32Zm3.82,0a6.58,6.58,0,0,0,.42,2.38,5.66,5.66,0,0,0,1.17,1.87,5.14,5.14,0,0,0,1.77,1.22,6.08,6.08,0,0,0,4.59,0,5.46,5.46,0,0,0,1.8-1.22,5.33,5.33,0,0,0,1.16-1.87,7.14,7.14,0,0,0,0-4.77A5.33,5.33,0,0,0,159,13.06a5.59,5.59,0,0,0-4.09-1.66,5.72,5.72,0,0,0-2.3.44,5.28,5.28,0,0,0-1.77,1.22,5.66,5.66,0,0,0-1.17,1.87A6.59,6.59,0,0,0,149.26,17.32Z"/><path class="cls-2" d="M165.35,29.38a1.68,1.68,0,0,0,.54.35,3.5,3.5,0,0,0,.65.2,5.43,5.43,0,0,0,.62.11,3.29,3.29,0,0,0,.49,0q2.47,0,4.44-4.55L164.72,8.36H169l2.85,7.29A28.93,28.93,0,0,1,173,19.13a15.52,15.52,0,0,1,.5,2.74h.93a14.65,14.65,0,0,1,.5-2.74,28.93,28.93,0,0,1,1.16-3.48l2.85-7.29h4.22l-7.77,18.06A23.48,23.48,0,0,1,173.53,30a10.57,10.57,0,0,1-1.87,2.22,6.08,6.08,0,0,1-1.92,1.15,6.33,6.33,0,0,1-2,.33,7.51,7.51,0,0,1-1.67-.19,7.16,7.16,0,0,1-1.77-.66Z"/><path class="cls-2" d="M183.78,21.2a5.51,5.51,0,0,1,.46-2.31,4.88,4.88,0,0,1,1.31-1.74,5.71,5.71,0,0,1,2-1.09,8.53,8.53,0,0,1,2.59-.37,6,6,0,0,1,3,.64,5.9,5.9,0,0,1,2,2l.55,0v-2a7.46,7.46,0,0,0-.35-2.48,3.59,3.59,0,0,0-1-1.48,3.37,3.37,0,0,0-1.46-.7,8.34,8.34,0,0,0-1.85-.19,5.48,5.48,0,0,0-1.78.26,4.26,4.26,0,0,0-1.24.65,4.18,4.18,0,0,0-.79.78,2.6,2.6,0,0,0-.41.68l-3-2.26A4.68,4.68,0,0,1,185.07,10a7.26,7.26,0,0,1,1.78-1.15A9.74,9.74,0,0,1,189,8.14a12.38,12.38,0,0,1,2.35-.22,8.6,8.6,0,0,1,6,2,7.44,7.44,0,0,1,2.22,5.79V26.27H196V23.79l-.82-.07a3.2,3.2,0,0,1-.55,1.09,3.91,3.91,0,0,1-1.08,1,5.81,5.81,0,0,1-1.57.68,7.18,7.18,0,0,1-2.05.26,7.62,7.62,0,0,1-2.42-.37,5.56,5.56,0,0,1-2-1.09,5.07,5.07,0,0,1-1.29-1.74A5.51,5.51,0,0,1,183.78,21.2Zm3.84,0a2.06,2.06,0,0,0,.84,1.72,3.81,3.81,0,0,0,2.38.65,5.93,5.93,0,0,0,1.5-.19,7.32,7.32,0,0,0,1.43-.5,5.65,5.65,0,0,0,1.18-.75,3.27,3.27,0,0,0,.78-.93,2.84,2.84,0,0,0-.78-.94,5.61,5.61,0,0,0-1.18-.74,7.32,7.32,0,0,0-1.43-.5,5.93,5.93,0,0,0-1.5-.19,3.81,3.81,0,0,0-2.38.65A2.07,2.07,0,0,0,187.62,21.2Z"/></g></g></g></g></svg>