<?xml version="1.0" encoding="utf-8"?>
<!-- Generator: Adobe Illustrator 25.0.0, SVG Export Plug-In . SVG Version: 6.00 Build 0)  -->
<svg version="1.1" id="Capa_1" xmlns="http://www.w3.org/2000/svg" xmlns:xlink="http://www.w3.org/1999/xlink" x="0px" y="0px"
	 viewBox="0 0 15.5 17" style="enable-background:new 0 0 15.5 17;" xml:space="preserve">
<g>
	<path d="M14.8,12.5c-0.4,0-0.7,0.3-0.8,0.8v2c0,0.1-0.1,0.2-0.2,0.2h-12c-0.1,0-0.2-0.1-0.2-0.2v-2c0-0.4-0.3-0.7-0.8-0.8
		c-0.4,0-0.7,0.3-0.8,0.8v2c0,1,0.8,1.8,1.8,1.8h12c1,0,1.8-0.8,1.8-1.8v-2C15.5,12.8,15.2,12.5,14.8,12.5z"/>
	<path d="M6.6,11.8l0.6,0.4c0.3,0.2,0.7,0.2,1,0l0.6-0.4c1.6-1.2,2.9-2.6,4-4.3c0.2-0.4,0.1-0.8-0.2-1.1c-0.1-0.1-0.2-0.1-0.4-0.1
		l-1.5-0.1H10c0.1-1.8,0.1-3.5,0-5.3C10,0.4,9.5,0,9,0H6.5c-0.5,0-1,0.4-1,0.9C5.3,2.7,5.3,4.4,5.4,6.2H4.7L3.2,6.3
		c-0.4,0-0.7,0.4-0.7,0.8c0,0.2,0.1,0.3,0.1,0.4C3.7,9.2,5,10.6,6.6,11.8z"/>
</g>
</svg>
