<?xml version="1.0" encoding="utf-8"?>
<!-- Generator: Adobe Illustrator 25.0.0, SVG Export Plug-In . SVG Version: 6.00 Build 0)  -->
<svg version="1.1" id="Capa_1" xmlns="http://www.w3.org/2000/svg" xmlns:xlink="http://www.w3.org/1999/xlink" x="0px" y="0px"
	 viewBox="0 0 24 24" style="enable-background:new 0 0 24 24;" xml:space="preserve">
<style type="text/css">
	.st0{fill-rule:evenodd;clip-rule:evenodd;}
</style>
<g>
	<path class="st0" d="M12.7,9.5H11V7.7C11,7.3,10.6,7,10.2,7S9.5,7.3,9.5,7.7v1.8H7.7C7.3,9.5,7,9.8,7,10.2C7,10.6,7.3,11,7.7,11
		h1.8v1.8c0,0.4,0.3,0.8,0.8,0.8s0.8-0.3,0.8-0.8V11h1.8c0.4,0,0.8-0.3,0.8-0.8C13.5,9.8,13.1,9.5,12.7,9.5z"/>
	<path class="st0" d="M20.6,19.5l-5.2-5.2c2.1-2.7,2-6.5-0.5-9c-2.6-2.6-6.9-2.6-9.5,0c-2.6,2.6-2.6,6.9,0,9.5
		c2.5,2.5,6.3,2.6,9,0.5l5.2,5.2c0.3,0.3,0.8,0.3,1.1,0S20.9,19.8,20.6,19.5z M13.9,13.9L13.9,13.9L13.9,13.9
		c-2.1,2.1-5.4,2.1-7.4,0c-2.1-2.1-2.1-5.4,0-7.4c2.1-2.1,5.4-2.1,7.4,0C15.9,8.5,15.9,11.8,13.9,13.9z"/>
</g>
</svg>
