<?xml version="1.0" encoding="utf-8"?>
<!-- Generator: Adobe Illustrator 25.0.0, SVG Export Plug-In . SVG Version: 6.00 Build 0)  -->
<svg version="1.1" id="Capa_1" xmlns="http://www.w3.org/2000/svg" xmlns:xlink="http://www.w3.org/1999/xlink" x="0px" y="0px"
	 viewBox="0 0 18.8 19.2" style="enable-background:new 0 0 18.8 19.2;" xml:space="preserve">
<g>
	<circle cx="2.1" cy="2.1" r="2.1"/>
	<path d="M4.1,6h-4C0.1,6,0,6.1,0,6.1v13c0,0.1,0.1,0.1,0.1,0.1h4c0.1,0,0.1-0.1,0.1-0.1v-13C4.2,6.1,4.2,6,4.1,6z"/>
	<path d="M14.6,6.4L14.6,6.4h-0.4c-0.7,0.1-1.5,0.3-2.2,0.6l-1.3,0.6V6.1c0-0.1-0.1-0.1-0.1-0.1h-4C6.6,6,6.5,6.1,6.5,6.1v13
		c0,0.1,0.1,0.1,0.1,0.1h4c0.1,0,0.1-0.1,0.1-0.1v-7c0.1-1,1-1.8,2-1.7c0.9,0.1,1.7,0.8,1.7,1.7v7c0,0.1,0.1,0.1,0.1,0.1h4
		c0.1,0,0.1-0.1,0.1-0.1v-8.6C18.7,8.2,16.9,6.4,14.6,6.4z"/>
</g>
</svg>
