<?xml version="1.0" encoding="utf-8"?>
<!-- Generator: Adobe Illustrator 25.0.0, SVG Export Plug-In . SVG Version: 6.00 Build 0)  -->
<svg version="1.1" id="Capa_1" xmlns="http://www.w3.org/2000/svg" xmlns:xlink="http://www.w3.org/1999/xlink" x="0px" y="0px"
	 viewBox="0 0 18.4 18.4" style="enable-background:new 0 0 18.4 18.4;" xml:space="preserve">
<g>
	<circle cx="9.2" cy="9.2" r="3.2"/>
	<path d="M18.1,3.9c-0.2-1.9-1.8-3.4-3.7-3.6C11-0.1,7.5-0.1,4,0.3C3.1,0.4,2.2,0.8,1.5,1.5C0.8,2.1,0.4,3,0.3,3.9
		c-0.4,3.5-0.4,7.1,0,10.6c0.1,0.9,0.5,1.8,1.2,2.5c0.7,0.6,1.6,1,2.5,1.1c1.7,0.2,3.5,0.3,5.2,0.3c1.7,0,3.5-0.1,5.2-0.3
		c0.9-0.1,1.8-0.5,2.4-1.1c0.7-0.7,1.1-1.5,1.2-2.4C18.5,11,18.5,7.4,18.1,3.9z M9.2,14c-2.6,0-4.8-2.1-4.8-4.8s2.1-4.8,4.8-4.8
		s4.8,2.1,4.8,4.8S11.8,14,9.2,14z M14.2,5.2L14.2,5.2c-0.6,0-1-0.4-1-1c0-0.6,0.4-1,1-1s1,0.4,1,1C15.2,4.8,14.7,5.2,14.2,5.2z"/>
</g>
</svg>
