<?xml version="1.0" encoding="utf-8"?>
<!-- Generator: Adobe Illustrator 25.0.0, SVG Export Plug-In . SVG Version: 6.00 Build 0)  -->
<svg version="1.1" id="Capa_1" xmlns="http://www.w3.org/2000/svg" xmlns:xlink="http://www.w3.org/1999/xlink" x="0px" y="0px"
	 viewBox="0 0 19.5 19.5" style="enable-background:new 0 0 19.5 19.5;" xml:space="preserve">
<g>
	<path d="M7.5,0.5C8.8,2.3,10,4.1,11.1,6c0,0.1,0.2,0.1,0.2,0.1c1.9-0.7,3.7-1.6,5.5-2.8c0.1-0.1,0.1-0.2,0-0.3c0,0,0,0,0,0
		c-2.4-2.5-5.8-3.5-9.2-2.8C7.5,0.3,7.4,0.4,7.5,0.5C7.5,0.5,7.5,0.5,7.5,0.5C7.5,0.5,7.5,0.5,7.5,0.5z"/>
	<path d="M0.4,7.8C0.4,7.8,0.4,7.8,0.4,7.8c0.5,0,0.9,0,1.3,0c2.6,0,5.3-0.4,7.8-1.1c0.1-0.1,0.1-0.2,0.1-0.3c0,0,0,0,0,0
		C8.5,4.5,7.3,2.7,5.9,1c0-0.1-0.1-0.1-0.2-0.1C2.9,2.2,0.9,4.6,0.2,7.6C0.2,7.7,0.3,7.8,0.4,7.8z"/>
	<path d="M11.3,10.3c0.1,0,0.1-0.2,0.1-0.3c0,0,0,0,0,0c-0.3-0.6-0.6-1.2-0.9-1.9c0-0.1-0.1-0.1-0.2-0.1C7.5,8.9,4.6,9.3,1.7,9.3
		c-0.5,0-1,0-1.4,0C0.1,9.3,0,9.4,0,9.5v0.3C0,12,0.8,14.2,2.2,16c0.1,0.1,0.2,0.1,0.3,0C4.7,13.2,7.8,11.2,11.3,10.3L11.3,10.3z"/>
	<path d="M11.9,11.7c-3.3,0.8-6.2,2.7-8.3,5.4c-0.1,0.1-0.1,0.2,0,0.3c2.9,2.3,6.9,2.8,10.3,1.2c0.1,0,0.1-0.1,0.1-0.2
		c-0.4-2.2-1.1-4.4-1.9-6.6C12.1,11.7,12,11.7,11.9,11.7z"/>
	<path d="M19.1,11.6c-1.7-0.4-3.5-0.5-5.3-0.3c-0.1,0-0.2,0.2-0.1,0.3c0,0,0,0,0,0c0.7,1.9,1.3,3.8,1.7,5.8v0.1
		c0.1,0.1,0.2,0.1,0.3,0.1c0,0,0,0,0,0c1.8-1.4,3.1-3.4,3.6-5.6C19.3,11.8,19.2,11.7,19.1,11.6z"/>
	<path d="M18,4.5c-0.1-0.1-0.2-0.1-0.3,0c0,0,0,0,0,0c-1.8,1.2-3.7,2.2-5.6,2.9c-0.1,0-0.1,0.2-0.1,0.3c0,0,0,0,0,0
		c0.3,0.7,0.7,1.4,1,2.1c0,0.1,0.1,0.1,0.2,0.1c2-0.3,4.1-0.2,6.1,0.2c0.1,0,0.2-0.1,0.2-0.2c0,0,0,0,0,0V9.8
		C19.5,7.9,19,6.1,18,4.5z"/>
</g>
</svg>
