<?xml version="1.0" encoding="utf-8"?>
<!-- Generator: Adobe Illustrator 25.0.0, SVG Export Plug-In . SVG Version: 6.00 Build 0)  -->
<svg version="1.1" id="Capa_1" xmlns="http://www.w3.org/2000/svg" xmlns:xlink="http://www.w3.org/1999/xlink" x="0px" y="0px"
	 viewBox="0 0 96.6 55.8" style="enable-background:new 0 0 96.6 55.8;" xml:space="preserve">
<style type="text/css">
	.st0{fill:none;}
	.st1{fill:#50565B;}
	.st2{fill-rule:evenodd;clip-rule:evenodd;fill:#50565B;}
</style>
<g>
	<rect class="st0" width="96.6" height="55.8"/>
	<g>
		<path class="st1" d="M61.1,26.7c-0.4,0.3-0.8,0.6-1.2,0.9c-0.1,0.1-0.1,0.1-0.2,0c-1.5-0.7-2.8-0.1-3.1,1.5
			c-0.1,0.6-0.1,1.1,0.1,1.7c0.4,1.3,1.9,1.8,3,1.1c0.2-0.1,0.3-0.1,0.5,0c0.4,0.3,0.8,0.5,1.2,0.8c-1,1.4-4,1.5-5.4,0.3
			c-1.6-1.3-1.8-4.3-0.3-6C57.2,25.2,60,25.5,61.1,26.7z"/>
		<path class="st1" d="M36.1,28.6c0,1.6,0,3.2,0,4.7c0,0.2-0.1,0.3-0.3,0.3c-0.4,0-0.9,0-1.3,0c-0.2,0-0.3,0-0.3-0.2
			c0-3.2,0-6.4,0-9.6c0-0.2,0-0.3,0.2-0.2c0.4,0,0.9,0,1.3,0c0.3,0,0.3,0.1,0.3,0.3C36.1,25.5,36.1,27,36.1,28.6z"/>
		<path class="st1" d="M64.3,26.8c0.3-0.3,0.6-0.6,0.9-0.8c0.6-0.3,1.1-0.4,1.7-0.2c0.1,0,0.2,0.1,0.1,0.3c-0.2,0.5-0.3,1-0.5,1.4
			c-0.1,0.2-0.1,0.2-0.3,0.1c-1.1-0.5-2,0.5-2,1.4c0,1.4,0,2.8,0,4.3c0,0.2-0.1,0.3-0.3,0.3c-0.4,0-0.7,0-1.1,0
			c-0.2,0-0.3-0.1-0.3-0.3c0-2.3,0-4.6,0-6.8c0-0.6,0-0.6,0.6-0.6c0.3,0,0.6,0,0.9,0c0.2,0,0.2,0,0.2,0.2
			C64.3,26.3,64.3,26.5,64.3,26.8z"/>
		<path class="st1" d="M34.3,38c0-0.5,0-0.9,0-1.4c0-0.2,0-0.2,0.2-0.2c0.6,0,1.1,0,1.7,0c0.2,0,0.2,0.1,0.2,0.3
			c0,0.2,0,0.2-0.2,0.2c-0.3,0-0.7,0-1,0c-0.1,0-0.2,0-0.2,0.2c0,0.6,0,0.6,0.5,0.6c0.1,0,0.3,0,0.4,0c0.3,0,0.3,0.1,0.3,0.3
			c0,0.2-0.1,0.2-0.2,0.2c-0.3,0-0.6,0-0.9,0c-0.1,0-0.2,0-0.2,0.2c0,0.7,0,0.7,0.7,0.7c0.2,0,0.4,0,0.5,0c0.2,0,0.3,0.1,0.3,0.3
			c0,0.2-0.1,0.2-0.2,0.2c-0.5,0-1.1,0-1.7,0c-0.2,0-0.2,0-0.2-0.2C34.3,38.9,34.3,38.4,34.3,38z"/>
		<path class="st1" d="M43.2,38.4c0,0.3,0,0.6,0,0.8c0,0.1,0.1,0.3-0.1,0.3c-0.2,0-0.4,0.1-0.5,0c-0.1-0.1-0.1-0.1-0.2,0
			c-0.7,0.4-1.2,0.1-1.3-0.7c0-0.5,0-0.9,0-1.4c0-0.3,0.2-0.2,0.3-0.2c0.1,0,0.3-0.1,0.3,0.2c0,0.4,0,0.9,0,1.3
			c0,0.2,0.1,0.4,0.4,0.4c0.3,0,0.4-0.1,0.4-0.4c0-0.4,0-0.9,0-1.3c0-0.3,0.2-0.2,0.3-0.2c0.1,0,0.3-0.1,0.3,0.2
			C43.2,37.7,43.2,38,43.2,38.4z"/>
		<path class="st1" d="M65.8,37.9c-0.2,0-0.3,0-0.4-0.2c-0.1-0.2-0.3-0.2-0.4-0.1c-0.1,0-0.2,0.1-0.2,0.3c0,0.2,0.2,0.2,0.3,0.2
			c0.2,0.1,0.4,0.1,0.6,0.2c0.3,0.1,0.4,0.3,0.4,0.6c0,0.3-0.1,0.5-0.4,0.6c-0.5,0.2-1.1,0.2-1.4-0.2c-0.1-0.1-0.2-0.2-0.1-0.4
			c0-0.1,0.5,0,0.6,0.1c0.1,0.2,0.3,0.2,0.5,0.2c0.1,0,0.2-0.1,0.2-0.2c0-0.1-0.1-0.2-0.2-0.3c-0.2-0.1-0.4-0.1-0.5-0.2
			c-0.4-0.1-0.6-0.4-0.6-0.7c0-0.3,0.3-0.6,0.7-0.6c0.4-0.1,0.8,0,1.1,0.3c0.1,0.1,0.2,0.2,0.1,0.4C66,38,65.8,37.9,65.8,37.9z"/>
		<path class="st1" d="M83.9,37.9c-0.2,0-0.5,0.2-0.7-0.2c-0.1-0.1-0.3-0.1-0.4-0.1c-0.1,0-0.2,0.1-0.1,0.2c0,0.2,0.2,0.2,0.3,0.3
			c0.2,0.1,0.4,0.1,0.6,0.2c0.3,0.1,0.4,0.3,0.4,0.6c0,0.3-0.1,0.5-0.4,0.6c-0.5,0.3-1.2,0.2-1.5-0.2c-0.1-0.1-0.2-0.3-0.1-0.4
			c0.1-0.1,0.4-0.2,0.6,0.1c0.1,0.2,0.3,0.3,0.6,0.2c0.1,0,0.2-0.1,0.2-0.2c0-0.1-0.1-0.2-0.2-0.2c-0.2-0.1-0.4-0.1-0.6-0.2
			c-0.4-0.1-0.6-0.4-0.6-0.7c0-0.3,0.3-0.6,0.6-0.7C83.3,37.1,83.9,37.4,83.9,37.9z"/>
		<path class="st1" d="M38.3,37.9c-0.2,0-0.4,0-0.4-0.2c-0.1-0.2-0.3-0.1-0.4-0.1c-0.1,0-0.2,0.1-0.2,0.2c0,0.2,0.2,0.2,0.3,0.3
			c0.2,0.1,0.4,0.1,0.6,0.2c0.3,0.1,0.4,0.3,0.4,0.6c0,0.3-0.1,0.5-0.4,0.6c-0.5,0.2-1.2,0.1-1.4-0.2c-0.1-0.1-0.2-0.2-0.1-0.4
			c0.1-0.1,0.5,0,0.6,0.1c0.1,0.2,0.3,0.3,0.5,0.2c0.1,0,0.2-0.1,0.2-0.2c0-0.1-0.1-0.2-0.2-0.3c-0.2-0.1-0.4-0.1-0.6-0.2
			c-0.4-0.1-0.5-0.4-0.5-0.7c0-0.3,0.2-0.5,0.6-0.6c0.5-0.1,1,0,1.2,0.3c0.1,0.1,0.2,0.2,0.1,0.3C38.5,38,38.4,37.9,38.3,37.9z"/>
		<path class="st1" d="M39.5,38.5c0,0.1,0,0.2,0.1,0.4c0,0.2,0.2,0.3,0.3,0.3c0.2,0,0.3,0,0.4-0.2c0.1-0.3,0.4-0.2,0.6-0.2
			c0.1,0,0.1,0.1,0,0.2c-0.1,0.3-0.4,0.5-0.7,0.6c-0.4,0.1-0.8,0-1-0.4c-0.6-0.7-0.2-1.9,0.6-2c0.5-0.1,1,0.1,1.1,0.6
			c0,0.1,0.1,0.3,0,0.3c-0.2,0.1-0.4,0.1-0.5,0c-0.1-0.2-0.3-0.4-0.6-0.3C39.4,37.8,39.5,38.1,39.5,38.5z"/>
		<path class="st1" d="M60.5,38.4c0-0.2,0-0.4,0-0.6c0-0.2,0-0.3-0.2-0.2c-0.2,0-0.1-0.1-0.1-0.2c0-0.1-0.1-0.2,0.1-0.2
			c0.3,0,0.3-0.2,0.2-0.3c0-0.3,0.1-0.3,0.3-0.3c0.2,0,0.4,0,0.3,0.3c0,0.2,0,0.3,0.2,0.3c0.2,0,0.1,0.1,0.2,0.2
			c0,0.1,0,0.2-0.2,0.2c-0.2,0-0.2,0.1-0.2,0.2c0,0.3,0,0.6,0,1c0,0.2,0,0.3,0.3,0.3c0.1,0,0.2,0,0.2,0.2c0,0.1,0.1,0.3-0.1,0.3
			c-0.5,0.1-0.9-0.1-0.9-0.6C60.5,38.8,60.5,38.6,60.5,38.4z"/>
		<path class="st1" d="M74.9,38.4c0-0.2,0-0.3,0-0.5c0-0.2,0.1-0.4-0.2-0.3c-0.2,0-0.1-0.1-0.1-0.2c0-0.1-0.1-0.2,0.1-0.2
			c0.3,0,0.3-0.2,0.3-0.3c0-0.3,0.2-0.2,0.3-0.2c0.2,0,0.3,0,0.3,0.2c0,0.2,0,0.4,0.3,0.3c0.2,0,0.1,0.1,0.1,0.2
			c0,0.1,0,0.2-0.1,0.2c-0.3-0.1-0.3,0.1-0.3,0.3c0,0.3,0,0.6,0,0.9c0,0.2,0,0.3,0.3,0.3c0.1,0,0.2,0,0.2,0.2c0,0.1,0.1,0.3-0.1,0.3
			c-0.5,0.1-0.9-0.1-0.9-0.6C74.9,38.8,74.9,38.6,74.9,38.4z"/>
		<path class="st1" d="M46.6,37.9c0,0.5,0,1,0,1.5c0,0.3-0.2,0.2-0.3,0.2c-0.1,0-0.4,0.1-0.4-0.2c0-1,0-1.9,0-2.9
			c0-0.3,0.2-0.2,0.3-0.2c0.1,0,0.3-0.1,0.3,0.2C46.6,36.9,46.6,37.4,46.6,37.9z"/>
		<path class="st1" d="M79.2,37.9c0,0.5,0,1,0,1.4c0,0.3-0.2,0.2-0.3,0.2c-0.1,0-0.3,0.1-0.3-0.2c0-1,0-1.9,0-2.9
			c0-0.3,0.2-0.2,0.3-0.2c0.1,0,0.3-0.1,0.3,0.2C79.2,36.9,79.2,37.4,79.2,37.9z"/>
		<path class="st1" d="M59.3,37.4c0.1-0.1,0.2-0.1,0.3-0.2c0.1-0.1,0.3-0.1,0.4,0c0.1,0.1,0,0.3,0,0.4c0,0.1-0.1,0.1-0.2,0.1
			c-0.4,0-0.5,0.1-0.5,0.5c0,0.4,0,0.7,0,1.1c0,0.3-0.2,0.2-0.3,0.2c-0.2,0-0.3,0-0.3-0.3c0-0.6,0-1.2,0-1.8c0-0.1-0.1-0.3,0.1-0.3
			C59.2,37.1,59.3,37.2,59.3,37.4z"/>
		<path class="st1" d="M70.7,38.4c0,0.3,0,0.7,0,1c0,0.3-0.2,0.2-0.3,0.2c-0.1,0-0.4,0.1-0.3-0.2c0-0.7,0-1.3,0-2
			c0-0.3,0.2-0.2,0.4-0.2c0.1,0,0.3-0.1,0.3,0.2C70.6,37.7,70.7,38,70.7,38.4z"/>
		<path class="st1" d="M73.6,38.4c0-0.3,0-0.7,0-1c0-0.3,0.2-0.2,0.3-0.2c0.1,0,0.3-0.1,0.3,0.2c0,0.7,0,1.3,0,2
			c0,0.3-0.2,0.2-0.3,0.2c-0.1,0-0.4,0.1-0.3-0.2C73.7,39,73.6,38.7,73.6,38.4z"/>
		<path class="st1" d="M70.3,36.9c-0.2,0-0.3-0.1-0.3-0.4c0-0.2,0.1-0.3,0.3-0.3c0.2,0,0.4,0.1,0.4,0.3
			C70.7,36.7,70.6,36.8,70.3,36.9z"/>
		<path class="st1" d="M74.3,36.5c0,0.2-0.1,0.4-0.4,0.4c-0.2,0-0.3-0.1-0.3-0.3c0-0.2,0.1-0.3,0.3-0.3
			C74.2,36.2,74.3,36.3,74.3,36.5z"/>
		<path class="st1" d="M30.8,29.3c-1-2.8-1.9-5.5-2.9-8.3c-0.1-0.2-0.2-0.3-0.4-0.3c-2.9-0.5-5.7-1.1-8.6-1.6c-0.2,0-0.3,0-0.4,0.2
			c-1.9,2.2-3.8,4.4-5.7,6.6c-0.2,0.2-0.2,0.4-0.1,0.7c1,2.7,1.9,5.5,2.9,8.2c0,0.1,0.1,0.2,0.2,0.3c0.6,0.8,1.4,1.4,2.4,1.6
			c1.2,0.3,2.4,0.1,3.6,0c1-0.1,2-0.2,3,0c0.1,0,0.2,0,0.3-0.1c0.5-0.5,1-1,1.6-1.4c0.8-0.6,1.7-1.1,2.5-1.7
			c1.1-0.9,1.8-1.9,1.8-3.4C30.9,29.7,30.9,29.5,30.8,29.3z M21.8,32.3c-2.5,0-4.5-2-4.5-4.5c0-2.5,2-4.4,4.5-4.4
			c2.4,0,4.4,2,4.4,4.5C26.2,30.2,24.2,32.2,21.8,32.3z"/>
		<path class="st1" d="M44.9,23.7c0-0.1,0-0.2,0-0.3c-0.6,0.2-1.1,0.4-1.6,0.6c-0.2,0.1-0.2,0.2-0.2,0.4c0,0.7,0,1.4,0,2.2
			c-0.3-0.2-0.6-0.3-1-0.4c-1.3-0.4-2.5-0.3-3.5,0.7c-0.8,0.8-1.2,1.8-1.3,2.9c-0.1,1.2,0.2,2.3,1.2,3.2c1.3,1.2,3.3,1.1,4.4-0.2
			c0,0,0,0,0.1,0c0,0.3,0,0.5,0,0.8c0,0.2,0,0.3,0.2,0.2c0.4,0,0.9,0,1.3,0c0.3,0,0.3-0.1,0.3-0.3C44.9,30.1,44.9,26.9,44.9,23.7z
			 M43.1,29.7c0,0.2,0,0.4,0,0.5c0,0.8-0.8,1.7-1.6,1.8c-1,0.2-2-0.5-2.2-1.5c-0.1-0.7-0.1-1.5,0.2-2.2c0.5-1.1,2.2-1.3,3-0.4
			C43.1,28.6,43.2,29.1,43.1,29.7z"/>
		<path class="st1" d="M83.3,28.2c0-1-0.5-1.8-1.4-2.3c-0.9-0.4-1.8-0.5-2.8-0.4c-0.6,0.1-1.1,0.3-1.5,0.6c-0.2,0.1-0.2,0.2-0.1,0.3
			c0.1,0.2,0.3,0.5,0.4,0.7c0.1,0.1,0.1,0.2,0.3,0.1c0.5-0.3,1.1-0.4,1.7-0.4c1,0.1,1.7,0.8,1.5,1.9c-0.8-0.4-1.6-0.6-2.5-0.5
			c-1.3,0.1-2.6,0.9-2.6,2.6c0,1.2,0.4,2.2,1.6,2.6c0.6,0.2,1.2,0.2,1.8,0.1c0.6-0.1,1.2-0.3,1.8-0.6c0,0.1,0,0.2,0,0.3
			c0,0.3,0.1,0.4,0.4,0.4c0.4,0,0.8,0,1.2,0c0.2,0,0.3-0.1,0.3-0.3C83.3,31.6,83.3,29.9,83.3,28.2z M80.9,31.8
			c-0.6,0.2-1.2,0.4-1.8,0.2c-0.6-0.2-0.9-0.5-0.9-1c0-0.6,0.3-1,0.9-1.2c0.5-0.2,1-0.2,1.6-0.1c0.7,0.2,0.9,0.4,0.9,1.1
			C81.5,31.6,81.5,31.6,80.9,31.8z"/>
		<path class="st1" d="M75.4,30.3c0-0.5-0.1-1-0.1-1.4c-0.4-2.2-1.8-3.4-3.8-3.2c-1.7,0.1-2.9,1-3.4,2.6c-0.2,0.9-0.3,1.7-0.1,2.6
			c0.3,1.3,1,2.2,2.3,2.6c0.8,0.3,1.7,0.3,2.5,0.1c0.6-0.1,1.1-0.4,1.6-0.9c0.1-0.1,0.1-0.2,0-0.3c-0.3-0.2-0.7-0.5-1-0.7
			c-0.1-0.1-0.2-0.1-0.3,0c-0.5,0.5-1.1,0.5-1.8,0.4c-0.7-0.1-1.4-0.7-1.6-1.3c-0.1-0.2,0-0.4,0.3-0.3c0.9,0,1.7,0,2.6,0
			c0.9,0,1.7,0,2.6,0C75.3,30.6,75.4,30.5,75.4,30.3z M73.4,29.2c-0.6,0-1.2,0-1.7,0c-0.6,0-1.1,0-1.7,0c-0.2,0-0.3,0-0.2-0.3
			c0.1-1.1,1-1.8,2-1.8c1,0,1.8,0.8,1.9,1.9C73.6,29.2,73.5,29.2,73.4,29.2z"/>
		<path class="st1" d="M53.5,28.8c-0.4-2.1-1.8-3.3-3.8-3.2c-1.7,0.1-2.9,1-3.4,2.5c-0.3,0.9-0.3,1.9-0.1,2.9
			c0.1,0.6,0.4,1.1,0.9,1.6c1,1,2.3,1.2,3.6,1.1c0.7-0.1,1.3-0.4,1.8-0.9c0.1-0.1,0.1-0.2,0-0.3c-0.3-0.2-0.7-0.5-1-0.7
			c-0.1-0.1-0.1-0.1-0.2,0c-0.5,0.4-1.1,0.5-1.8,0.4c-0.7-0.1-1.4-0.6-1.6-1.3c-0.1-0.2,0-0.3,0.2-0.3c0.9,0,1.7,0,2.6,0
			c0.9,0,1.8,0,2.6,0c0.2,0,0.2,0,0.2-0.2C53.7,29.8,53.6,29.3,53.5,28.8z M51.7,29.2c-0.6,0-1.2,0-1.7,0c-0.6,0-1.2,0-1.7,0
			c-0.2,0-0.2,0-0.2-0.2c0-1,1-1.9,2-1.9c1,0,1.9,0.9,1.9,1.9C51.9,29.2,51.8,29.2,51.7,29.2z"/>
		<path class="st1" d="M32,17.7c-0.4-0.3-0.4-0.6-0.1-0.9c0,0,0-0.1,0.1-0.1c-0.1,0-0.1-0.1-0.2-0.1c-0.4,0-0.6-0.3-0.6-0.7
			c0-0.3-0.2-0.2-0.4-0.2c-0.3,0.1-0.6,0.1-0.7-0.3c-0.1-0.2-0.2-0.2-0.3,0c-0.2,0.3-0.5,0.4-0.8,0.1c-0.2-0.1-0.3,0-0.3,0.1
			c-0.1,0.4-0.2,0.6-0.6,0.5c-0.3,0-0.3,0.1-0.2,0.3c0.1,0.3,0.1,0.6-0.3,0.7c-0.2,0.1-0.2,0.2-0.1,0.4c0.3,0.3,0.4,0.5,0.1,0.9
			c-0.1,0.2,0,0.2,0.1,0.2c0.4,0.1,0.6,0.2,0.6,0.7c0,0.2,0.1,0.3,0.3,0.2c0.3-0.1,0.6-0.1,0.7,0.2c0.1,0.3,0.3,0.3,0.5,0.1
			c0.2-0.2,0.4-0.4,0.7-0.1c0.2,0.2,0.3,0.1,0.4-0.1c0-0.3,0.2-0.5,0.6-0.5c0,0,0.1,0,0.1,0c0.1,0,0.2-0.1,0.1-0.2
			c-0.2-0.4,0-0.6,0.3-0.8C32.1,18,32.1,17.9,32,17.7z M29.7,18.9c-0.6,0-1.2-0.5-1.2-1.2c0-0.6,0.5-1.2,1.2-1.1
			c0.6,0,1.1,0.5,1.1,1.1C30.9,18.3,30.3,18.9,29.7,18.9z"/>
		<path class="st1" d="M73.1,37.2c-0.2,0-0.4-0.1-0.5,0c-0.1,0.1-0.1,0.1-0.2,0c-0.5-0.2-1.1,0-1.3,0.5C71,38.1,71,38.3,71,38.6
			c0.1,0.9,0.7,1.2,1.5,0.8c0,0.4-0.1,0.5-0.5,0.6c-0.2,0-0.3,0-0.5-0.2c-0.2-0.2-0.2,0-0.3,0.1c-0.1,0.1-0.2,0.2,0,0.3
			c0.4,0.3,0.8,0.3,1.3,0.2c0.4-0.2,0.6-0.5,0.6-0.9c0-0.7,0-1.3,0-2C73.2,37.4,73.2,37.2,73.1,37.2z M72.5,38.4c0,0.1,0,0.2,0,0.3
			c0,0.2-0.1,0.3-0.3,0.4c-0.2,0.1-0.4,0-0.5-0.2c-0.2-0.2-0.2-0.8,0-1c0.1-0.2,0.3-0.2,0.5-0.2c0.2,0.1,0.3,0.2,0.3,0.4
			C72.5,38.2,72.5,38.3,72.5,38.4z"/>
		<path class="st1" d="M69.5,39.3c0-1,0-1.9,0-2.9c0-0.3-0.2-0.2-0.3-0.2c-0.1,0-0.4-0.1-0.3,0.2c0,0.3,0,0.6,0,0.9
			c-0.6-0.3-1.1-0.2-1.3,0.3c-0.2,0.5-0.2,1,0,1.4c0.2,0.5,0.7,0.6,1.2,0.3c0.1,0,0.1-0.1,0.2,0c0.1,0.2,0.3,0.1,0.5,0.1
			C69.6,39.5,69.5,39.4,69.5,39.3z M68.9,38.4c0,0.1,0,0.2,0,0.3c0,0.2-0.1,0.3-0.3,0.4c-0.2,0-0.3,0-0.5-0.2
			c-0.2-0.2-0.1-0.8,0-1.1c0.1-0.2,0.3-0.2,0.5-0.2c0.2,0.1,0.3,0.2,0.3,0.4C68.9,38.2,68.9,38.3,68.9,38.4z"/>
		<path class="st1" d="M52.5,39.3c0-0.9,0-1.8,0-2.6c0-0.4,0-0.4-0.4-0.4c-0.2,0-0.2,0.1-0.2,0.2c0,0.3,0,0.6,0,0.9
			c-0.6-0.3-1.1-0.2-1.3,0.3c-0.2,0.5-0.2,1,0,1.5c0.2,0.5,0.7,0.6,1.2,0.3c0.1,0,0.1-0.2,0.2,0c0.1,0.2,0.3,0.1,0.5,0.1
			C52.6,39.5,52.5,39.4,52.5,39.3z M51.9,38.4c0,0.1,0,0.2,0,0.3c0,0.2-0.1,0.3-0.3,0.4c-0.2,0-0.4,0-0.5-0.2c-0.2-0.3-0.1-0.7,0-1
			c0.1-0.2,0.3-0.2,0.5-0.2c0.2,0,0.3,0.2,0.3,0.4C51.9,38.2,51.9,38.3,51.9,38.4z"/>
		<path class="st1" d="M49,38c0-0.4-0.3-0.7-0.7-0.8c-0.5-0.1-1,0.1-1.2,0.5c-0.1,0.1-0.1,0.2,0.1,0.2c0.2,0,0.4,0,0.6-0.2
			c0.1-0.1,0.2-0.1,0.3,0c0.2,0,0.3,0.1,0.3,0.3c0,0.2-0.2,0.1-0.3,0.1c-0.2,0-0.4,0-0.6,0.1c-0.2,0.1-0.4,0.2-0.5,0.5
			c-0.1,0.3,0,0.6,0.2,0.8c0.3,0.2,0.6,0.2,0.9,0.1c0.1,0,0.2-0.1,0.2-0.1c0.2,0.3,0.5,0.1,0.7,0.1C48.9,39,49,38.5,49,38z M48,39.1
			c-0.2,0-0.3,0-0.3-0.2c0-0.3,0.3-0.3,0.5-0.3c0.2,0,0.2,0,0.2,0.2C48.4,39,48.2,39.1,48,39.1z"/>
		<path class="st1" d="M58.3,38.1c0-0.5-0.2-0.7-0.6-0.9c-0.5-0.1-1,0-1.3,0.3c-0.1,0.1-0.1,0.2-0.1,0.3c0,0.1,0.2,0,0.3,0
			c0.2,0,0.3,0,0.4-0.1c0.1-0.1,0.3-0.1,0.4,0c0.1,0.1,0.2,0.2,0.2,0.3c0,0.2-0.2,0.1-0.2,0.1c-0.2,0-0.4,0-0.6,0.1
			c-0.3,0.1-0.5,0.2-0.5,0.5c-0.1,0.3,0,0.6,0.2,0.7c0.3,0.2,0.6,0.2,0.9,0.1c0.1,0,0.2-0.2,0.2-0.1c0.2,0.3,0.4,0,0.7,0.2
			C58.2,39,58.3,38.6,58.3,38.1z M57.3,39.1c-0.2,0-0.3-0.1-0.3-0.3c0-0.2,0.2-0.3,0.5-0.3c0.1,0,0.2,0,0.2,0.2
			C57.7,39,57.5,39.1,57.3,39.1z"/>
		<path class="st1" d="M78.1,38.1c0-0.5-0.2-0.8-0.5-0.9c-0.4-0.2-1,0-1.3,0.3c-0.1,0.1-0.2,0.2-0.1,0.3c0,0.1,0.2,0,0.3,0
			c0.2,0,0.3,0,0.4-0.1c0.1-0.1,0.2-0.1,0.3-0.1c0.2,0,0.3,0.1,0.3,0.3c0,0.2-0.2,0.1-0.3,0.1c-0.2,0-0.4,0-0.6,0.1
			c-0.2,0.1-0.4,0.2-0.5,0.5c-0.1,0.3,0,0.6,0.2,0.7c0.3,0.2,0.6,0.2,0.9,0.1c0.1,0,0.1-0.1,0.2-0.1c0.2,0.3,0.5,0.1,0.7,0.1
			C78,39.1,78.1,38.6,78.1,38.1z M77,39.1c-0.2,0-0.3-0.1-0.3-0.3c0-0.3,0.3-0.3,0.5-0.3c0.2,0,0.2,0,0.2,0.2
			C77.4,39,77.2,39.1,77,39.1z"/>
		<path class="st1" d="M44.4,37.2c-0.6,0.1-0.9,0.6-0.8,1.3c0,0.5,0.2,0.8,0.7,1c0.4,0.2,0.9,0.1,1.3-0.2c0.1-0.1,0.2-0.2,0.1-0.3
			c-0.1-0.1-0.1-0.3-0.3-0.1c-0.3,0.2-0.7,0.2-0.9-0.1c0-0.1-0.1-0.1-0.1-0.2c0-0.1,0.1,0,0.2,0c0.2,0,0.3,0,0.5,0
			c0.2,0,0.4,0,0.6,0c0.1,0,0.1,0,0.2-0.1C45.8,37.7,45.2,37,44.4,37.2z M44.9,38.2c-0.2,0-0.5,0-0.7,0c0.1-0.3,0.2-0.5,0.5-0.5
			c0.2,0,0.3,0.1,0.4,0.3C45.1,38.1,45,38.2,44.9,38.2z"/>
		<path class="st1" d="M54,37.2c-0.7,0-1.1,0.6-1.1,1.4c0,0.5,0.2,0.8,0.7,1c0.4,0.2,0.9,0.1,1.3-0.2c0.1-0.1,0.2-0.1,0.1-0.3
			c-0.1-0.1-0.1-0.3-0.3-0.1c-0.3,0.3-0.7,0.2-0.9-0.1c0-0.1-0.1-0.1-0.1-0.2c0,0,0.1,0,0.2,0c0.2,0,0.3,0,0.5,0c0.2,0,0.4,0,0.6,0
			c0.1,0,0.1,0,0.2-0.1C55.1,37.8,54.8,37.2,54,37.2z M54.2,38.2c-0.2,0-0.5,0-0.7,0c0-0.3,0.1-0.5,0.4-0.5c0.2,0,0.4,0.1,0.4,0.3
			C54.4,38.1,54.4,38.2,54.2,38.2z"/>
		<path class="st1" d="M62.9,37.2c-0.7,0-1.1,0.6-1.1,1.4c0,0.5,0.2,0.8,0.7,1c0.4,0.2,0.9,0.1,1.3-0.2c0.1-0.1,0.2-0.1,0.1-0.3
			c-0.1-0.1-0.1-0.3-0.3-0.1c-0.3,0.3-0.7,0.2-0.9-0.1c0-0.1-0.1-0.1-0.1-0.2c0,0,0.1,0,0.2,0c0.2,0,0.3,0,0.5,0c0.2,0,0.4,0,0.6,0
			c0.1,0,0.1,0,0.2-0.1C64,37.8,63.7,37.2,62.9,37.2z M63.3,38.1c0,0.1-0.2,0-0.2,0c-0.1,0-0.1,0-0.2,0c0,0,0,0-0.1,0
			c-0.1,0-0.3,0.1-0.3-0.1c0-0.2,0.1-0.3,0.3-0.4c0.2-0.1,0.3,0,0.4,0.1C63.3,37.9,63.3,38,63.3,38.1z"/>
		<path class="st1" d="M81,37.2c-0.5-0.2-1,0-1.3,0.5c-0.3,0.5-0.2,1.3,0.2,1.6c0.4,0.4,1.1,0.4,1.5,0c0.1-0.1,0.3-0.1,0.1-0.3
			c-0.1-0.1-0.1-0.3-0.4-0.1c-0.3,0.2-0.7,0.2-0.9-0.1c-0.1-0.1-0.1-0.2,0.1-0.2c0.2,0,0.4,0,0.5,0c0.2,0,0.4,0,0.6,0
			c0.1,0,0.1,0,0.2-0.1C81.8,38,81.5,37.4,81,37.2z M81.1,38.1c0,0.2-0.2,0.1-0.3,0.1c0,0-0.1,0-0.2,0c0,0,0,0-0.1,0
			c-0.1,0-0.3,0.1-0.3-0.1c0-0.2,0.1-0.3,0.3-0.4c0.1,0,0.2,0,0.3,0C81,37.8,81.1,37.9,81.1,38.1z"/>
	</g>
</g>
</svg>
