<?xml version="1.0" encoding="utf-8"?>
<!-- Generator: Adobe Illustrator 25.0.0, SVG Export Plug-In . SVG Version: 6.00 Build 0)  -->
<svg version="1.1" id="Capa_1" xmlns="http://www.w3.org/2000/svg" xmlns:xlink="http://www.w3.org/1999/xlink" x="0px" y="0px"
	 viewBox="0 0 155.2 55.8" style="enable-background:new 0 0 155.2 55.8;" xml:space="preserve">
<style type="text/css">
	.st0{fill:none;}
	.st1{fill:#50565B;}
	.st2{fill-rule:evenodd;clip-rule:evenodd;fill:#50565B;}
</style>
<g>
	<rect x="0.1" class="st0" width="155" height="55.8"/>
	<g>
		<g>
			<path class="st2" d="M28.8,21.4c-0.1-0.3,0.1-0.6,0.1-0.6c0.2-0.1,0.6,0,0.7,0.2c0.1,0.3,0,0.5-0.3,0.7
				C29.2,21.7,29,21.6,28.8,21.4z"/>
			<polygon class="st2" points="38.3,37.6 36.3,39.2 36.3,23 38.3,23 			"/>
			<path class="st2" d="M39.6,36.2l0-13.2h1.6l0,10.1C40.9,34,40.4,35.1,39.6,36.2z"/>
			<polygon class="st2" points="33.1,37.8 35.1,39.3 35.1,23 33.1,23 			"/>
			<path class="st2" d="M32,36.7L32,23h-1.8v10.8C30.3,34.5,31.6,36.3,32,36.7z"/>
			<path class="st1" d="M35.6,41.4c-7.5,0-13.5-6.1-13.5-13.5c0-7.4,6.1-13.5,13.5-13.5c7.4,0,13.5,6.1,13.5,13.5
				C49.1,35.4,43.1,41.4,35.6,41.4v0.5c7.7,0,14-6.3,14-14c0-7.7-6.3-14-14-14c-7.7,0-14,6.3-14,14c0,7.7,6.3,14,14,14V41.4z"/>
			<path class="st1" d="M35.6,46.7c-10.4,0-18.8-8.4-18.8-18.8S25.2,9.1,35.6,9.1c10.4,0,18.8,8.4,18.8,18.8S46,46.7,35.6,46.7v0.6
				c10.7,0,19.4-8.7,19.4-19.4c0-10.7-8.7-19.4-19.4-19.4c-10.7,0-19.4,8.7-19.4,19.4c0,10.7,8.7,19.4,19.4,19.4V46.7z"/>
			<path class="st2" d="M19.6,33.4c0.4,0.4,0.6,0.7,0.9,1.2c0.2,0.5,0.3,0.8,0.3,1.3l1-0.4c-0.4-0.4-0.6-0.6-0.8-1.1
				c-0.2-0.5-0.3-0.9-0.4-1.5L19.6,33.4z"/>
			<path class="st2" d="M19.5,35.5c0.4-0.4,0.7-0.6,1.2-0.9c0.5-0.2,0.8-0.2,1.3-0.3l-0.4-1c-0.4,0.4-0.6,0.6-1.1,0.8
				c-0.5,0.2-0.9,0.3-1.5,0.4L19.5,35.5z"/>
			<path class="st2" d="M51.6,33.4c-0.4,0.4-0.6,0.7-0.9,1.2c-0.2,0.5-0.3,0.8-0.3,1.3l-1-0.4c0.4-0.4,0.6-0.6,0.8-1.1
				c0.2-0.5,0.3-0.9,0.4-1.5L51.6,33.4z"/>
			<path class="st2" d="M51.7,35.5c-0.4-0.4-0.7-0.6-1.2-0.9c-0.5-0.2-0.8-0.2-1.3-0.3l0.4-1c0.4,0.4,0.6,0.5,1.1,0.8
				c0.5,0.2,0.9,0.3,1.5,0.4L51.7,35.5z"/>
			<path class="st2" d="M28,41.4c0.3-0.1,0.4,0,0.4-0.1c0-0.1,0-0.1-0.1-0.1c-0.1-0.1-0.2-0.1-0.3-0.2c-0.1-0.1-0.2-0.2-0.3-0.2
				c0,0-0.1-0.1-0.2-0.1c-0.1,0.1,0.3,0.3,0.1,0.6c0,0.1-0.1,0.2-0.4,0.3L26,42.3c0,0-0.1,0.1-0.1,0c0,0,0-0.1,0-0.1l0.5-1.5
				c0.1-0.3,0.2-0.5,0.3-0.6c0.1-0.1,0.3,0.1,0.3,0c0-0.1,0-0.1-0.1-0.2c-0.1,0-0.2-0.1-0.4-0.3c-0.1-0.1-0.2-0.2-0.3-0.3
				c-0.1,0-0.1-0.1-0.2-0.1c0,0,0,0.1,0,0.1c0.1,0.1,0.1,0.2,0.1,0.4l-0.8,2.7c-0.1,0.2,0,0.3,0,0.3c0,0,0.1,0,0.2,0L28,41.4z"/>
			<path class="st2" d="M31.4,42.8c0.1-0.3,0.3-0.1,0.4-0.3c0-0.1,0-0.1-0.1-0.1c-0.1,0-0.1,0-0.5-0.1c-0.2,0-0.4-0.1-0.6-0.2
				c-0.1,0-0.1,0-0.2,0c0,0.2,0.5,0.2,0.4,0.5l-0.5,2.1c-0.1,0.5-0.4,0.2-0.4,0.4c0,0,0,0.1,0.1,0.1c0.2,0.1,0.4,0.1,0.5,0.1
				c0.2,0.1,0.4,0.1,1.1,0.3c0.3,0.1,0.7-0.2,0.8-0.5c0-0.1,0-0.1,0-0.1c-0.2,0-0.2,0.5-1.3,0.3c-0.3-0.1-0.2-0.2-0.2-0.5L31.4,42.8
				z"/>
			<path class="st2" d="M33.8,43.3c0-0.3,0-0.3,0.6-0.3c0.8,0.1,0.5,0.6,0.6,0.6c0.1,0,0.1-0.1,0.1-0.2l0-0.4c0,0,0-0.1-0.1-0.1
				c-0.4,0-0.7,0-1,0c-0.6,0-1-0.1-1.1-0.1c-0.1,0-0.1,0-0.1,0.1c0,0.2,0.5,0.1,0.4,0.5l-0.1,2.1c0,0.5-0.3,0.3-0.4,0.5
				c0,0,0,0.1,0.1,0.1c0.2,0,0.4,0,0.5,0c0.2,0,0.5,0.1,1.1,0.1c0.3,0,0.6-0.3,0.6-0.7c0-0.1,0-0.1,0-0.1c-0.2,0-0.1,0.6-1.2,0.5
				c-0.3,0-0.3-0.2-0.3-0.5l0-0.6c0-0.3,0-0.3,0.2-0.3l0.3,0c0.4,0,0.3,0.5,0.4,0.5c0.1,0,0.1-0.2,0.1-0.2l0-0.8
				c0-0.1,0-0.1-0.1-0.1c-0.1,0-0.1,0.4-0.5,0.4l-0.3,0c-0.2,0-0.2,0-0.2-0.2L33.8,43.3z"/>
			<path class="st2" d="M36.1,45.4c0,0.5-0.4,0.4-0.4,0.6c0,0.1,0.1,0,0.1,0c0.1,0,0.2,0,0.4,0c0.1,0,0.3,0,0.5,0
				c0.1,0,0.2,0,0.2-0.1c0-0.2-0.5,0.1-0.6-0.7l-0.1-1.5c0,0,0-0.1,0-0.1c0,0,0,0,0.1,0.1l2.2,2.1c0,0,0.1,0.1,0.1,0.1
				c0.1,0,0,0,0-0.1l-0.2-2.5c0-0.5,0.3-0.4,0.3-0.5c0,0,0-0.1-0.1-0.1c0,0-0.2,0-0.5,0.1c-0.3,0-0.4,0-0.5,0
				c-0.1,0-0.1,0.1-0.1,0.1c0,0.1,0.5,0,0.6,0.4l0.1,1.5c0,0.1,0,0.2,0,0.2c0,0-0.1,0-0.1-0.1L36.3,43c-0.1-0.1,0-0.1-0.2-0.1
				c-0.2,0-0.3,0-0.4,0.1c-0.1,0-0.2,0-0.2,0c-0.1,0-0.1,0-0.1,0.1c0,0.2,0.5-0.1,0.5,0.7L36.1,45.4z"/>
			<path class="st2" d="M41.4,42C41.4,42,41.3,42,41.4,42c-0.1,0-0.1,0.1-0.2,0.2c-0.1,0-0.5-0.1-1,0c-1,0.3-1.2,1.4-0.9,2.1
				c0.1,0.3,0.6,1.4,1.8,1c0.9-0.3,1.1-1,1-1.2c0,0-0.1,0-0.1,0c-0.1,0-0.2,0.7-0.8,0.9c-0.8,0.2-1.4-0.5-1.5-1.1
				c-0.2-0.6,0-1.3,0.6-1.5c0.5-0.1,0.9,0.1,1.3,0.5c0,0,0.1,0.1,0.2,0.1c0.1,0,0-0.1,0-0.2L41.4,42z"/>
			<path class="st2" d="M42.6,41.7c-0.2-0.4,0.2-0.4,0.1-0.5c0,0,0,0-0.2,0c-0.2,0.1-0.3,0.2-0.5,0.3c-0.1,0.1-0.3,0.1-0.4,0.2
				c0,0-0.1,0.1-0.1,0.1c0.1,0.1,0.4-0.2,0.6,0.2l1,1.9c0.2,0.4-0.1,0.4-0.1,0.6c0,0,0,0,0.1,0c0.1-0.1,0.2-0.2,0.4-0.2
				c0.3-0.2,0.4-0.2,0.6-0.3c0.1,0,0.1-0.1,0.1-0.1c-0.1-0.1-0.4,0.3-0.6-0.2L42.6,41.7z"/>
			<path class="st2" d="M18.3,26.1C18,26,18.1,25.8,18,25.8c-0.1,0-0.1,0-0.1,0.1c0,0.1,0,0.2,0,0.3c0,0.1,0,0.2,0,0.3
				c0,0,0,0.1,0.1,0.2c0.2,0,0-0.4,0.4-0.3c0.1,0,0.2,0,0.5,0.2l1.3,0.6c0,0,0.1,0,0.1,0.1c0,0-0.1,0-0.1,0l-1.5,0.3
				c-0.3,0.1-0.5,0.1-0.6,0.1c-0.2,0-0.1-0.2-0.2-0.2c-0.1,0-0.1,0-0.1,0.1c0,0.1,0,0.2,0,0.4c0,0.1,0,0.2-0.1,0.4
				c0,0.1-0.1,0.2,0.1,0.2c0,0,0.1,0,0.1-0.1c0.1-0.1,0.1-0.2,0.3-0.2l2.7-0.6c0.2,0,0.2-0.1,0.2-0.1c0,0,0-0.1-0.1-0.1L18.3,26.1z"
				/>
			<path class="st2" d="M20.4,25.8c0.4,0.1,0.3,0.4,0.5,0.5c0.1,0,0.1-0.1,0.1-0.1c0-0.1,0-0.2,0.1-0.3c0-0.1,0.1-0.2,0.1-0.4
				c0,0,0-0.1,0-0.1c-0.2,0,0,0.5-0.8,0.3l-1.5-0.3c0,0-0.1,0-0.1,0c0,0,0,0,0.1,0l2.6-1.2c0,0,0.1,0,0.1-0.1c0,0,0-0.1-0.1-0.1
				l-2.4-0.6c-0.5-0.1-0.3-0.4-0.4-0.4c0,0-0.1,0-0.1,0.1c0,0,0,0.2-0.1,0.4c-0.1,0.2-0.1,0.3-0.1,0.4c0,0,0,0.1,0.1,0.1
				c0.1,0,0.2-0.4,0.6-0.3l1.4,0.3c0.1,0,0.2,0,0.2,0.1c0,0-0.1,0.1-0.1,0.1l-2.2,1c-0.1,0-0.1,0-0.1,0.1c0,0.2,0,0.3-0.1,0.4
				c0,0.1,0,0.1-0.1,0.2c0,0,0,0.1,0.1,0.1c0.2,0,0-0.4,0.9-0.2L20.4,25.8z"/>
			<path class="st2" d="M19.3,22c-0.4-0.1-0.2-0.3-0.3-0.4c-0.1,0-0.1,0-0.1,0.1c-0.1,0.2-0.1,0.3-0.1,0.4c0,0.1-0.1,0.2-0.1,0.4
				c0,0-0.1,0.1,0,0.1c0.1,0,0.2-0.4,0.5-0.2l2,0.7c0.4,0.1,0.2,0.3,0.4,0.4c0,0,0.1,0,0.1,0c0-0.1,0.1-0.2,0.1-0.4
				c0.1-0.3,0.1-0.4,0.2-0.5c0-0.1,0-0.1,0-0.1c-0.1,0-0.1,0.4-0.6,0.2L19.3,22z"/>
			<path class="st2" d="M20.3,19.5c-0.2-0.2-0.1-0.3-0.2-0.4c-0.1,0-0.1,0-0.1,0.1c0,0.1-0.1,0.2-0.1,0.3c0,0.1-0.1,0.2-0.1,0.3
				c0,0-0.1,0.1,0,0.2c0.1,0.1,0.1-0.3,0.5-0.2c0.1,0,0.2,0.1,0.4,0.3l1,1c0,0,0.1,0.1,0.1,0.1c0,0-0.1,0-0.1,0L20.2,21
				c-0.3,0-0.5-0.1-0.6-0.1c-0.2-0.1,0-0.2-0.1-0.3c-0.1,0-0.1,0-0.1,0.1c0,0.1,0,0.2-0.1,0.4c0,0.1-0.1,0.2-0.2,0.3
				c0,0-0.1,0.1,0,0.2c0,0,0.1,0,0.1,0c0.1-0.1,0.2-0.1,0.4-0.1l2.7,0.2c0.2,0,0.3,0,0.3,0c0,0,0-0.1-0.1-0.1L20.3,19.5z"/>
			<path class="st2" d="M21,18.6c-0.3-0.2-0.3-0.2,0-0.5c0.4-0.6,0.7-0.1,0.8-0.2c0-0.1-0.1-0.1-0.1-0.2l-0.4-0.2c0,0-0.1,0-0.1,0
				c-0.2,0.3-0.3,0.5-0.4,0.7c-0.3,0.5-0.5,0.7-0.5,0.8c0,0,0,0.1,0,0.1c0.1,0.1,0.2-0.3,0.6-0.1l1.8,1.1c0.5,0.3,0.1,0.4,0.3,0.5
				c0,0,0.1,0,0.1,0c0.1-0.2,0.2-0.3,0.2-0.4c0.1-0.1,0.2-0.3,0.5-0.8c0.2-0.2,0-0.6-0.3-0.8c-0.1,0-0.1,0-0.1,0
				c-0.1,0.1,0.4,0.4,0,1.1c-0.1,0.2-0.3,0.1-0.5,0l-0.5-0.3C22,19.2,21.9,19.2,22,19l0.1-0.2c0.2-0.3,0.5,0,0.6-0.1
				c0-0.1-0.1-0.1-0.2-0.2l-0.7-0.4c-0.1-0.1-0.1,0-0.1,0c0,0.1,0.3,0.3,0.1,0.6l-0.1,0.2c-0.1,0.1-0.1,0.1-0.3,0L21,18.6z"/>
			<path class="st2" d="M25.5,16.9c0.1,0.1,0.1,0.1,0.2,0.1c0.2-0.1,0.4-0.1,0.6-0.3c0.4-0.3,0.4-0.8,0-1.3
				c-0.4-0.4-0.7-0.4-1.1-0.3c-0.5,0.1-0.7,0.2-0.9,0c-0.2-0.2-0.2-0.5,0-0.6c0.5-0.4,1,0.2,1.1,0.2c0.1-0.1,0-0.1,0-0.2l-0.4-0.4
				c-0.1-0.1-0.1-0.1-0.1-0.1c0,0-0.1,0.1-0.1,0.2c-0.1,0.1-0.3,0-0.5,0.2c-0.3,0.3-0.3,0.7,0,1.1c0.3,0.4,0.6,0.4,0.9,0.3
				c0.6-0.1,0.9-0.2,1.1,0.1c0.2,0.3,0.2,0.6,0,0.8c-0.3,0.3-0.7,0.1-1.1-0.2c0,0-0.1-0.1-0.1,0c-0.1,0.1,0,0.1,0.1,0.2L25.5,16.9z"
				/>
			<path class="st2" d="M25.9,13.5c-0.2-0.3,0.1-0.4,0-0.5c0,0-0.1,0-0.1,0c-0.2,0.1-0.3,0.2-0.4,0.3c-0.1,0.1-0.2,0.1-0.3,0.2
				c0,0-0.1,0.1-0.1,0.1c0.1,0.1,0.3-0.2,0.6,0.1l1.2,1.8c0.2,0.3,0,0.4,0.1,0.5c0,0,0,0,0.1,0c0.1-0.1,0.2-0.2,0.3-0.2
				c0.2-0.2,0.3-0.2,0.5-0.3c0.1,0,0.1-0.1,0.1-0.1c-0.1-0.1-0.3,0.3-0.6-0.2L25.9,13.5z"/>
			<path class="st2" d="M38.4,10.8c0-0.2,0.1-0.3,0.3-0.2c0.5,0.1,0.5,0.7,0.4,0.9c0,0.1-0.1,0.6-0.6,0.5c-0.1,0-0.1-0.1-0.2-0.1
				c0,0-0.1,0-0.1,0.1c0,0,0,0.1,0.3,0.2c0.4,0.1,0.8-0.2,0.9-0.8c0.1-0.6-0.3-0.9-0.7-1c-0.3,0-0.5-0.1-0.6-0.1
				c-0.3,0-0.5-0.1-0.5-0.1c-0.1,0-0.1,0-0.1,0.1c0,0.2,0.4,0,0.3,0.5l-0.3,1.9c-0.1,0.5-0.4,0.4-0.4,0.5c0,0.1,0.1,0.1,0.1,0.1
				c0,0,0.3,0,0.4,0.1c0.1,0,0.2,0.1,0.5,0.1c0,0,0.1,0,0.1-0.1c0-0.2-0.4,0-0.3-0.6L38.4,10.8z"/>
			<path class="st2" d="M41.3,11c-0.8-0.3-1.5,0.3-1.8,1.2c-0.3,0.9,0,1.6,0.6,1.8c1.1,0.4,1.6-0.6,1.8-1.2
				C42.3,11.9,42,11.2,41.3,11z M41.5,12.8c-0.2,0.7-0.6,1.2-1.2,1c-0.6-0.2-0.5-1.2-0.3-1.8c0.2-0.6,0.6-1.1,1.2-1
				C41.6,11.3,41.9,11.9,41.5,12.8z"/>
			<path class="st2" d="M43.3,12.3c0.2-0.3,0.3,0,0.4-0.2c0,0,0-0.1-0.1-0.1c-0.1,0-0.1,0-0.4-0.2c-0.1-0.1-0.3-0.2-0.4-0.2
				c-0.1,0-0.1,0-0.1,0c-0.1,0.1,0.3,0.2,0.2,0.6l-1,1.9c-0.2,0.5-0.4,0.1-0.5,0.3c0,0,0,0.1,0,0.1c0.2,0.1,0.3,0.1,0.4,0.2
				c0.2,0.1,0.3,0.2,0.8,0.4c0.3,0.1,0.6-0.1,0.8-0.4c0-0.1,0-0.1,0-0.1c-0.1-0.1-0.3,0.5-1.1,0.1c-0.2-0.1-0.1-0.3,0-0.5L43.3,12.3
				z"/>
			<path class="st2" d="M45.2,13.5c0.2-0.4,0.4-0.1,0.5-0.2c0,0,0-0.1-0.1-0.1c-0.2-0.1-0.3-0.2-0.4-0.2c-0.1-0.1-0.2-0.2-0.3-0.2
				c0,0-0.1-0.1-0.1,0c-0.1,0.1,0.3,0.3,0.1,0.6L43.7,15c-0.2,0.4-0.4,0.1-0.5,0.2c0,0,0,0,0,0.1c0.1,0.1,0.2,0.1,0.3,0.2
				c0.2,0.2,0.3,0.2,0.4,0.3c0.1,0,0.1,0,0.1,0c0.1-0.1-0.4-0.2-0.1-0.6L45.2,13.5z"/>
			<path class="st2" d="M45.1,16c-0.3,0.4-0.5,0-0.6,0.1c-0.1,0.1,0,0.1,0,0.2c0.1,0.1,0.2,0.1,0.4,0.3c0.2,0.1,0.3,0.2,0.4,0.3
				c0.1,0.1,0.1,0.1,0.2,0c0.1-0.1-0.4-0.3,0-0.7l1.2-1.6c0.1-0.2,0.2-0.2,0.3-0.1l0.2,0.2c0.3,0.2-0.1,0.6,0.1,0.6
				c0.1,0.1,0.2-0.1,0.2-0.2l0.2-0.3c0,0,0.1-0.1,0-0.1c-0.3-0.2-0.5-0.3-0.9-0.7c-0.4-0.3-0.6-0.5-0.9-0.7c0,0-0.1,0-0.1,0
				l-0.4,0.4c0,0-0.1,0.1-0.1,0.2c0.1,0.1,0.4-0.4,0.7-0.2l0.2,0.2c0.1,0.1,0.1,0.1,0,0.3L45.1,16z"/>
			<path class="st2" d="M48.2,16c0.2-0.2,0.2-0.2,0.5,0.1c0.5,0.5-0.1,0.7,0,0.8c0.1,0.1,0.2-0.1,0.2-0.1l0.3-0.3c0,0,0-0.1,0-0.1
				c-0.2-0.2-0.4-0.4-0.6-0.6c-0.4-0.4-0.5-0.6-0.6-0.7c0,0-0.1,0-0.1,0c-0.1,0.1,0.2,0.3,0,0.6l-1.5,1.4c-0.4,0.4-0.4,0-0.6,0.1
				c0,0,0,0,0,0.1c0.1,0.1,0.2,0.2,0.3,0.3c0.1,0.1,0.3,0.3,0.6,0.7c0.2,0.2,0.6,0.1,0.9-0.1c0.1-0.1,0.1-0.1,0-0.1
				c-0.1-0.1-0.5,0.3-1.1-0.3c-0.2-0.2,0-0.3,0.2-0.5l0.4-0.4c0.2-0.2,0.2-0.2,0.3-0.1l0.2,0.2c0.3,0.3-0.2,0.5-0.1,0.6
				c0.1,0.1,0.2-0.1,0.2-0.1l0.6-0.6c0.1-0.1,0.1-0.1,0-0.1c0-0.1-0.4,0.2-0.6,0l-0.2-0.2c-0.1-0.1-0.1-0.1,0.1-0.3L48.2,16z"/>
			<path class="st2" d="M50.8,18.8C50.8,18.8,50.8,18.7,50.8,18.8c0-0.1-0.2,0-0.2-0.1c-0.1-0.1,0-0.5-0.2-0.8
				c-0.5-0.7-1.5-0.5-2.2-0.1c-0.3,0.2-1.2,1-0.6,1.8c0.4,0.6,1.2,0.6,1.3,0.5c0,0,0-0.1,0-0.1c-0.1-0.1-0.7,0-1-0.4
				c-0.4-0.6,0.2-1.3,0.7-1.6c0.5-0.3,1.2-0.4,1.5,0c0.2,0.3,0.1,0.8-0.2,1.2c0,0.1-0.1,0.1-0.1,0.2c0,0.1,0.1,0,0.1,0L50.8,18.8z"
				/>
			<path class="st2" d="M49,20.5c-0.4,0.2-0.5-0.2-0.6-0.1c-0.1,0,0,0.1,0,0.1c0,0.1,0.1,0.2,0.1,0.3c0.1,0.1,0.1,0.2,0.2,0.4
				c0,0,0.1,0.1,0.1,0.1c0.2-0.1-0.3-0.4,0.5-0.7l1.4-0.6c0,0,0.1,0,0.1,0c0,0,0,0,0,0.1l-1.4,2.5c0,0,0,0.1,0,0.1c0,0,0.1,0,0.1,0
				l2.3-1.1c0.4-0.2,0.5,0.1,0.6,0.1c0,0,0.1,0,0-0.1c0,0-0.1-0.1-0.2-0.3C52.1,21,52,20.9,52,20.9c0,0-0.1,0-0.1,0
				c-0.1,0.1,0.1,0.4-0.2,0.6l-1.3,0.6c-0.1,0-0.2,0.1-0.2,0c0,0,0-0.1,0.1-0.1l1.2-2.1c0-0.1,0.1-0.1,0-0.2
				c-0.1-0.2-0.1-0.2-0.2-0.3c0-0.1,0-0.1-0.1-0.2c0,0-0.1,0-0.1,0c-0.2,0.1,0.2,0.3-0.5,0.7L49,20.5z"/>
			<path class="st2" d="M52.2,22.9c0.4-0.1,0.3,0.2,0.5,0.1c0.1,0,0.1,0,0-0.1c-0.1-0.2-0.1-0.3-0.2-0.4c0-0.1-0.1-0.3-0.1-0.4
				c0,0,0-0.1-0.1-0.1c-0.1,0,0.1,0.4-0.3,0.5l-2,0.7c-0.4,0.1-0.4-0.1-0.5-0.1c0,0,0,0,0,0.1c0,0.1,0.1,0.2,0.1,0.4
				c0.1,0.3,0.1,0.4,0.2,0.5c0,0.1,0.1,0.1,0.1,0.1c0.1,0-0.2-0.4,0.3-0.5L52.2,22.9z"/>
			<path class="st2" d="M53.2,25.6C53.2,25.6,53.2,25.5,53.2,25.6c0-0.1-0.1-0.1-0.1-0.1c0-0.1,0.2-0.4,0.1-0.9
				c-0.2-0.9-1.2-1.1-1.9-0.9c-0.3,0.1-1.4,0.4-1.3,1.4c0.1,0.7,0.9,1,1,1c0,0,0,0,0-0.1c0-0.1-0.6-0.2-0.7-0.8
				c-0.1-0.7,0.7-1.1,1.3-1.2c0.6-0.1,1.3,0.1,1.3,0.6c0.1,0.4-0.3,0.8-0.6,1c-0.1,0-0.1,0.1-0.1,0.1c0,0.1,0.1,0,0.2,0L53.2,25.6z"
				/>
			<path class="st2" d="M27.6,36.8c-0.1,0.1-0.1,0.1-0.3-0.1c-0.2-0.3,0.1-0.3,0-0.4c0,0-0.1,0-0.1,0l-0.2,0.1c0,0,0,0,0,0.1
				c0.1,0.1,0.2,0.2,0.3,0.3c0.2,0.2,0.2,0.3,0.3,0.4c0,0,0,0,0.1,0c0.1-0.1-0.1-0.2,0-0.3l0.8-0.6c0.2-0.2,0.2,0,0.3,0c0,0,0,0,0,0
				c-0.1-0.1-0.1-0.1-0.2-0.2c-0.1-0.1-0.1-0.2-0.3-0.4c-0.1-0.1-0.3-0.1-0.4,0c0,0,0,0,0,0c0,0.1,0.2-0.1,0.5,0.2
				c0.1,0.1,0,0.1-0.1,0.2l-0.2,0.2c-0.1,0.1-0.1,0.1-0.2,0l-0.1-0.1c-0.1-0.2,0.1-0.2,0.1-0.3c0,0-0.1,0-0.1,0l-0.3,0.2
				c0,0,0,0,0,0.1c0,0,0.2-0.1,0.3,0l0.1,0.1c0,0.1,0,0.1,0,0.1L27.6,36.8z"/>
			<path class="st2" d="M28,35.5c0.1,0,0.2,0.1,0.2,0.1c0,0,0,0,0-0.1c0,0-0.1-0.1-0.1-0.1c0,0-0.1-0.1-0.1-0.2c0,0,0,0,0,0
				c-0.1,0,0.1,0.1,0,0.2c0,0-0.1,0-0.2,0l-0.3,0c-0.1,0-0.1,0-0.1,0c0,0,0,0,0-0.1l0.1-0.3c0,0,0-0.1,0.1-0.1c0.1,0,0.1,0.1,0.2,0
				c0,0,0,0,0-0.1c0,0-0.1-0.1-0.1-0.2c-0.1-0.1-0.1-0.1-0.1-0.1c0-0.1-0.1-0.1-0.1-0.1c0,0,0,0.1,0,0.3l-0.2,0.5
				c0,0.1,0,0.1-0.1,0.1c0,0-0.1,0-0.1,0l-0.4,0c-0.2,0-0.3-0.1-0.3-0.1c0,0,0,0,0,0.1c0.1,0.1,0.1,0.1,0.1,0.2c0,0,0.1,0.1,0.1,0.2
				c0,0,0,0,0,0c0,0-0.1-0.1,0-0.2c0,0,0.1,0,0.2,0l0.3,0c0,0,0.1,0,0.1,0c0,0,0,0,0,0l-0.2,0.3c0,0,0,0.1,0,0.1c-0.1,0-0.1,0-0.2,0
				c0,0,0,0,0,0c0,0,0.1,0.1,0.1,0.2c0.1,0.1,0.1,0.2,0.1,0.2c0,0,0,0,0,0c0.1,0-0.1-0.1,0.1-0.4l0.2-0.4c0,0,0-0.1,0.1-0.1
				c0,0,0.1,0,0.1,0L28,35.5z"/>
			<path class="st2" d="M33.6,16.4c0.2,0,0.4,0.2,0.4,0.4c0,0.2-0.2,0.4-0.4,0.4c-0.2,0-0.4-0.2-0.4-0.4
				C33.2,16.6,33.4,16.4,33.6,16.4z"/>
			<path class="st2" d="M29.8,17.3c0.2,0,0.4,0.2,0.4,0.4c0,0.2-0.2,0.4-0.4,0.4c-0.2,0-0.4-0.2-0.4-0.4
				C29.4,17.4,29.6,17.3,29.8,17.3z"/>
			<path class="st1" d="M42.3,18.9c-0.1,0.2-0.2,0.3-0.6,0.2c-0.3-0.1-0.3-0.5-0.3-0.7l-0.6-0.2c-0.2,0.5-0.5,0.5-0.7,0.5
				c-0.4-0.1-0.4-0.7-0.4-1.1l-0.6-0.1c-0.3,0.8-0.4,0.9-0.8,1c-0.2,0-0.3-0.1-0.4-0.2c-0.1-0.1-0.2-0.3-0.2-0.5c0-0.1,0-0.2,0-0.3
				l-0.6-0.1c0,0.1,0,0.2,0,0.3c-0.1,0.2-0.2,0.4-0.3,0.5c-0.1,0.1-0.2,0.1-0.3,0.1c-0.3-0.1-0.7-0.3-0.7-1.4h-0.6c0,0,0,0.1,0,0.1
				h0c0,0.8-0.2,1.2-0.7,1.3c-0.1,0-0.2,0-0.3-0.1c-0.1-0.1-0.3-0.3-0.3-0.5c0-0.1,0-0.2,0-0.3l-0.6,0c0,0.1,0,0.2,0,0.2
				c0,0.2-0.1,0.4-0.2,0.6c-0.1,0.1-0.2,0.2-0.4,0.1c-0.4-0.1-0.5-0.2-0.8-1l-0.6,0.1c0,0.4,0,1.1-0.4,1.2c-0.2,0-0.5,0-0.7-0.6
				l-0.6,0.2c0,0.4-0.1,0.7-0.3,0.8c-0.4,0.1-0.4,0.1-0.6-0.2l-0.1-0.1l-0.5,0.3l0,0.1c0.3,0.5,0.5,0.7,1.2,0.5
				c0.3-0.1,0.5-0.3,0.7-0.6c0.3,0.2,0.6,0.3,0.9,0.3c0.3,0,0.6-0.2,0.8-0.7c0.2,0.2,0.4,0.4,0.8,0.4c0.3,0.1,0.6,0,0.9-0.3
				c0.1-0.1,0.1-0.1,0.2-0.2c0.1,0.1,0.1,0.1,0.2,0.2c0.3,0.2,0.6,0.3,0.9,0.2c0.4-0.1,0.6-0.3,0.8-0.6c0.2,0.3,0.4,0.5,0.8,0.6
				c0.3,0.1,0.6,0,0.8-0.2c0.1-0.1,0.1-0.1,0.2-0.2c0,0,0.1,0.1,0.1,0.1c0.3,0.3,0.6,0.4,1,0.4c0.3-0.1,0.6-0.2,0.8-0.4
				c0.2,0.5,0.5,0.6,0.8,0.7c0.3,0,0.6,0,0.9-0.2c0.1,0.3,0.4,0.5,0.7,0.6c0.3,0.1,1,0.2,1.3-0.6L42.3,18.9z"/>
			<path class="st2" d="M37.5,16.4c0.2,0,0.4,0.2,0.4,0.4c0,0.2-0.2,0.4-0.4,0.4c-0.2,0-0.4-0.2-0.4-0.4
				C37.1,16.6,37.3,16.4,37.5,16.4z"/>
			<path class="st2" d="M41.3,17.2c0.2,0,0.4,0.2,0.4,0.4c0,0.2-0.2,0.4-0.4,0.4c-0.2,0-0.4-0.2-0.4-0.4
				C40.9,17.4,41.1,17.2,41.3,17.2z"/>
			<polygon class="st2" points="29.8,20.9 30.3,20.5 30.8,20.7 30.4,21.1 			"/>
			<path class="st1" d="M28.8,20.6c2.5-0.8,4.1-1,6.8-1c2.7,0,4.2,0.2,6.8,1c0,0,0.2,0.1,0.3-0.2c0.1-0.3-0.1-0.3-0.1-0.3
				c-2.6-0.8-4.2-1.1-7-1.1c-2.7,0-4.4,0.2-6.9,1.1c0,0-0.2,0.1-0.1,0.3C28.6,20.7,28.8,20.6,28.8,20.6z"/>
			<path class="st1" d="M29.4,22.3c0.2,0,0.5-0.1,0.7-0.2c1.3-0.3,2.8-0.7,5.5-0.7c2.2,0,3.7,0.3,5.6,0.7l0.7,0.1c0,0,0.2,0,0.3-0.2
				c0.1-0.3-0.2-0.3-0.2-0.3l-0.7-0.1c-1.9-0.4-3.4-0.7-5.7-0.7c-2.7,0-4.3,0.4-5.6,0.7c-0.2,0.1-0.5,0.1-0.7,0.2
				c0,0-0.2,0.1-0.2,0.3C29.2,22.3,29.4,22.3,29.4,22.3z"/>
			<polygon class="st2" points="33.3,20.3 33.8,19.9 34.3,20.2 33.8,20.6 			"/>
			<path class="st2" d="M42.4,21.3c0.1-0.3-0.1-0.6-0.1-0.6c-0.2-0.1-0.6,0-0.7,0.2c-0.1,0.3,0,0.5,0.3,0.7
				C42,21.6,42.2,21.6,42.4,21.3z"/>
			<polygon class="st2" points="41.4,20.9 40.9,20.5 40.4,20.7 40.8,21.1 			"/>
			<polygon class="st2" points="37.9,20.3 37.4,19.9 36.8,20.2 37.4,20.6 			"/>
			<path class="st2" d="M40,20.6c0-0.3-0.3-0.5-0.7-0.6c-0.4-0.1-0.8,0-0.9,0.3c0,0.3,0.3,0.5,0.7,0.6C39.5,21,39.9,20.9,40,20.6z"
				/>
			<path class="st2" d="M45.5,22.1c0.1-0.1,0.1,0,0.2,0c0.1,0.2-0.1,0.4-0.2,0.5c-0.1,0-0.3,0.1-0.4-0.1c0,0,0-0.1,0-0.1
				c0,0,0,0,0,0c0,0,0,0,0,0.2c0.1,0.2,0.3,0.3,0.6,0.1c0.3-0.2,0.3-0.4,0.1-0.6c-0.1-0.1-0.1-0.2-0.2-0.2c-0.1-0.1-0.1-0.2-0.1-0.2
				c0,0-0.1,0-0.1,0c-0.1,0,0.1,0.2-0.1,0.3l-0.8,0.5c-0.2,0.1-0.3,0-0.3,0c0,0,0,0,0,0.1c0,0,0.1,0.1,0.1,0.2c0,0,0.1,0.1,0.1,0.2
				c0,0,0,0,0.1,0c0.1,0-0.1-0.2,0.1-0.3L45.5,22.1z"/>
			<path class="st2" d="M47.3,26.7C47.3,26.7,47.4,26.7,47.3,26.7c0.1-0.1,0-0.1,0-0.1c0,0,0.1-0.2,0.1-0.5
				c-0.1-0.5-0.6-0.6-0.9-0.5c-0.2,0-0.7,0.2-0.6,0.7c0,0.2,0.2,0.4,0.3,0.6c0,0,0,0,0.1,0c0,0,0.1,0,0.2,0c0.3,0,0.2,0.1,0.3,0.1
				c0,0,0,0,0,0c0-0.1,0-0.1,0-0.2c0-0.1,0-0.2,0-0.3c0,0,0-0.1-0.1-0.1c-0.1,0,0.1,0.2-0.2,0.3c-0.1,0-0.3,0-0.4-0.3
				c0-0.3,0.3-0.5,0.6-0.5c0.6-0.1,0.7,0.1,0.7,0.3c0.1,0.5-0.4,0.6-0.4,0.6c0,0,0,0,0,0L47.3,26.7z"/>
			<path class="st2" d="M47.1,28.8c0.2,0,0.2,0,0.1,0.2c0,0.4-0.3,0.2-0.3,0.3c0,0,0.1,0,0.1,0l0.2,0c0,0,0,0,0,0c0-0.2,0-0.3,0-0.4
				c0-0.3,0.1-0.4,0.1-0.5c0,0,0,0,0,0c-0.1,0,0,0.2-0.2,0.2l-1-0.1c-0.3,0-0.1-0.2-0.2-0.2c0,0,0,0,0,0c0,0.1,0,0.2,0,0.2
				c0,0.1,0,0.2-0.1,0.5c0,0.2,0.2,0.3,0.3,0.3c0,0,0,0,0.1,0c0-0.1-0.3-0.1-0.2-0.5c0-0.1,0.1-0.1,0.2-0.1l0.3,0
				c0.1,0,0.2,0,0.1,0.1l0,0.1c0,0.2-0.2,0.1-0.3,0.2c0,0,0.1,0,0.1,0l0.4,0c0.1,0,0.1,0,0.1,0c0,0-0.2-0.1-0.2-0.2l0-0.1
				c0-0.1,0-0.1,0.1-0.1L47.1,28.8z"/>
			<path class="st2" d="M45.9,29.5C45.8,29.5,45.8,29.5,45.9,29.5c-0.1,0.1-0.2,0.2-0.2,0.3c0,0.2,0.1,0.4,0.4,0.5
				c0.3,0.1,0.4,0,0.5-0.2c0.2-0.2,0.2-0.3,0.4-0.3c0.1,0,0.2,0.1,0.2,0.2c-0.1,0.3-0.5,0.3-0.5,0.3c0,0,0,0.1,0.1,0.1l0.3,0
				c0.1,0,0.1,0,0.1,0c0,0,0-0.1,0-0.1c0-0.1,0.1-0.1,0.1-0.3c0-0.2-0.1-0.4-0.4-0.4c-0.2,0-0.3,0-0.4,0.2c-0.2,0.3-0.3,0.4-0.4,0.3
				c-0.2,0-0.3-0.2-0.2-0.3c0-0.2,0.3-0.3,0.5-0.3c0,0,0,0,0.1,0c0,0-0.1,0-0.1,0L45.9,29.5z"/>
			<path class="st2" d="M45.7,30.4C45.6,30.4,45.6,30.4,45.7,30.4c-0.2,0.1-0.2,0.2-0.3,0.3c-0.1,0.2,0.1,0.5,0.3,0.5
				c0.3,0.1,0.4,0,0.6-0.2c0.2-0.2,0.3-0.3,0.4-0.2c0.1,0,0.2,0.2,0.2,0.3c-0.1,0.3-0.5,0.2-0.5,0.2c0,0,0,0.1,0.1,0.1l0.3,0.1
				c0,0,0.1,0,0.1,0c0,0,0-0.1,0-0.1c0-0.1,0.1-0.1,0.2-0.2c0.1-0.2-0.1-0.4-0.3-0.5c-0.2-0.1-0.3,0-0.5,0.1
				c-0.2,0.2-0.3,0.3-0.5,0.3c-0.2-0.1-0.2-0.2-0.2-0.3c0.1-0.2,0.3-0.2,0.5-0.2c0,0,0,0,0.1,0c0,0-0.1,0-0.1-0.1L45.7,30.4z"/>
			<path class="st2" d="M46.4,32c0.2,0.1,0.1,0.2,0.1,0.2c0,0,0,0,0.1-0.1c0-0.1,0.1-0.2,0.1-0.2c0-0.1,0.1-0.1,0.1-0.2
				c0,0,0-0.1,0-0.1c-0.1,0-0.1,0.2-0.3,0.1l-1-0.4c-0.2-0.1-0.1-0.2-0.2-0.2c0,0,0,0,0,0c0,0,0,0.1-0.1,0.2c0,0.1-0.1,0.2-0.1,0.3
				c0,0,0,0.1,0,0.1c0.1,0,0-0.2,0.3-0.1L46.4,32z"/>
			<path class="st2" d="M45.7,32c-0.4-0.2-0.8,0-0.9,0.3c-0.2,0.6,0.3,0.8,0.6,1c0.4,0.2,0.8,0,0.9-0.3C46.5,32.5,46.2,32.1,45.7,32
				z M46.2,32.8c-0.1,0.2-0.4,0.4-0.9,0.2c-0.3-0.1-0.6-0.3-0.5-0.6c0.1-0.3,0.6-0.3,0.9-0.2C46.1,32.3,46.3,32.5,46.2,32.8z"/>
			<path class="st1" d="M29.6,36.8c-0.1-0.2-0.1-0.3-0.2-0.5c-0.2-0.4-0.3-0.5-0.7-0.9c0,0,0-0.1-0.1-0.1l0.4-0.4l0,0l0.1-0.1l0,0
				l0,0l0,0L29,34.5c-0.2-0.3-0.4-0.6-0.6-1c-0.3-0.7-0.4-1-0.6-1.7l0,0l0,0l-0.2,0.1L27,32c-0.9-2.3-1.1-4.3-0.7-6.2l1.3,0.5
				l0.1,0.1l0-0.2l0.6-2.3l0.1-0.1l0,0l0,0l0,0l-0.1-0.1l-0.6-0.3l0.2-1.1l0.1-0.1l-0.1-0.1l-2.5-1.6l-0.1,0.1l-0.1-0.1
				C23.8,22.7,23,25,23,27.4c-0.1,2.5,0.6,4.9,2,7l0.1,0.1l0.1-0.1l0.8-0.5c0.1,0.1,0.2,0.3,0.2,0.5c0,0.1,0.1,0.1,0.1,0.2l-0.7,0.5
				l0.1,0.1l-0.1,0.1l0.1,0.1c0.5,0.8,1.6,2.8,2.8,2.4c0.3-0.1,0.6-0.3,0.8-0.5c0.1-0.1,0.3-0.2,0.4-0.3l0.1-0.1c0,0,0-0.1,0-0.1
				L29.6,36.8z M28.5,35.1c-0.2-0.2-0.3-0.5-0.5-0.7l0.7,0.5L28.5,35.1z M27.4,32.2l-0.1,0.5c-0.1-0.1-0.1-0.3-0.2-0.4L27.4,32.2z
				 M27.5,26.1l-1.2-0.5c0-0.1,0-0.2,0.1-0.2l0.7,0.1l0.1,0l0-0.1l0.6-0.8L27.5,26.1z M26.5,25c0.2-0.7,0.6-1.4,1-2L27,25.1L26.5,25
				z M27.9,24l-0.5,0.7l0.2-0.8L27.9,24z M25.1,34.1c-1.3-2-1.9-4.3-1.9-6.7c0.1-2.3,0.8-4.6,2.1-6.4l2.2,1.4
				c-2.2,2.8-2.4,6.2-0.5,10.5L25.1,34.1z M26.2,33.8l1.2-0.7l0.1-0.1l0,0l0,0l0.2-0.7c0.1,0.4,0.3,0.8,0.5,1.3
				c0.1,0.3,0.3,0.5,0.4,0.8l-0.8-0.6l0,0l0,0l-0.1,0.1l-1,0.7c0-0.1-0.1-0.1-0.1-0.2C26.3,34.2,26.2,33.9,26.2,33.8z M29,37.2
				c-0.2,0.2-0.4,0.3-0.7,0.4c-0.9,0.3-2-1.6-2.5-2.3l0,0l1.7-1.1c0.3,0.5,0.6,1,0.9,1.4c0.4,0.4,0.4,0.5,0.6,0.9
				c0.1,0.2,0.1,0.3,0.2,0.4v0C29.2,37,29.1,37.1,29,37.2z M48.2,27.4c-0.1-2.4-0.8-4.8-2.2-6.7l-0.1,0.1l-0.1-0.1l-2.5,1.6
				l-0.1,0.1l0.1,0.1l0.2,1.1l-0.6,0.3l-0.1,0.1l0,0v0l0,0l0.1,0.1l0.6,2.3l0,0.2l0.1-0.1l1.3-0.5c0.4,1.8,0.1,3.9-0.7,6.2l-0.6-0.1
				l-0.2-0.1l0,0l0,0c-0.2,0.7-0.3,1-0.6,1.7c-0.2,0.4-0.4,0.7-0.6,1L42,34.8l0,0l0,0l0.1,0.1l0.3,0.4c0,0,0,0-0.1,0.1
				c-0.3,0.4-0.4,0.4-0.6,0.6l-0.2,0.2c-0.2,0.2-0.4,0.4-0.4,0.6c0,0.1,0.1,0.2,0.2,0.3c0.3,0.1,0.4,0.1,0.4,0.2c0,0,0.1,0,0.1,0
				l0,0c0,0,0,0,0,0l0.3,0c0.5,0.1,0.5,0.1,1.1-0.1c1.1-0.3,1.7-1.7,1.7-1.8l-0.1,0l0.1-0.1L44.6,35c0.1-0.1,0.3-0.4,0.4-0.5
				c0.1-0.2,0.2-0.4,0.2-0.5l0.8,0.5l0.1,0.1l0.1-0.1C47.6,32.4,48.3,30,48.2,27.4z M43.6,23.9l0.2,0.8L43.2,24L43.6,23.9z M43.7,23
				c0.4,0.6,0.8,1.3,1,2l-0.6,0.1L43.7,23z M43.7,26.1l-0.4-1.5l0.6,0.8l0,0.1l0.1,0l0.7-0.1c0,0.1,0,0.2,0.1,0.2L43.7,26.1z
				 M44.1,32.2c-0.1,0.1-0.1,0.3-0.2,0.4l-0.1-0.5L44.1,32.2z M42.4,34.9l0.5-0.3c-0.1,0.2-0.2,0.4-0.3,0.5L42.4,34.9z M44.9,35.5
				c-0.2,0.3-0.7,1.3-1.5,1.5c-0.5,0.2-0.6,0.2-1,0.1l-0.3,0c-0.1,0-0.1,0-0.1,0c-0.1,0-0.1,0-0.4-0.1c0,0,0,0,0,0
				c0-0.1,0.1-0.3,0.3-0.4l0,0c0,0,0,0,0,0l0.2-0.2c0.2-0.2,0.3-0.3,0.6-0.7c0.3-0.3,0.5-0.6,0.7-1L44.9,35.5z M44.7,34.3
				c-0.1,0.2-0.3,0.4-0.4,0.5l-1-0.6l-0.1-0.1l0,0l0,0l0,0l0,0l-0.7,0.4c0.2-0.3,0.4-0.5,0.5-0.9c0.2-0.5,0.4-0.8,0.5-1.3l0.2,0.7
				l0,0l0,0l0.1,0.1l1.2,0.7C44.9,33.9,44.8,34.2,44.7,34.3z M46,34.1l-2-1.2c1.9-4.2,1.7-7.7-0.5-10.5l2.2-1.4
				c1.3,1.8,2,4.1,2.1,6.4C48,29.9,47.3,32.2,46,34.1z"/>
			<path class="st2" d="M36.4,20.2c0-0.3-0.4-0.5-0.8-0.5c-0.5,0-0.8,0.2-0.8,0.5c0,0.3,0.3,0.5,0.8,0.5
				C36,20.7,36.4,20.5,36.4,20.2z"/>
			<path class="st2" d="M31.2,20.6c0-0.3,0.3-0.5,0.7-0.6c0.4-0.1,0.8,0,0.9,0.3c0,0.3-0.3,0.5-0.7,0.6C31.6,21,31.2,20.9,31.2,20.6
				z"/>
			<path class="st2" d="M25.9,32.1c0.2-0.1,0.2,0.1,0.3,0.1c0,0,0,0,0-0.1c0-0.1-0.1-0.1-0.1-0.2c-0.1-0.1-0.1-0.2-0.1-0.2
				c0,0,0-0.1-0.1-0.1c-0.1,0,0.1,0.2-0.1,0.3L25,32.3c-0.1,0-0.1,0-0.1,0l-0.1-0.1c-0.1-0.2,0.1-0.2,0.1-0.3c0,0-0.1,0-0.1,0
				L24.6,32c0,0,0,0,0,0c0.1,0.2,0.1,0.3,0.3,0.5c0.1,0.2,0.2,0.4,0.2,0.5c0,0,0,0,0.1,0l0.3-0.1c0,0,0.1,0,0.1-0.1
				c0-0.1-0.3,0.1-0.4-0.1L25,32.7c0-0.1,0-0.1,0.1-0.1L25.9,32.1z"/>
			<path class="st2" d="M24.5,31.1c-0.1,0-0.1,0-0.2-0.2c-0.1-0.3,0.2-0.3,0.2-0.4c0,0-0.1,0-0.1,0l-0.2,0.1c0,0,0,0,0,0
				c0,0.2,0.1,0.3,0.1,0.4c0.1,0.3,0.1,0.4,0.1,0.5c0,0,0,0,0,0c0.1,0,0-0.2,0.1-0.3l0.9-0.3c0.2-0.1,0.2,0.1,0.3,0.1c0,0,0,0,0,0
				c0-0.1-0.1-0.2-0.1-0.2c0-0.1,0-0.2-0.1-0.5c0-0.1-0.2-0.2-0.4-0.2c0,0,0,0,0,0c0,0.1,0.3,0,0.4,0.4c0,0.1,0,0.1-0.2,0.2
				l-0.3,0.1c-0.1,0-0.1,0-0.2,0l0-0.1c-0.1-0.2,0.2-0.2,0.2-0.3c0,0-0.1,0-0.1,0l-0.4,0.1c-0.1,0,0,0,0,0c0,0,0.2,0,0.2,0.1l0,0.1
				c0,0.1,0,0.1-0.1,0.1L24.5,31.1z"/>
			<path class="st2" d="M24.4,30.1c0.2,0,0.4-0.2,0.4-0.4c0-0.2-0.2-0.3-0.3-0.3c0,0,0,0,0,0c0,0,0.1,0.1,0.1,0.2
				c0,0.2-0.2,0.3-0.4,0.3c-0.1,0-0.3,0-0.3-0.1c0-0.1,0-0.1,0.1-0.2c0,0,0,0,0,0c0,0-0.1-0.1-0.1-0.1c-0.1,0-0.1,0.2-0.1,0.3
				C23.9,30,24.2,30.2,24.4,30.1z"/>
			<path class="st2" d="M24,27.7c-0.2,0-0.1-0.1-0.2-0.1c0,0,0,0,0,0c0,0.1,0,0.2,0,0.2c0,0.1,0,0.2,0,0.2c0,0,0,0,0,0
				c0.1,0,0-0.2,0.2-0.2h0.3c0,0,0.1,0,0.1,0.1v0.6c0,0,0,0-0.1,0H24c-0.2,0-0.1-0.1-0.2-0.1c0,0,0,0,0,0c0,0.1,0,0.1,0,0.2
				c0,0.1,0,0.2,0,0.2c0,0,0,0.1,0,0.1c0.1,0,0-0.2,0.2-0.2h0.9c0.3,0,0.2,0.2,0.3,0.2c0,0,0,0,0,0c0-0.1,0-0.2,0-0.3
				c0-0.1,0-0.2,0-0.3c0-0.1,0-0.1,0-0.1c-0.1,0,0,0.2-0.3,0.2h-0.3c-0.1,0-0.1,0-0.1-0.1V28c0-0.1,0-0.1,0.1-0.1H25
				c0.2,0,0.1,0.1,0.2,0.1c0,0,0,0,0,0c0-0.1,0-0.2,0-0.2c0-0.1,0-0.2,0-0.2c0,0,0,0,0,0c-0.1,0,0,0.2-0.3,0.2H24z"/>
			<path class="st2" d="M25,27.2c0.2,0,0.2,0.2,0.2,0.2c0,0,0,0,0-0.1c0-0.1,0-0.1,0-0.2c0-0.1,0-0.1,0-0.2c0,0,0-0.1,0-0.1
				c-0.1,0,0,0.2-0.4,0.2L24.2,27c0,0,0,0,0,0c0,0,0,0,0,0l1.2-0.8c0,0,0,0,0,0c0,0,0,0-0.1,0L24.2,26c-0.2,0-0.2-0.2-0.2-0.2
				c0,0,0,0,0,0c0,0,0,0.1,0,0.2c0,0.1,0,0.2,0,0.2c0,0,0,0,0,0c0.1,0,0.1-0.2,0.2-0.2l0.7,0.1c0.1,0,0.1,0,0.1,0c0,0,0,0-0.1,0.1
				l-1,0.7c0,0-0.1,0-0.1,0.1c0,0.1,0,0.1,0,0.2c0,0,0,0.1,0,0.1c0,0,0,0,0,0c0.1,0,0-0.2,0.4-0.2L25,27.2z"/>
			<path class="st2" d="M24.3,25c-0.2,0-0.1-0.2-0.2-0.2c0,0,0,0,0,0.1c0,0.1,0,0.2,0,0.2c0,0.1,0,0.1-0.1,0.2c0,0,0,0.1,0,0.1
				c0.1,0,0.1-0.2,0.2-0.2l1,0.2c0.2,0,0.1,0.2,0.2,0.2c0,0,0,0,0,0c0,0,0-0.1,0-0.2c0-0.1,0.1-0.2,0.1-0.3c0,0,0-0.1,0-0.1
				c-0.1,0,0,0.2-0.3,0.2L24.3,25z"/>
			<path class="st2" d="M24.7,23.3C24.7,23.3,24.7,23.3,24.7,23.3c0,0,0,0.1,0,0.1c0,0.1-0.2,0.1-0.3,0.4c-0.2,0.4,0.2,0.8,0.5,0.9
				c0.2,0.1,0.7,0.2,0.9-0.3c0.1-0.4-0.1-0.7-0.2-0.7c0,0,0,0,0,0c0,0,0.2,0.3,0.1,0.5c-0.1,0.3-0.6,0.3-0.8,0.2
				c-0.3-0.1-0.5-0.3-0.4-0.6c0.1-0.2,0.3-0.3,0.5-0.3c0,0,0.1,0,0.1,0c0,0,0,0-0.1,0L24.7,23.3z"/>
			<path class="st2" d="M29.3,41.6c0-0.1,0-0.2,0-0.2c0,0-0.1,0-0.2,0.1l-2.3,1.9c-0.2,0.2-0.4,0.1-0.4,0.1c0,0.1,0,0.1,0.1,0.1
				c0.1,0.1,0.2,0.1,0.3,0.2c0.1,0.1,0.2,0.1,0.3,0.2c0.1,0,0.2,0.1,0.2,0c0.1-0.1-0.4-0.3-0.2-0.5c0-0.1,0.2-0.2,0.2-0.3
				c0.2-0.2,0.3-0.2,0.4-0.2l0.7,0.4c0.1,0.1,0.1,0.1,0.1,0.5c0,0.1,0,0.2-0.1,0.3c-0.1,0.2-0.4,0.1-0.4,0.2c0,0.1,0,0.1,0.1,0.1
				c0.1,0.1,0.3,0.1,0.4,0.2c0.2,0.1,0.3,0.2,0.5,0.3c0.1,0.1,0.1,0.1,0.2,0c0.1-0.1-0.2-0.1-0.2-0.4L29.3,41.6z M28.7,43.1
				c0,0.1,0,0.1,0,0.2c0,0-0.1,0-0.1,0L28.1,43c-0.1,0-0.1-0.1-0.1-0.1c0-0.1,0.1-0.1,0.1-0.1l0.6-0.6c0,0,0.1,0,0.1,0c0,0,0,0,0,0
				L28.7,43.1z"/>
			<path class="st2" d="M47.2,41.6c-0.1-0.1-0.2,0.2-0.5,0l-2.6-1.4c-0.1-0.1-0.1-0.1-0.2-0.1c0,0,0,0.1,0,0.2l0.8,2.8
				c0.1,0.3-0.1,0.4-0.1,0.5c0,0,0.1,0,0.1,0c0.1-0.1,0.2-0.2,0.3-0.2c0.1-0.1,0.2-0.1,0.3-0.2c0.1-0.1,0.2-0.1,0.1-0.2
				c-0.1-0.1-0.4,0.2-0.6,0c-0.1-0.1-0.1-0.2-0.1-0.3c-0.1-0.3,0-0.4,0-0.4l0.7-0.5c0.1-0.1,0.1,0,0.5,0.1c0.1,0.1,0.2,0.1,0.2,0.2
				c0.2,0.2-0.1,0.4,0,0.5c0,0,0.1,0,0.1,0c0.1-0.1,0.2-0.2,0.4-0.3c0.2-0.2,0.3-0.2,0.4-0.3C47.2,41.7,47.3,41.7,47.2,41.6z
				 M45.3,41.5l-0.5,0.4c-0.1,0-0.1,0.1-0.1,0.1c0,0,0-0.1-0.1-0.2L44.4,41c0-0.1,0-0.1,0-0.1c0,0,0,0,0,0l0.8,0.4
				c0.1,0,0.1,0.1,0.1,0.1C45.4,41.5,45.4,41.5,45.3,41.5z"/>
			<path class="st2" d="M32.8,16.7l-0.1-0.4c0-0.2-0.2-0.3-0.4-0.2L32,16.2l-0.1-0.4c0-0.2-0.2-0.3-0.4-0.2l-0.4,0.1
				c-0.2,0-0.3,0.2-0.2,0.4l0.1,0.4l-0.4,0.1c-0.2,0-0.3,0.2-0.2,0.4l0.1,0.4c0,0.2,0.2,0.3,0.4,0.2l1.7-0.4
				C32.7,17.1,32.8,16.9,32.8,16.7z M31.7,17.3c-0.2,0.1-0.5-0.1-0.5-0.3c-0.1-0.2,0.1-0.5,0.3-0.5c0.2-0.1,0.5,0.1,0.5,0.3
				C32.1,17,31.9,17.2,31.7,17.3z"/>
			<path class="st2" d="M36.5,15.6h-0.4l0-0.4c0-0.2-0.1-0.3-0.3-0.3h-0.4c-0.2,0-0.3,0.1-0.3,0.3v0.4l-0.4,0
				c-0.2,0-0.3,0.1-0.3,0.3v0.4c0,0.2,0.1,0.3,0.3,0.3h1.8c0.2,0,0.3-0.1,0.3-0.3V16C36.8,15.8,36.6,15.6,36.5,15.6z M35.6,16.7
				c-0.2,0-0.5-0.2-0.5-0.5c0-0.2,0.2-0.5,0.5-0.5S36,16,36,16.2C36,16.5,35.8,16.7,35.6,16.7z"/>
			<path class="st2" d="M40.6,16.4l-0.4-0.1l0.1-0.4c0-0.2-0.1-0.3-0.2-0.4l-0.4-0.1c-0.2,0-0.3,0.1-0.4,0.2l-0.1,0.4l-0.4-0.1
				c-0.2,0-0.3,0.1-0.4,0.2l-0.1,0.4c0,0.2,0.1,0.3,0.2,0.4l1.7,0.4c0.2,0,0.3-0.1,0.4-0.2l0.1-0.4C40.8,16.6,40.7,16.5,40.6,16.4z
				 M40,16.9c-0.1,0.2-0.3,0.4-0.5,0.3c-0.2-0.1-0.4-0.3-0.3-0.5c0.1-0.2,0.3-0.4,0.5-0.3C39.9,16.4,40.1,16.7,40,16.9z"/>
			<path class="st2" d="M43.6,17.2c-0.1-0.1-0.3,0-0.4,0.1l-0.2,0.3l-0.3-0.2c-0.1-0.1-0.3,0-0.4,0.1L42,17.9
				c-0.1,0.1,0,0.3,0.1,0.4l0.7,0.4c0.1,0.1,0.3,0,0.4-0.1l0.2-0.4c0.1-0.1,0.2-0.3,0.2-0.3l0.4-0.6L43.6,17.2z M42.8,18.7
				c-0.2-0.1-0.3-0.4-0.2-0.6c0.1-0.2,0.4-0.3,0.6-0.2L42.8,18.7z"/>
			<path class="st2" d="M29.2,17.9L29,17.6c-0.1-0.1-0.3-0.2-0.4-0.1l-0.3,0.2L28,17.3c-0.1-0.1-0.3-0.2-0.4-0.1l-0.4,0.2l0.4,0.6
				c0,0,0.1,0.1,0.2,0.3l0.2,0.4c0.1,0.1,0.3,0.2,0.4,0.1l0.7-0.4C29.2,18.3,29.3,18.1,29.2,17.9z M28.3,18.7L27.9,18
				c0.2-0.1,0.5-0.1,0.6,0.2C28.6,18.3,28.5,18.6,28.3,18.7z"/>
			<path class="st2" d="M25.3,17C25.3,17,25.3,17,25.3,17c-0.1,0-0.1,0.1-0.1,0.1c0,0-0.1,0.1-0.1,0.1c-0.6-0.2-1.3-0.4-1.3-0.4
				c0,0,0-0.1,0-0.3c0-0.1-0.1-0.3-0.3-0.5c-0.2-0.1-0.7-0.5-1.2,0.1c-0.2,0.2-0.3,0.4-0.5,0.6c-0.1,0.2-0.2,0.2-0.3,0.3
				c0,0,0,0.1,0,0.1c0.1,0.1,0.3-0.3,0.6,0l1.5,1.3c0.4,0.4,0.1,0.5,0.2,0.6c0.1,0.1,0.1,0,0.1,0c0.1-0.1,0.2-0.3,0.3-0.4
				c0.1-0.1,0.2-0.2,0.2-0.2c0.1-0.1,0.1-0.1,0-0.1c-0.1-0.1-0.2,0.3-0.6,0l-0.6-0.5c-0.1-0.1-0.2-0.1,0-0.2
				c0.1-0.1,0.2-0.2,0.4-0.1l0.7,0.2c0.3,0.1,0.6,0.2,0.7,0C25.4,17.3,25.4,17.1,25.3,17z M23.3,17.1c-0.1,0.1-0.2,0.2-0.2,0.1
				l-0.7-0.6c-0.2-0.2-0.1-0.3,0-0.4c0.2-0.3,0.6-0.2,0.9,0.1C23.5,16.5,23.7,16.7,23.3,17.1z"/>
			<path class="st2" d="M32.5,13.4c0-0.1-0.2,0.1-0.4-0.2l-1.8-2.3c-0.1-0.1-0.1-0.1-0.1-0.1c0,0,0,0.1,0,0.2l-0.1,2.9
				c0,0.3-0.2,0.3-0.2,0.4c0,0.1,0.1,0,0.1,0c0.1,0,0.2-0.1,0.3-0.1c0.1,0,0.2-0.1,0.3-0.1c0.1,0,0.2,0,0.2-0.1
				c0-0.1-0.4,0.1-0.5-0.2c0-0.1,0-0.3,0-0.4c0-0.3,0.1-0.3,0.1-0.4l0.7-0.2c0.1,0,0.1,0,0.3,0.3c0.1,0.1,0.1,0.2,0.2,0.3
				c0.1,0.3-0.2,0.3-0.1,0.4c0,0.1,0.1,0,0.1,0c0.1,0,0.2-0.1,0.4-0.1c0.2-0.1,0.3-0.1,0.4-0.1C32.5,13.5,32.5,13.5,32.5,13.4z
				 M30.9,12.6l-0.5,0.2c-0.1,0-0.1,0-0.1,0c0-0.1,0-0.1,0-0.2l0-0.8c0-0.1,0-0.1,0-0.1c0,0,0,0,0,0l0.5,0.7
				C30.9,12.4,31,12.5,30.9,12.6C31,12.6,30.9,12.6,30.9,12.6z"/>
			<path class="st2" d="M53.5,27.1c0,0-0.1-0.1-0.2-0.1l-2.8-0.7c-0.3-0.1-0.3-0.2-0.4-0.2c-0.1,0,0,0.1,0,0.1c0,0.1,0,0.2,0,0.3
				c0,0.1,0,0.2,0,0.3c0,0.1,0,0.2,0.1,0.2c0.1,0,0-0.4,0.3-0.4c0.1,0,0.3,0,0.4,0c0.3,0.1,0.3,0.1,0.3,0.2l0.1,0.7
				c0,0.1,0,0.1-0.4,0.3c-0.1,0.1-0.2,0.1-0.3,0.1c-0.3,0-0.2-0.2-0.4-0.2c-0.1,0,0,0.1,0,0.1c0,0.1,0,0.2,0.1,0.4
				c0,0.2,0,0.3,0,0.5c0,0.1,0,0.1,0.1,0.1c0.1,0,0-0.2,0.3-0.3l2.6-1.2C53.5,27.1,53.5,27.1,53.5,27.1z M52.6,27.1l-0.8,0.4
				c-0.1,0-0.1,0-0.2,0.1c0,0,0,0-0.1-0.1l0-0.5c0-0.1,0-0.1,0-0.1c0.1,0,0.1,0,0.2,0L52.6,27.1C52.6,27,52.6,27,52.6,27.1
				C52.6,27.1,52.6,27,52.6,27.1z"/>
			<path class="st2" d="M47,24.6c-0.1-0.4-0.6-0.5-1-0.4c-0.4,0.1-0.6,0.5-0.5,0.8c0.2,0.6,0.7,0.5,1,0.4C47,25.3,47.2,24.9,47,24.6
				z M46.4,25.3c-0.3,0.1-0.7,0.1-0.8-0.2c-0.1-0.3,0.3-0.6,0.6-0.7c0.3-0.1,0.6-0.1,0.7,0.2C47,24.8,46.8,25.1,46.4,25.3z"/>
			<path class="st2" d="M46.4,23.2c-0.1-0.1-0.1-0.2-0.2-0.3c-0.1-0.1,0-0.1-0.1-0.2c0,0,0,0,0,0c-0.1,0,0.1,0.2-0.1,0.3l-0.9,0.4
				c-0.3,0.1-0.2-0.1-0.3,0c0,0,0,0.1,0,0.1c0,0.1,0.1,0.2,0.1,0.3c0,0.1,0,0.1,0.1,0.1c0,0,0,0,0.1,0c0.1,0-0.1-0.2,0.1-0.3
				l0.3-0.2c0.1,0,0.1,0,0.1,0c0,0.1,0,0.1,0,0.2l-0.2,0.3c-0.1,0.1-0.2,0.2-0.1,0.4c0,0.1,0.1,0.2,0.2,0.1c0,0,0,0,0,0c0,0,0,0,0,0
				c0,0,0,0,0-0.1c0.2-0.2,0.4-0.5,0.4-0.5c0,0,0.1,0,0.1,0.1c0.1,0,0.2,0,0.3,0C46.3,23.7,46.6,23.6,46.4,23.2z M46.1,23.6
				c-0.1,0.1-0.2,0.1-0.4-0.2c0-0.1-0.1-0.1,0-0.1l0.4-0.2c0.1-0.1,0.1,0,0.2,0.1C46.4,23.3,46.3,23.5,46.1,23.6z"/>
			<path class="st2" d="M47.5,27.2c-0.1,0,0,0.2-0.3,0.2l-1-0.1c-0.3,0-0.2-0.2-0.3-0.2c0,0,0,0,0,0.1c0,0.1,0,0.2,0,0.3
				c0,0.1,0,0.1,0,0.2c0,0,0,0.1,0,0.1c0.1,0,0-0.2,0.2-0.2l0.4,0c0.1,0,0.1,0,0.1,0.1c0,0.1,0,0.1-0.1,0.2l-0.4,0.1
				c-0.1,0-0.3,0.1-0.3,0.2c0,0.1,0,0.2,0.1,0.2c0,0,0,0,0,0c0,0,0,0,0-0.1c0,0,0-0.1,0-0.1c0.3-0.1,0.6-0.2,0.6-0.2
				c0,0,0,0.1,0.1,0.1c0,0.1,0.1,0.1,0.3,0.1c0.1,0,0.4,0,0.5-0.4c0-0.1,0-0.3,0-0.4C47.5,27.3,47.5,27.3,47.5,27.2
				C47.5,27.2,47.5,27.2,47.5,27.2z M47.4,27.7c0,0.2-0.2,0.3-0.4,0.3c-0.1,0-0.3,0-0.2-0.3c0-0.1,0-0.1,0.1-0.1l0.4,0
				C47.4,27.6,47.4,27.7,47.4,27.7z"/>
			<path class="st2" d="M26.9,22.4c-0.1,0,0,0.1-0.2,0.1l-1.4-0.2c-0.1,0-0.1,0-0.1,0c0,0,0,0,0,0.1l0.9,1.1c0.1,0.1,0,0.2,0.1,0.2
				c0,0,0,0,0,0c0,0,0-0.1,0.1-0.1c0-0.1,0.1-0.1,0.1-0.2c0,0,0.1-0.1,0-0.1c0,0-0.1,0.2-0.2,0.1c0,0-0.1-0.1-0.1-0.1
				C25.9,23,26,23,26,23l0.2-0.3c0,0,0,0,0.2,0c0.1,0,0.1,0,0.1,0c0.1,0.1,0,0.2,0.1,0.2c0,0,0,0,0.1,0c0,0,0.1-0.1,0.1-0.2
				C26.8,22.5,26.8,22.5,26.9,22.4C26.9,22.4,26.9,22.4,26.9,22.4z M26,22.7l-0.1,0.2c0,0,0,0.1,0,0c0,0,0,0-0.1-0.1l-0.3-0.3
				c0,0,0,0,0,0c0,0,0,0,0,0L26,22.7C26,22.6,26,22.6,26,22.7C26.1,22.6,26,22.6,26,22.7z"/>
			<path class="st1" d="M41.8,22.2l-0.1,0H28.9v7c0,3.1,0.2,5.7,2.6,8.1c1.4,1.4,2.4,2.1,3.9,3.2l0.1,0.1l0.2,0.1l0.2-0.1
				c0.5-0.4,0.9-0.7,1.3-1c0.8-0.6,1.6-1.1,2.5-2.2c2.3-2.7,2.7-4.8,2.7-8v-7H41.8z M39.3,37c-0.9,1.1-1.6,1.6-2.4,2.2
				c-0.4,0.3-0.7,0.5-1.2,0.9c-1.5-1-2.4-1.7-3.8-3c-2.2-2.3-2.4-4.6-2.4-7.7v-6.5l12.3,0v6.5C41.8,32.5,41.4,34.4,39.3,37z"/>
			<polygon class="st2" points="49.2,15.4 48.9,15 48.7,15.6 48.9,15.8 			"/>
			<path class="st2" d="M33.2,12.8c0.1,0.5-0.3,0.4-0.3,0.6c0,0.1,0.1,0.1,0.1,0.1c0.1,0,0.3-0.1,0.5-0.1c0.2,0,0.4-0.1,0.5-0.1
				c0.1,0,0.2,0,0.2-0.1c0-0.1-0.4,0.1-0.6-0.4l-0.4-2c0-0.2,0-0.2,0.1-0.3l0.3-0.1c0.4-0.1,0.4,0.4,0.5,0.4c0.1,0,0-0.2,0-0.2
				L34,10.1c0,0,0-0.1-0.1-0.1c-0.3,0.1-0.6,0.1-1.1,0.2c-0.5,0.1-0.8,0.1-1.1,0.2c-0.1,0,0,0.1,0,0.1l0.1,0.6c0,0.1,0,0.2,0.1,0.1
				c0.2,0-0.1-0.6,0.3-0.7l0.3-0.1c0.1,0,0.2,0,0.2,0.2L33.2,12.8z"/>
			<path class="st2" d="M28.5,14.4c0.2,0.5-0.2,0.5-0.1,0.6c0,0.1,0.1,0.1,0.2,0c0.1-0.1,0.2-0.1,0.4-0.2c0.2-0.1,0.3-0.2,0.5-0.2
				c0.1,0,0.2-0.1,0.1-0.2c-0.1-0.1-0.4,0.2-0.7-0.3l-0.9-1.8c-0.1-0.2-0.1-0.2,0.1-0.3l0.3-0.1c0.4-0.2,0.5,0.3,0.6,0.2
				c0.1,0,0-0.2-0.1-0.2l-0.2-0.3c0,0-0.1-0.1-0.1-0.1c-0.3,0.2-0.5,0.3-1,0.5c-0.5,0.2-0.7,0.3-1,0.5c0,0,0,0.1,0,0.1l0.2,0.6
				c0,0.1,0,0.2,0.1,0.1c0.1-0.1-0.2-0.5,0.1-0.7l0.3-0.1c0.1-0.1,0.2-0.1,0.3,0.1L28.5,14.4z"/>
			<polygon class="st2" points="33.8,42.3 33.3,42.3 33.8,42.7 34.1,42.7 			"/>
		</g>
		<g>
			<path class="st1" d="M67.8,11.9c0.2,0,0.3,0.1,0.5,0.1c0.1,0,0.2,0,0.4-0.1c-0.1,1.1-0.2,3.2-0.2,4.9c0,2.1-1.2,3.4-3.3,3.4
				c-2.3,0-3.4-1.1-3.4-3.4c0-0.7,0.1-1.3,0.1-1.9c0-1.3,0-2.4-0.1-3c0.2,0,0.4,0.1,0.6,0.1c0.2,0,0.4,0,0.5-0.1
				c-0.1,0.7-0.1,2.3-0.1,4c0,1.6,0,3.7,2.6,3.7c2.6,0,2.6-2.4,2.6-3.9C67.9,13.5,67.9,12.4,67.8,11.9z"/>
			<path class="st1" d="M78.3,20.2c-1.8-2.1-3.9-4.4-5.9-6.5c0,0.4,0,1.1,0,2.4c0,1,0,3.5,0.1,4c-0.1,0-0.3-0.1-0.4-0.1
				c-0.1,0-0.3,0-0.4,0.1c0.1-0.6,0.2-3.6,0.2-5.1c0-1.5,0-2.6,0-3.1H72c1.9,2.1,4.5,4.9,5.9,6.4c0-2.1,0-4.4-0.1-6.2
				c0.1,0,0.3,0.1,0.4,0.1c0.1,0,0.2,0,0.4-0.1c-0.1,0.7-0.2,3-0.2,3.9c0,1.2,0,3.8,0,4.3H78.3z"/>
			<path class="st1" d="M81.7,14.9c0-1,0-2-0.1-3c0.2,0,0.4,0.1,0.6,0.1c0.2,0,0.4,0,0.6-0.1c0,1-0.1,2-0.1,3v2c0,1,0,2,0.1,3
				c-0.2,0-0.4-0.1-0.6-0.1c-0.2,0-0.4,0-0.6,0.1c0-1,0.1-2,0.1-3V14.9z"/>
			<path class="st1" d="M84.8,11.9c0.2,0,0.4,0.1,0.6,0.1c0.2,0,0.4,0,0.6-0.1c0.7,2.1,1.7,4.6,2.7,6.9c0.9-1.9,2.2-5.4,2.7-6.9
				c0.1,0,0.3,0.1,0.4,0.1s0.3,0,0.4-0.1c-1.2,2.7-2.3,5.4-3.4,8.1c-0.1,0-0.3-0.1-0.4-0.1c-0.1,0-0.3,0-0.4,0.1
				C87.3,18.1,85.9,14.6,84.8,11.9z"/>
			<path class="st1" d="M94.2,14.9c0-1,0-2-0.1-3c0.7,0,1.4,0.1,2.1,0.1c0.7,0,1.4,0,2.1-0.1c0,0.1,0,0.2,0,0.4c0,0.1,0,0.2,0,0.4
				c-1-0.1-1.6-0.2-3.1-0.2c0,0.5,0,0.9,0,1.5c0,0.6,0,1.3,0,1.6c1.4,0,2.2-0.1,2.9-0.1c0,0.1,0,0.2,0,0.4c0,0.1,0,0.2,0,0.4
				C97.3,16,95.8,16,95.2,16c0,0.3,0,0.6,0,1.7c0,0.9,0,1.5,0,1.8c1,0,2.4,0,3.2-0.2c0,0.1,0,0.3,0,0.4c0,0.1,0,0.2,0,0.3
				c-0.7,0-1.4-0.1-2.1-0.1c-0.7,0-1.4,0-2.1,0.1c0-1,0.1-2,0.1-3.1V14.9z"/>
			<path class="st1" d="M100.8,14.9c0-1,0-2-0.1-3c0.4,0,0.9,0.1,1.3,0.1c0.4,0,0.9-0.1,1.3-0.1c1.3,0,2.4,0.5,2.4,1.9
				c0,1.5-1.5,2.1-2.4,2.2c0.6,0.7,2.5,3.2,3.2,4c-0.2,0-0.5-0.1-0.7-0.1c-0.2,0-0.5,0-0.7,0.1c-0.5-0.7-2-2.9-3-3.9h-0.4V17
				c0,1,0,2,0.1,3c-0.2,0-0.4-0.1-0.6-0.1c-0.2,0-0.4,0-0.6,0.1c0-1,0.1-2,0.1-3V14.9z M101.8,15.6c0.2,0,0.5,0.1,0.8,0.1
				c1,0,2.2-0.4,2.2-1.8c0-1.2-1-1.5-1.8-1.5c-0.5,0-0.9,0-1.1,0.1c0,0.9-0.1,1.7-0.1,2.5V15.6z"/>
			<path class="st1" d="M108.6,18.4c0.3,0.6,0.8,1.2,1.9,1.2c1,0,1.7-0.8,1.7-1.7c0-2.2-3.7-1.2-3.7-4c0-1.3,1-2.2,2.5-2.2
				c0.7,0,1.3,0.2,1.7,0.6c-0.1,0.3-0.2,0.5-0.3,1h-0.1c-0.2-0.4-0.5-1.1-1.4-1.1c-0.9,0-1.5,0.6-1.5,1.5c0,2.2,3.7,1.3,3.7,3.9
				c0,1.4-1.1,2.6-2.9,2.6c-1,0-1.5-0.3-1.9-0.7c0.1-0.4,0.2-0.6,0.2-1H108.6z"/>
			<path class="st1" d="M115.7,14.9c0-1,0-2-0.1-3c0.2,0,0.4,0.1,0.6,0.1c0.2,0,0.4,0,0.6-0.1c0,1-0.1,2-0.1,3v2c0,1,0,2,0.1,3
				c-0.2,0-0.4-0.1-0.6-0.1c-0.2,0-0.4,0-0.6,0.1c0-1,0.1-2,0.1-3V14.9z"/>
			<path class="st1" d="M61.8,26.9c0-1,0-2-0.1-3c0.4,0,0.8,0.1,1.1,0.1c0.4,0,1.1-0.1,1.5-0.1c0.7,0,2.6,0,2.6,2
				c0,2.1-2,2.5-3.2,2.5c-0.4,0-0.6,0-1,0v0.6c0,1,0,2,0.1,3c-0.2,0-0.4-0.1-0.6-0.1s-0.4,0-0.6,0.1c0-1,0.1-2,0.1-3V26.9z
				 M62.7,27.8c0.2,0.1,0.6,0.1,0.8,0.1c1,0,2.2-0.4,2.2-2c0-1.3-0.8-1.6-2-1.6h-1.1V27.8z"/>
			<path class="st1" d="M72.5,23.7c2.6,0,4.4,1.5,4.4,4.2c0,2.7-1.8,4.2-4.4,4.2c-2.6,0-4.4-1.5-4.4-4.2
				C68.1,25.3,70,23.7,72.5,23.7z M72.5,24.2c-1.8,0-3.2,1.2-3.2,3.8s1.4,3.8,3.2,3.8c1.8,0,3.3-1.2,3.3-3.8S74.4,24.2,72.5,24.2z"
				/>
			<path class="st1" d="M78.9,26.9c0-1,0-2-0.1-3c0.2,0,0.4,0.1,0.6,0.1c0.2,0,0.4,0,0.6-0.1c0,1-0.1,2-0.1,3c0,2,0,3.4,0,4.5
				c1.1,0,2.1,0,3.2-0.2c0,0.1-0.1,0.2-0.1,0.4c0,0.1,0,0.2,0.1,0.4c-0.7,0-1.4-0.1-2.2-0.1c-0.7,0-1.4,0-2.2,0.1c0-1,0.1-2,0.1-3
				V26.9z"/>
			<path class="st1" d="M85.3,26.9c0-1,0-2-0.1-3c0.2,0,0.4,0.1,0.6,0.1c0.2,0,0.4,0,0.6-0.1c0,1-0.1,2-0.1,3v2c0,1,0,2,0.1,3
				c-0.2,0-0.4-0.1-0.6-0.1c-0.2,0-0.4,0-0.6,0.1c0-1,0.1-2,0.1-3V26.9z"/>
			<path class="st1" d="M90.8,26.9c0-0.8,0-1.6,0-2.4c-0.8,0-1.9,0-2.5,0.1c0-0.1,0.1-0.2,0.1-0.4c0-0.1,0-0.2-0.1-0.4
				c1,0,2,0.1,3,0.1c1,0,2,0,3-0.1c0,0.1-0.1,0.2-0.1,0.4c0,0.1,0,0.2,0.1,0.4c-0.7-0.1-1.7-0.1-2.5-0.1c0,0.8,0,1.6,0,2.4v2
				c0,1,0,2,0.1,3c-0.2,0-0.4-0.1-0.6-0.1c-0.2,0-0.4,0-0.6,0.1c0-1,0.1-2,0.1-3V26.9z"/>
			<path class="st1" d="M108.6,31.5c-0.3,0.2-1.3,0.7-2.4,0.7c-2.5,0-4.3-1.5-4.3-4.2c0-2.7,1.8-4.2,4.4-4.2c1,0,1.9,0.2,2.5,0.5
				c-0.1,0.2-0.2,0.7-0.2,0.9l-0.1,0c-0.3-0.4-1.1-1-2.2-1c-1.8,0-3.3,1.2-3.3,3.8s1.4,3.8,3.3,3.8c1.1,0,1.9-0.6,2.4-1l0,0
				L108.6,31.5z"/>
			<path class="st1" d="M117.5,32.1c-1.8-2.1-3.9-4.4-5.9-6.5c0,0.4,0,1.1,0,2.4c0,1,0,3.5,0.1,4c-0.1,0-0.3-0.1-0.4-0.1
				c-0.1,0-0.3,0-0.4,0.1c0.1-0.6,0.2-3.6,0.2-5.1c0-1.5,0-2.6,0-3.1h0.2c1.9,2.1,4.5,4.9,5.9,6.4c0-2.1,0-4.4-0.1-6.2
				c0.1,0,0.3,0.1,0.4,0.1c0.1,0,0.2,0,0.4-0.1c-0.1,0.7-0.2,3-0.2,3.9c0,1.2,0,3.8,0,4.3H117.5z"/>
			<path class="st1" d="M120.3,26.9c0-1,0-2-0.1-3c0.2,0,0.4,0.1,0.6,0.1c0.2,0,0.4,0,0.6-0.1c0,1-0.1,2-0.1,3v2c0,1,0,2,0.1,3
				c-0.2,0-0.4-0.1-0.6-0.1c-0.2,0-0.4,0-0.6,0.1c0-1,0.1-2,0.1-3V26.9z"/>
			<path class="st1" d="M130.2,31.5c-0.3,0.2-1.3,0.7-2.4,0.7c-2.5,0-4.3-1.5-4.3-4.2c0-2.7,1.8-4.2,4.4-4.2c1,0,1.9,0.2,2.5,0.5
				c-0.1,0.2-0.2,0.7-0.2,0.9l-0.1,0c-0.3-0.4-1.1-1-2.2-1c-1.8,0-3.3,1.2-3.3,3.8s1.4,3.8,3.3,3.8c1.1,0,1.9-0.6,2.4-1l0,0
				L130.2,31.5z"/>
			<path class="st1" d="M61.9,38.9c0-1,0-2-0.1-3c0.6,0,1.2,0.1,1.8,0.1c0.6,0,1.2-0.1,1.8-0.1c2.7,0,3.9,1.5,3.9,3.9
				c0,3.1-2.4,4.2-4.3,4.2c-0.5,0-1-0.1-1.6-0.1c-0.5,0-1,0-1.6,0.1c0-1,0.1-2,0.1-3V38.9z M62.8,40.9c0,0.8,0,1.7,0.1,2.5
				c0.3,0.1,0.9,0.1,1.5,0.1c1.7,0,3.6-0.7,3.6-3.8c0-2.7-1.4-3.4-3.3-3.4c-0.7,0-1.3,0.1-1.8,0.1c0,0.8-0.1,1.6-0.1,2.4V40.9z"/>
			<path class="st1" d="M70.7,38.9c0-1,0-2-0.1-3c0.7,0,1.4,0.1,2.1,0.1s1.4,0,2.1-0.1c0,0.1,0,0.2,0,0.4c0,0.1,0,0.2,0,0.4
				c-1-0.1-1.6-0.2-3.1-0.2c0,0.5,0,0.9,0,1.5c0,0.6,0,1.3,0,1.6c1.4,0,2.2-0.1,2.9-0.1c0,0.1,0,0.2,0,0.4c0,0.1,0,0.2,0,0.4
				c-0.8-0.1-2.3-0.1-2.9-0.1c0,0.3,0,0.6,0,1.7c0,0.9,0,1.5,0,1.8c1,0,2.4,0,3.2-0.2c0,0.1,0,0.3,0,0.4c0,0.1,0,0.2,0,0.3
				c-0.7,0-1.4-0.1-2.1-0.1c-0.7,0-1.4,0-2.1,0.1c0-1,0.1-2,0.1-3.1V38.9z"/>
			<path class="st1" d="M82.4,35.9c0.2,0,0.4,0.1,0.6,0.1c0.2,0,0.4,0,0.6-0.1c0.7,2.1,1.7,4.6,2.7,6.9c0.9-1.9,2.2-5.4,2.7-6.9
				c0.1,0,0.3,0.1,0.4,0.1c0.1,0,0.3,0,0.4-0.1c-1.2,2.7-2.3,5.4-3.4,8.1c-0.1,0-0.3-0.1-0.4-0.1c-0.1,0-0.3,0-0.4,0.1
				C85,42,83.6,38.6,82.4,35.9z"/>
			<path class="st1" d="M98.8,38.9c0-1,0-2-0.1-3c0.2,0,0.4,0.1,0.6,0.1c0.2,0,0.4,0,0.6-0.1c0,1-0.1,2-0.1,3c0,2,0,3.4,0,4.5
				c1.1,0,2.1,0,3.2-0.2c0,0.1-0.1,0.2-0.1,0.4c0,0.1,0,0.2,0.1,0.4c-0.7,0-1.4-0.1-2.2-0.1c-0.7,0-1.4,0-2.2,0.1c0-1,0.1-2,0.1-3
				V38.9z"/>
			<path class="st1" d="M117.9,44.1c-1.8-2.1-3.9-4.4-5.9-6.5c0,0.4,0,1.1,0,2.4c0,1,0,3.5,0.1,4c-0.1,0-0.3-0.1-0.4-0.1
				s-0.3,0-0.4,0.1c0.1-0.6,0.2-3.6,0.2-5.1c0-1.5,0-2.6,0-3.1h0.2c1.9,2.1,4.5,4.9,5.9,6.4c0-2.1,0-4.4-0.1-6.2
				c0.1,0,0.3,0.1,0.4,0.1c0.1,0,0.2,0,0.4-0.1c-0.1,0.7-0.2,3-0.2,3.9c0,1.2,0,3.8,0,4.3H117.9z"/>
			<path class="st1" d="M126.7,43.4c-0.3,0.2-1.3,0.7-2.4,0.7c-2.5,0-4.3-1.5-4.3-4.2c0-2.7,1.8-4.2,4.4-4.2c1,0,1.9,0.2,2.5,0.5
				c-0.1,0.2-0.2,0.7-0.2,0.9l-0.1,0c-0.3-0.4-1.1-1-2.2-1c-1.8,0-3.3,1.2-3.3,3.8c0,2.6,1.4,3.8,3.3,3.8c1.1,0,1.9-0.6,2.4-1l0,0
				L126.7,43.4z"/>
			<path class="st1" d="M128.8,38.9c0-1,0-2-0.1-3c0.2,0,0.4,0.1,0.6,0.1c0.2,0,0.4,0,0.6-0.1c0,1-0.1,2-0.1,3v2c0,1,0,2,0.1,3
				c-0.2,0-0.4-0.1-0.6-0.1c-0.2,0-0.4,0-0.6,0.1c0-1,0.1-2,0.1-3V38.9z"/>
			<g>
				<path class="st1" d="M133.3,31c0-0.5,0.4-0.9,0.9-0.9c0.5,0,0.9,0.4,0.9,0.9c0,0.5-0.4,0.9-0.9,0.9
					C133.7,31.9,133.3,31.5,133.3,31L133.3,31z"/>
				<path class="st1" d="M136.5,28.7l-1.5-3.5l-1.5,3.5c-0.5,1.2-0.9,2.4-1.1,3.1c-0.2,0-0.3-0.1-0.4-0.1c-0.1,0-0.3,0-0.4,0.1
					c1.3-2.7,2.5-5.5,3.7-8.3h0.2c1.2,2.7,2.9,7,3.5,8.3c-0.2,0-0.4-0.1-0.6-0.1c-0.2,0-0.4,0-0.6,0.1
					C137.5,31.1,136.9,29.8,136.5,28.7z"/>
			</g>
			<g>
				<path class="st1" d="M133.4,43c0-0.5,0.4-0.9,0.9-0.9c0.5,0,0.9,0.4,0.9,0.9c0,0.5-0.4,0.9-0.9,0.9
					C133.8,43.9,133.4,43.5,133.4,43L133.4,43z"/>
				<path class="st1" d="M136.5,40.7l-1.5-3.5l-1.5,3.5c-0.5,1.2-0.9,2.4-1.1,3.1c-0.2,0-0.3-0.1-0.4-0.1c-0.1,0-0.3,0-0.4,0.1
					c1.3-2.7,2.5-5.5,3.7-8.3h0.2c1.2,2.7,2.9,7,3.5,8.3c-0.2,0-0.4-0.1-0.6-0.1c-0.2,0-0.4,0-0.6,0.1
					C137.5,43.1,137,41.8,136.5,40.7z"/>
			</g>
			<g>
				<path class="st1" d="M91.6,43c0-0.5,0.4-0.9,0.9-0.9c0.5,0,0.9,0.4,0.9,0.9c0,0.5-0.4,0.9-0.9,0.9C92,43.9,91.6,43.5,91.6,43
					L91.6,43z"/>
				<path class="st1" d="M94.8,40.7l-1.5-3.5l-1.5,3.5c-0.5,1.2-0.9,2.4-1.1,3.1c-0.2,0-0.3-0.1-0.4-0.1c-0.1,0-0.3,0-0.4,0.1
					c1.3-2.7,2.5-5.5,3.7-8.3h0.2c1.2,2.7,2.9,7,3.5,8.3c-0.2,0-0.4-0.1-0.6-0.1c-0.2,0-0.4,0-0.6,0.1
					C95.8,43.1,95.2,41.8,94.8,40.7z"/>
			</g>
			<path class="st1" d="M121.3,15c0-0.8,0-1.6,0-2.4c-0.8,0-1.9,0-2.5,0.1c0-0.1,0.1-0.2,0.1-0.4c0-0.1,0-0.2-0.1-0.4
				c1,0,2,0.1,3,0.1c1,0,2,0,3-0.1c0,0.1-0.1,0.2-0.1,0.4c0,0.1,0,0.2,0.1,0.4c-0.7-0.1-1.7-0.1-2.5-0.1c0,0.8,0,1.6,0,2.4v2
				c0,1,0,2,0.1,3c-0.2,0-0.4-0.1-0.6-0.1c-0.2,0-0.4,0-0.6,0.1c0-1,0.1-2,0.1-3V15z"/>
			<path class="st1" d="M135.4,15c0-0.8,0-1.6,0-2.4c-0.8,0-1.9,0-2.5,0.1c0-0.1,0.1-0.2,0.1-0.4c0-0.1,0-0.2-0.1-0.4
				c1,0,2,0.1,3,0.1c1,0,2,0,3-0.1c0,0.1-0.1,0.2-0.1,0.4c0,0.1,0,0.2,0.1,0.4c-0.7-0.1-1.7-0.1-2.5-0.1c0,0.8,0,1.6,0,2.4v2
				c0,1,0,2,0.1,3c-0.2,0-0.4-0.1-0.6-0.1c-0.2,0-0.4,0-0.6,0.1c0-1,0.1-2,0.1-3V15z"/>
			<path class="st2" d="M108,35.2l-1.5-1.5c-0.1-0.1-0.3-0.3-0.5-0.4c0,0-0.1-0.1-0.2-0.1c-0.2,0-0.4,0.1-0.5,0.2c0,0.1,0,0.2,0,0.3
				c0.1,0.1,0.2,0.2,0.3,0.3l1.9,1.2H108z M106,36.4h0.9l1.2,0c0.4,0,0.7,0.1,1.1,0.1c0-0.1,0-0.2,0-0.4c0-0.1,0-0.2,0-0.4H105v8.1
				h4.3c0-0.1,0-0.2,0-0.4c0-0.1,0-0.2,0-0.4c-0.4,0.1-0.7,0.1-1.1,0.1c-0.7,0-1.4,0.1-2.2,0v-3.5h1.8c0.4,0,0.7,0,1.1,0.1
				c0-0.1,0-0.2,0-0.3c0-0.1,0-0.2,0-0.3c-0.4,0-0.7,0.1-1.1,0.1H106V36.4z"/>
			<path class="st2" d="M99,23.3l-1.5-1.5c-0.1-0.1-0.3-0.3-0.5-0.4c0,0-0.1-0.1-0.2-0.1c-0.2,0-0.4,0.1-0.5,0.2c0,0.1,0,0.2,0,0.3
				c0.1,0.1,0.2,0.2,0.3,0.3l1.9,1.2H99z M97,24.5H98l1.2,0c0.4,0,0.7,0.1,1.1,0.1c0-0.1,0-0.2,0-0.4c0-0.1,0-0.2,0-0.4H96V32h4.3
				c0-0.1,0-0.2,0-0.4c0-0.1,0-0.2,0-0.4c-0.4,0.1-0.7,0.1-1.1,0.1c-0.7,0-1.4,0.1-2.2,0V28h1.8c0.4,0,0.7,0,1.1,0.1
				c0-0.1,0-0.2,0-0.3c0-0.1,0-0.2,0-0.3c-0.4,0-0.7,0.1-1.1,0.1H97V24.5z"/>
			<path class="st1" d="M127,19c0-0.5,0.4-0.9,0.9-0.9c0.5,0,0.9,0.4,0.9,0.9c0,0.5-0.4,0.9-0.9,0.9C127.4,19.9,127,19.5,127,19z
				 M128.7,11.7h0.2l3.4,7.8l0.2,0.4c-0.2,0-0.4,0-0.6,0c-0.2,0-0.4,0-0.7,0l-0.1-0.3l-0.5-1.4l-0.6-1.4l-1.5-3.6l-1.5,3.6
				c-0.4,1-0.8,2.1-1.2,3.2c-0.1,0-0.3,0-0.4,0c-0.1,0-0.3,0-0.4,0L128.7,11.7z"/>
		</g>
	</g>
</g>
</svg>
