<?xml version="1.0" encoding="utf-8"?>
<!-- Generator: Adobe Illustrator 25.0.0, SVG Export Plug-In . SVG Version: 6.00 Build 0)  -->
<svg version="1.1" id="Capa_1" xmlns="http://www.w3.org/2000/svg" xmlns:xlink="http://www.w3.org/1999/xlink" x="0px" y="0px"
	 viewBox="0 0 96.6 55.8" style="enable-background:new 0 0 96.6 55.8;" xml:space="preserve">
<style type="text/css">
	.st0{fill:none;}
	.st1{fill:#50565B;}
	.st2{fill-rule:evenodd;clip-rule:evenodd;fill:#50565B;}
</style>
<g>
	<rect class="st0" width="96.6" height="55.8"/>
	<g transform="translate(-60.823 -65.5)">
		<path class="st1" d="M148.2,96.8c-0.1-0.2-0.2-0.4-0.4-0.6c-0.2-0.2-0.4-0.3-0.6-0.4c-0.5-0.2-1-0.2-1.5,0
			c-0.2,0.1-0.4,0.2-0.6,0.4c-0.2,0.2-0.3,0.4-0.4,0.6c-0.1,0.2-0.2,0.5-0.2,0.7c0,1.1,0.9,2,2,2s2-0.9,2-2c0,0,0,0,0,0
			C148.3,97.3,148.3,97,148.2,96.8z"/>
		<path class="st1" d="M80.6,92.8c-0.5-0.4-1.1-0.6-1.7-0.8c-0.7-0.2-1.5-0.5-2.4-0.7c-0.5-0.1-0.9-0.2-1.2-0.3
			c-0.3-0.1-0.5-0.2-0.8-0.3c-0.1-0.1-0.3-0.2-0.4-0.3c-0.1-0.1-0.1-0.3-0.1-0.4c0-0.4,0.1-0.7,0.5-0.9c1-0.4,2.1-0.4,3.1,0
			c0.7,0.3,1.3,0.6,1.9,1.1l0.2,0.2l1.7-2.5l-0.2-0.2c-0.7-0.6-1.6-1.1-2.5-1.5c-0.9-0.3-1.9-0.5-2.9-0.4c-0.7,0-1.5,0.1-2.1,0.3
			c-0.6,0.2-1.2,0.5-1.7,0.9c-0.5,0.4-0.9,0.9-1.2,1.5c-0.3,0.6-0.4,1.3-0.4,1.9c0,0.5,0.1,1,0.3,1.4c0.2,0.4,0.5,0.8,0.9,1.1
			c0.5,0.3,1,0.6,1.5,0.8c0.6,0.2,1.4,0.5,2.2,0.7c0.7,0.2,1.5,0.4,2.2,0.7c0.3,0.1,0.5,0.4,0.5,0.8c0,0.4-0.2,0.7-0.5,0.9
			c-0.4,0.2-0.9,0.4-1.5,0.3c-0.8,0-1.5-0.2-2.2-0.4c-0.8-0.3-1.6-0.8-2.3-1.3l-0.2-0.2l-1.5,2.6l0.2,0.1c0.8,0.7,1.8,1.2,2.8,1.6
			c1.1,0.4,2.2,0.5,3.4,0.5c1.5,0.1,2.9-0.3,4.1-1.2c1-0.8,1.6-2,1.5-3.3c0-0.5-0.1-1.1-0.3-1.6C81.4,93.5,81,93.1,80.6,92.8z"/>
		<path class="st1" d="M97,96.2c-0.1-0.2-0.2-0.4-0.1-0.6v-4.1c0.1-1.6-0.5-3.2-1.7-4.3c-1.3-1-3-1.6-4.6-1.5c-2,0-4,0.6-5.7,1.7
			l-0.2,0.1l1.3,2.6l0.3-0.2c0.6-0.4,1.3-0.8,2-1.1c0.6-0.2,1.3-0.4,2-0.4c0.7-0.1,1.5,0.2,2,0.6c0.5,0.5,0.7,1.2,0.7,1.8v0.4
			c-0.4-0.1-0.8-0.2-1.2-0.3c-1.4-0.3-2.8-0.2-4.1,0.2c-0.7,0.2-1.3,0.5-1.9,0.9c-0.5,0.4-0.9,0.9-1.2,1.4c-0.3,0.6-0.5,1.2-0.5,1.9
			c0,0.6,0.1,1.2,0.4,1.8c0.2,0.5,0.6,1,1,1.4c0.4,0.4,1,0.7,1.5,0.9c0.6,0.2,1.3,0.3,1.9,0.3c1,0,1.9-0.2,2.8-0.6
			c0.7-0.3,1.3-0.8,1.8-1.4l0,0.1c0.1,0.5,0.3,1,0.7,1.3c0.6,0.5,1.7,0.6,3.2,0.3l0.2,0v-3.4l-0.2,0C97.3,96.3,97.1,96.3,97,96.2z
			 M92.9,93.8v1.3c0,0.3-0.2,0.6-0.5,0.8c-0.3,0.3-0.7,0.6-1.1,0.7c-0.5,0.2-1,0.3-1.5,0.3c-0.5,0-1-0.2-1.5-0.5
			c-0.4-0.3-0.6-0.8-0.6-1.2c0-0.5,0.3-1,0.7-1.3c0.6-0.4,1.3-0.6,2-0.5c0.4,0,0.9,0,1.3,0.1C92.2,93.6,92.6,93.7,92.9,93.8z"/>
		<path class="st1" d="M111.7,87.8c-0.5-0.6-1.1-1.2-1.9-1.5c-0.7-0.4-1.5-0.6-2.4-0.6c-0.9,0-1.8,0.2-2.6,0.7
			c-0.5,0.3-0.9,0.7-1.3,1.2v-1.7h-3.2v19.2h3.6v-7.1c0.3,0.5,0.8,0.9,1.2,1.2c0.8,0.5,1.7,0.8,2.6,0.7c0.8,0,1.5-0.2,2.2-0.6
			c0.7-0.4,1.3-0.9,1.7-1.5c0.5-0.7,0.9-1.5,1.1-2.3c0.3-0.9,0.4-1.9,0.4-2.8c0-0.9-0.1-1.9-0.4-2.7
			C112.7,89.2,112.3,88.5,111.7,87.8z M109.7,92.8c0,0.5-0.1,1-0.2,1.4c-0.1,0.4-0.3,0.8-0.6,1.2c-0.2,0.3-0.6,0.6-0.9,0.8
			c-0.3,0.2-0.7,0.3-1.1,0.3c-0.6,0-1.2-0.3-1.7-0.7c-0.5-0.5-0.9-1.1-1.2-1.7v-3c0.1-0.3,0.2-0.5,0.4-0.8c0.2-0.2,0.4-0.5,0.6-0.7
			c0.2-0.2,0.5-0.3,0.8-0.4c0.7-0.2,1.4-0.2,2,0.1c0.4,0.2,0.7,0.5,1,0.8c0.3,0.3,0.5,0.7,0.6,1.2C109.7,91.8,109.7,92.3,109.7,92.8
			L109.7,92.8z"/>
		<path class="st1" d="M126.9,87.8c-0.5-0.6-1.1-1.2-1.9-1.5c-0.7-0.4-1.5-0.6-2.4-0.6c-0.9,0-1.8,0.2-2.6,0.7
			c-0.5,0.3-0.9,0.7-1.3,1.2v-1.7h-3.2v19.2h3.6v-7.1c0.3,0.5,0.8,0.9,1.2,1.2c0.8,0.5,1.7,0.8,2.6,0.7c0.8,0,1.5-0.2,2.2-0.6
			c0.7-0.4,1.3-0.9,1.7-1.5c0.5-0.7,0.9-1.5,1.1-2.3c0.3-0.9,0.4-1.9,0.4-2.8c0-0.9-0.1-1.9-0.4-2.7
			C127.9,89.2,127.5,88.5,126.9,87.8z M124.9,92.8c0,0.5-0.1,1-0.2,1.4c-0.1,0.4-0.3,0.8-0.6,1.2c-0.2,0.3-0.6,0.6-0.9,0.8
			c-0.3,0.2-0.7,0.3-1.1,0.3c-0.6,0-1.2-0.3-1.7-0.7c-0.5-0.5-0.9-1.1-1.2-1.7v-3c0.1-0.3,0.2-0.5,0.4-0.8c0.2-0.2,0.4-0.5,0.6-0.7
			c0.2-0.2,0.5-0.3,0.8-0.4c0.7-0.2,1.4-0.2,2,0.1c0.4,0.2,0.7,0.5,1,0.8c0.3,0.3,0.5,0.7,0.6,1.2C124.8,91.8,124.9,92.3,124.9,92.8
			L124.9,92.8z"/>
		<path class="st1" d="M141.2,92.8c-0.5-0.4-1.1-0.6-1.7-0.8c-0.7-0.2-1.5-0.5-2.4-0.7c-0.5-0.1-0.9-0.2-1.2-0.3
			c-0.3-0.1-0.5-0.2-0.8-0.3c-0.1-0.1-0.3-0.2-0.4-0.3c-0.1-0.1-0.1-0.3-0.1-0.4c0-0.4,0.1-0.7,0.5-0.9c1-0.4,2.1-0.4,3.1,0
			c0.7,0.3,1.3,0.6,1.9,1.1l0.2,0.2l1.7-2.5l-0.2-0.2c-0.7-0.6-1.6-1.1-2.5-1.5c-0.9-0.3-1.9-0.5-2.9-0.4c-0.7,0-1.5,0.1-2.2,0.3
			c-0.6,0.2-1.2,0.5-1.7,0.9c-0.5,0.4-0.9,0.9-1.2,1.5c-0.3,0.6-0.4,1.3-0.4,1.9c0,0.5,0.1,1,0.3,1.4c0.2,0.4,0.5,0.8,0.9,1.1
			c0.5,0.3,1,0.6,1.5,0.8c0.6,0.2,1.4,0.5,2.2,0.7c0.7,0.2,1.5,0.4,2.2,0.7c0.3,0.1,0.5,0.4,0.5,0.8c0,0.4-0.2,0.7-0.5,0.9
			c-0.4,0.2-0.9,0.4-1.5,0.3c-0.8,0-1.5-0.2-2.2-0.4c-0.8-0.3-1.6-0.8-2.3-1.3l-0.2-0.2l-1.5,2.6l0.2,0.1c0.8,0.7,1.8,1.2,2.8,1.6
			c1.1,0.4,2.2,0.5,3.4,0.5c1.5,0.1,2.9-0.3,4.1-1.2c1-0.8,1.6-2,1.5-3.3c0-0.5-0.1-1.1-0.3-1.6C141.9,93.5,141.6,93.1,141.2,92.8z"
			/>
	</g>
</g>
</svg>
