<?xml version="1.0" encoding="utf-8"?>
<!-- Generator: Adobe Illustrator 25.0.0, SVG Export Plug-In . SVG Version: 6.00 Build 0)  -->
<svg version="1.1" id="Capa_1" xmlns="http://www.w3.org/2000/svg" xmlns:xlink="http://www.w3.org/1999/xlink" x="0px" y="0px"
	 viewBox="0 0 155.2 55.8" style="enable-background:new 0 0 155.2 55.8;" xml:space="preserve">
<style type="text/css">
	.st0{fill:none;}
	.st1{fill:#50565B;}
	.st2{fill-rule:evenodd;clip-rule:evenodd;fill:#50565B;}
</style>
<g>
	<rect x="0.1" class="st0" width="155" height="55.8"/>
	<g>
		<path class="st2" d="M47.7,29.5c0.1-0.1,0.2-0.1,0.3-0.1c0.1,0,0.3,0,0.4,0c0.7,0,1.5,0.1,2.2,0.1c0.5,0,0.9,0,1.4-0.1
			c0.2,0,0.5,0,0.7,0c0.1,0,0.2,0,0.2,0.1c0,0.1-0.1,0.1-0.2,0.1c-0.2,0-0.4,0.1-0.6,0.1c-0.3,0.1-0.4,0.2-0.3,0.6
			c0.2,0.7,0.5,1.4,0.7,2.1c0.1,0.2,0.1,0.3,0.2,0.5c0.4,1.1,0.8,2.2,1.3,3.3c0.4,1,0.7,1.9,1.1,2.9c0.3,0.8,0.6,1.5,0.9,2.3
			c0,0,0,0.1,0.1,0.2c0.1-0.1,0.1-0.2,0.1-0.3c0.3-0.7,0.6-1.4,0.8-2.1c0.4-1,0.8-2,1.2-3.1c0.3-0.8,0.6-1.6,0.9-2.5
			c0.3-0.8,0.6-1.5,0.8-2.3c0.1-0.4,0.2-0.7,0.3-1.1c0.1-0.4,0-0.5-0.4-0.6c-0.2,0-0.4-0.1-0.6-0.1c-0.1,0-0.1,0-0.2-0.1
			c0.1,0,0.2-0.1,0.2-0.1c0.2,0,0.4,0,0.6,0c0.5,0,1,0.1,1.6,0.1c0.4,0,0.8,0,1.1-0.1c0.2,0,0.5-0.1,0.7,0.1c0,0.1-0.1,0.2-0.2,0.2
			c-0.3,0.1-0.5,0.1-0.7,0.2c-0.3,0.1-0.5,0.3-0.6,0.5c-0.5,0.8-0.7,1.6-1.1,2.4c-0.3,0.7-0.6,1.3-0.8,2c-0.2,0.5-0.4,1-0.6,1.5
			c-0.2,0.5-0.4,1-0.6,1.5c-0.4,0.9-0.7,1.7-1.1,2.6c-0.3,0.7-0.6,1.3-0.9,2c-0.2,0.5-0.4,1-0.6,1.5c-0.1,0.1-0.1,0.2-0.2,0.3
			c-0.1,0.2-0.3,0.3-0.4,0c-0.1-0.2-0.2-0.4-0.3-0.7c-0.3-0.8-0.6-1.6-1-2.4c-0.3-0.6-0.5-1.3-0.8-1.9c-0.3-0.7-0.5-1.4-0.8-2
			c-0.3-0.7-0.6-1.3-0.8-2c-0.2-0.6-0.5-1.2-0.7-1.8c-0.2-0.5-0.5-1.1-0.7-1.6c-0.1-0.3-0.2-0.5-0.3-0.8c-0.2-0.7-0.7-1.1-1.5-1.2
			c-0.2,0-0.4-0.1-0.5-0.1C47.8,29.6,47.8,29.5,47.7,29.5z"/>
		<path class="st2" d="M25.8,11.4c-0.1,0-0.2,0.1-0.3,0.1c-0.2,0-0.4,0-0.5,0.1c-0.3,0.1-0.4,0.2-0.3,0.5c0,0.2,0.1,0.3,0.1,0.5
			c0.4,1,0.8,2,1.1,3c0.1,0.3,0.2,0.5,0.3,0.8c0.2,0.6,0.4,1.1,0.7,1.7c0.1,0.3,0.2,0.6,0.3,0.9c0.3,0.7,0.5,1.3,0.8,2
			c0.1,0.3,0.2,0.6,0.3,0.8c0.2,0.6,0.4,1.1,0.7,1.8c0-0.1,0.1-0.1,0.1-0.2c0.5-1.3,1.1-2.6,1.6-3.9c0.4-1.1,0.9-2.2,1.3-3.3
			c0.4-1.1,0.8-2.1,1.2-3.2c0.1-0.3,0.1-0.5,0.2-0.8c0.1-0.3-0.1-0.5-0.4-0.5c-0.2,0-0.4,0-0.6,0c-0.1,0-0.2-0.1-0.3-0.3
			c0.2,0,0.3-0.1,0.5-0.1c0.4,0,0.8,0,1.2,0c0.7,0,1.3,0,2,0c0.1,0,0.3,0,0.4,0.1c0,0.2-0.1,0.3-0.2,0.3c-0.2,0-0.4,0-0.6,0.1
			c-0.4,0.1-0.6,0.3-0.8,0.6c-0.4,0.7-0.7,1.6-1.1,2.3c-0.3,0.8-0.7,1.6-1,2.3c-0.1,0.2-0.2,0.4-0.3,0.7c-0.2,0.6-0.5,1.1-0.7,1.7
			c-0.5,1.2-1,2.3-1.4,3.5c-0.5,1.1-1,2.2-1.4,3.2c-0.1,0.1-0.1,0.3-0.3,0.2c-0.1,0-0.2-0.1-0.3-0.2c-0.2-0.5-0.4-1-0.6-1.5
			c-0.4-0.9-0.7-1.8-1-2.7c-0.3-0.9-0.7-1.8-1-2.6c-0.3-0.6-0.5-1.3-0.8-1.9c-0.1-0.3-0.2-0.6-0.3-0.8c-0.5-1.1-0.9-2.3-1.4-3.4
			c-0.1-0.2-0.2-0.5-0.3-0.7c-0.2-0.4-0.5-0.6-0.9-0.7c-0.3-0.1-0.5-0.1-0.8-0.1c-0.1,0-0.1-0.1-0.2-0.1c0-0.1,0.1-0.1,0.1-0.2
			c0,0,0.1,0,0.1,0c0.4,0,0.9,0,1.3,0c0.7,0,1.4,0,2.1,0c0.4,0,0.7,0,1.1,0c0.1,0,0.2,0.1,0.3,0.1C25.8,11.4,25.8,11.4,25.8,11.4z"
			/>
		<path class="st2" d="M27,44.2c0.1-0.1,0.2-0.1,0.3-0.1c0.1,0,0.3,0,0.5-0.1c0.2,0,0.4-0.2,0.4-0.4c0.1-0.5,0.2-1.1,0.2-1.6
			c0-2.4,0-4.8,0-7.2c0-0.3,0-0.6-0.1-0.9c0-0.3-0.2-0.5-0.5-0.5c-0.2,0-0.4-0.1-0.6-0.1c-0.1,0-0.3,0-0.4-0.2c0.1,0,0.2,0,0.3,0
			c1.5,0,3,0,4.4,0c1.2,0,2.5-0.1,3.7,0.2c0.6,0.1,1.3,0.2,1.9,0.5c1,0.3,1.8,0.9,2.5,1.7c0.3,0.3,0.5,0.7,0.7,1.1
			c0.3,0.5,0.4,0.9,0.5,1.5c0.1,0.8,0.1,1.6-0.2,2.4c-0.3,0.8-0.7,1.5-1.3,2.1c-0.3,0.4-0.7,0.7-1.1,0.9c-0.7,0.4-1.4,0.7-2.2,0.9
			c-1.1,0.3-2.2,0.3-3.3,0.3c-0.9,0-1.9-0.1-2.8-0.1c-0.8,0-1.5,0-2.3,0c-0.1,0-0.2,0-0.3,0C27.1,44.3,27.1,44.3,27,44.2z
			 M29.9,38.1C29.9,38.1,29.9,38.1,29.9,38.1c0,1.3,0,2.6,0,3.9c0,0.4,0,0.8,0.2,1.1c0.1,0.2,0.1,0.3,0.3,0.4
			c0.2,0.1,0.4,0.2,0.7,0.3c1,0.2,2.1,0.2,3.1,0.1c0.9,0,1.8-0.3,2.6-0.6c0.4-0.1,0.7-0.3,1.1-0.5c1-0.7,1.5-1.7,1.7-2.9
			c0-0.2,0.1-0.3,0.1-0.5c0-0.4,0-0.9-0.1-1.3c-0.1-0.4-0.1-0.8-0.3-1.1c-0.3-0.5-0.6-1-1-1.4c-0.6-0.6-1.2-1-2-1.3
			c-0.7-0.3-1.4-0.5-2.2-0.5c-0.5-0.1-0.9-0.1-1.4-0.1c-0.8,0-1.6-0.1-2.3,0c-0.4,0.1-0.4,0.1-0.4,0.5c0,0.4,0,0.7,0,1.1
			C29.9,36.2,29.9,37.1,29.9,38.1z"/>
		<path class="st2" d="M81.9,26.2c-0.1,0-0.2,0.1-0.3,0.1c-1.1,0-2.2,0-3.3,0c-0.1,0-0.2,0-0.3-0.1c0.1-0.1,0.2-0.1,0.2-0.2
			c0.1,0,0.2,0,0.4-0.1c0.2,0,0.4-0.2,0.4-0.4c0.1-0.6,0.1-1.1,0.1-1.7c0-2.4,0-4.8,0-7.3c0-0.3,0-0.7-0.1-1
			c-0.1-0.2-0.2-0.3-0.3-0.4c-0.2,0-0.3-0.1-0.5-0.1c-0.1,0-0.2,0-0.3-0.1c0-0.1,0.1-0.2,0.2-0.2c0.1,0,0.2,0,0.3,0c1,0,2,0,3,0
			c0.7,0,1.4,0.1,2,0.2c0.7,0.1,1.2,0.5,1.6,1.1c0.4,0.6,0.6,1.3,0.4,2c-0.1,0.6-0.3,1.2-0.6,1.7c-0.3,0.4-0.6,0.7-0.9,1
			c-0.1,0.1-0.1,0.1-0.2,0.2c0.1,0.1,0.2,0.1,0.3,0.2c0.6,0.3,1.1,0.7,1.5,1.2c0.1,0.1,0.2,0.2,0.3,0.3c0.4,0.5,0.8,1.1,1.1,1.6
			c0.2,0.4,0.4,0.8,0.8,1.1c0.1,0.1,0.1,0.1,0.2,0.1c0.6,0.3,1.2,0.4,1.8,0.3c0.4-0.1,0.8-0.1,1.2-0.2c0.3,0,0.6-0.1,0.8-0.3
			c0.1-0.1,0.3-0.2,0.5-0.2c0,0.2,0,0.3-0.1,0.4c-0.3,0.3-0.7,0.6-1.2,0.8c-0.8,0.3-1.7,0.4-2.6,0.3c-0.7-0.1-1.3-0.3-1.8-0.7
			c-0.4-0.3-0.7-0.6-1-0.9c-0.4-0.5-0.8-1.1-1.2-1.7c-0.4-0.5-0.8-1-1.3-1.5c-0.2-0.1-0.3-0.3-0.5-0.4c-0.1,0-0.2-0.1-0.3-0.1
			c-0.5,0-1,0-1.5,0c-0.2,0-0.3,0-0.3,0.3c0,0.7,0,1.5,0,2.2c0,0.3,0,0.5,0,0.8c0,0.3,0.1,0.6,0.1,0.8c0,0.2,0.2,0.3,0.4,0.4
			c0.2,0,0.4,0,0.6,0.1c0.1,0,0.2,0,0.3,0.1C81.9,26.2,81.9,26.2,81.9,26.2z M80.4,18.1c0,0.7,0,1.5,0,2.2c0,0.4,0.1,0.5,0.4,0.6
			C81.4,21,82,21,82.6,21c0.5-0.1,0.9-0.4,1.2-0.8c0.3-0.5,0.4-1,0.4-1.6c0-0.9-0.1-1.7-0.7-2.4c-0.2-0.2-0.4-0.4-0.7-0.5
			c-0.7-0.3-1.3-0.3-2-0.2c-0.2,0-0.2,0.1-0.3,0.3c0,0.1,0,0.2,0,0.3C80.4,16.7,80.4,17.4,80.4,18.1z"/>
		<path class="st2" d="M46.7,26.3c-0.2,0-0.3-0.1-0.4-0.2c-0.6-0.6-1.2-1.2-1.7-1.8c-0.3-0.4-0.7-0.7-1-1.1
			c-0.3-0.3-0.6-0.6-0.8-0.9c-0.2-0.2-0.4-0.5-0.6-0.7c-1.1-1.2-2.3-2.5-3.4-3.7c-0.3-0.3-0.5-0.6-0.8-0.9c0,0-0.1,0-0.1-0.1
			c0,0.2,0,0.4,0,0.6c0,0.6,0,1.1,0.1,1.7c0,0.5,0,1.1,0.1,1.6c0,0.3,0,0.6,0,0.9c0,0.8,0,1.6,0.1,2.4c0,0.4,0.1,0.7,0.1,1.1
			c0.1,0.4,0.3,0.6,0.7,0.6c0.2,0,0.4,0.1,0.6,0.1c0,0.1-0.1,0.2-0.2,0.2c-0.2,0-0.3,0-0.5,0c-0.9,0-1.8,0-2.6,0
			c-0.1,0-0.2,0-0.3-0.1c0.1-0.1,0.3-0.1,0.4-0.1c0.5,0,0.6-0.1,0.6-0.6c0.1-0.5,0.1-0.9,0.1-1.4c0-2.8,0-5.6,0-8.5
			c0-0.2,0-0.5,0-0.7c0-0.2,0.1-0.2,0.3-0.1c0.3,0.2,0.5,0.4,0.7,0.7c0.7,0.7,1.4,1.5,2,2.2c0.5,0.5,0.9,1,1.4,1.5
			c0.3,0.3,0.5,0.5,0.8,0.8c0.2,0.2,0.4,0.5,0.7,0.7c1,1.1,1.9,2.1,2.9,3.2c0.1,0.1,0.1,0.1,0.2,0.2c0.1-0.2,0.1-0.4,0.1-0.5
			c0-0.3,0-0.7,0-1c0-0.7,0-1.3,0-2c0-0.7,0-1.5-0.1-2.2c0-0.8,0-1.5-0.1-2.3c0-0.2,0-0.3,0-0.4c-0.1-0.2-0.2-0.4-0.4-0.4
			c-0.2,0-0.5-0.1-0.7-0.1c-0.1,0-0.2,0-0.3-0.1c0.1-0.2,0.3-0.2,0.4-0.2c0.3,0,0.7,0,1,0c0.5,0,1,0,1.5,0c0.3,0,0.3,0,0.6,0.1
			c-0.1,0-0.2,0.1-0.2,0.1c-0.1,0-0.3,0.1-0.4,0.1c-0.2,0.1-0.3,0.2-0.4,0.4c0,0.2-0.1,0.4-0.1,0.6c0,1.4,0,2.8,0,4.2
			c0,1.7,0,3.4-0.1,5.2C46.7,25.7,46.7,26,46.7,26.3z"/>
		<path class="st2" d="M101,42.3c0-0.4,0-0.7,0-1c0-0.4,0-0.7,0-1.1c0-0.5,0-1.1,0-1.6c0-0.5-0.1-1-0.1-1.6c0-0.5,0-1,0-1.5
			c0-0.6-0.1-1.1-0.1-1.7c0-0.4-0.2-0.6-0.6-0.7c-0.1,0-0.3,0-0.4,0c-0.1,0-0.1,0-0.2,0c0,0-0.1-0.1-0.1-0.1c0,0,0.1-0.1,0.1-0.1
			c0.3,0,0.6,0,0.9,0c0.5,0,1,0,1.5,0c0.3,0,0.5,0,0.8,0c0.1,0.2,0,0.2-0.2,0.2c-0.2,0-0.3,0.1-0.5,0.1c-0.2,0.1-0.3,0.3-0.4,0.5
			c0,0.1,0,0.3,0,0.4c0,0.9,0,1.7,0,2.6c0,2.3,0,4.6,0,6.9c0,0.3,0,0.6-0.1,0.9c-0.2-0.2-0.4-0.3-0.5-0.4c-0.9-0.9-1.9-1.9-2.8-2.8
			c-0.3-0.3-0.6-0.6-0.9-0.9c-0.1-0.1-0.2-0.2-0.3-0.3c0,0-0.1,0-0.1-0.1c-0.2-0.4-0.5-0.6-0.8-1c-0.3-0.3-0.6-0.6-0.8-0.9
			c-0.7-0.8-1.5-1.6-2.2-2.4c-0.2-0.2-0.4-0.4-0.6-0.7c0,0.3,0,0.4,0,0.6c0,0.1,0,0.2,0,0.3c-0.1,0.4,0.1,0.8,0,1.2
			c0,0.5,0.1,1,0,1.5c0,0.3,0,0.6,0,0.9c0,0.3,0,0.6,0,0.8c0,0.6,0,1.2,0,1.8c0,0.4,0.1,0.9,0.2,1.3c0.1,0.3,0.3,0.5,0.6,0.5
			c0.2,0,0.5,0.1,0.7,0.1c0,0.2-0.2,0.2-0.3,0.2c-0.4,0-0.8,0-1.1,0c-0.5,0-1,0-1.5,0c-0.1,0-0.3,0-0.4,0c-0.1,0-0.2,0-0.2-0.2
			c0.2-0.1,0.5-0.1,0.7-0.2c0.2,0,0.3-0.2,0.3-0.3c0-0.1,0-0.3,0.1-0.4c0-0.7,0.1-1.5,0.1-2.2c0-2.5,0-5.1,0-7.6c0-0.2,0-0.3,0-0.5
			c0-0.1,0.1-0.2,0.2-0.1c0.1,0.1,0.2,0.1,0.3,0.2c0.4,0.4,0.8,0.8,1.1,1.2c0.1,0.2,0.3,0.3,0.4,0.5c0.3,0.3,0.6,0.6,0.8,0.9
			c0.2,0.2,0.3,0.4,0.5,0.5c1,1.1,2.1,2.3,3.1,3.4c0.6,0.6,1.1,1.2,1.7,1.8C100.4,41.7,100.7,41.9,101,42.3z"/>
		<path class="st2" d="M126.3,44.4c0,0-0.1,0.1-0.1,0.1c0,0-0.1,0-0.2,0c-0.9,0-1.9,0-2.8,0c-0.2,0-0.2,0-0.3-0.2
			c0.1-0.1,0.2-0.1,0.4-0.1c0.4,0,0.8-0.3,0.9-0.6c0.1-0.2,0.1-0.4,0.1-0.6c0.1-0.6,0.2-1.1,0.3-1.7c0.1-0.7,0.2-1.5,0.3-2.2
			c0.1-0.9,0.2-1.8,0.4-2.6c0.1-0.7,0.2-1.3,0.3-1.9c0.1-0.4,0.1-0.9,0.2-1.3c0,0,0,0,0-0.1c0-0.1,0.1-0.2,0.2-0.2
			c0.1,0,0.2,0.1,0.3,0.2c0.1,0.2,0.2,0.4,0.4,0.6c0.4,0.6,0.8,1.2,1.1,1.9c0.3,0.5,0.6,1,0.8,1.5c0.1,0.2,0.3,0.4,0.4,0.6
			c0.3,0.5,0.7,1.1,1,1.6c0.4,0.7,0.8,1.4,1.2,2.1c0.4,0.7,0.8,1.4,1.3,2c0.3,0.3,0.5,0.7,1,0.8c0.2,0.1,0.4,0.1,0.7,0.2
			c0.1,0,0.2,0,0.3,0.1c-0.1,0.1-0.1,0.1-0.2,0.2c0,0-0.1,0-0.1,0c-0.9,0-1.7,0-2.6,0c-0.1,0-0.2,0-0.3-0.1c0.1-0.1,0.1-0.2,0.2-0.3
			c-0.1-0.2-0.3-0.5-0.4-0.7c-0.4-0.7-0.8-1.4-1.3-2.1c-0.1-0.1-0.1-0.2-0.2-0.3c-0.1-0.1-0.2-0.2-0.2-0.4c0-0.3-0.3-0.5-0.7-0.5
			c-0.9,0-1.8,0-2.7,0c-0.4,0-0.3,0-0.4,0.4c-0.1,0.7-0.2,1.5-0.3,2.2c0,0.3,0,0.7,0,1c0,0.3,0.2,0.5,0.5,0.6
			C126,44.2,126.1,44.2,126.3,44.4C126.3,44.3,126.3,44.3,126.3,44.4z M126.4,35.1c-0.2,0.4-0.6,3.8-0.5,4.2c0.4,0.1,2.7,0,2.9,0
			c-0.4-0.7-0.7-1.4-1.1-2.1C127.2,36.6,126.8,35.9,126.4,35.1z"/>
		<path class="st2" d="M114.3,14.6c0.1,0.1,0.2,0.1,0.2,0.2c0.2,0.3,0.3,0.5,0.5,0.8c0.2,0.4,0.5,0.7,0.7,1.1
			c0.3,0.5,0.5,0.9,0.8,1.4c0.1,0.2,0.3,0.5,0.4,0.7c0.3,0.5,0.7,1.1,1,1.6c0.3,0.5,0.6,1,0.9,1.5c0.1,0.2,0.3,0.4,0.4,0.7
			c0.2,0.3,0.4,0.6,0.6,1c0.1,0.2,0.3,0.5,0.4,0.7c0.2,0.5,0.6,0.9,1,1.3c0.3,0.3,0.7,0.5,1.1,0.5c0.1,0,0.3,0,0.4,0.2
			c-0.1,0-0.1,0.1-0.2,0.1c-0.9,0-1.8,0-2.7,0c-0.1,0-0.2,0-0.3-0.1c0.3-0.3,0.1-0.5,0-0.8c-0.2-0.3-0.4-0.7-0.6-1.1
			c-0.3-0.5-0.6-1-0.9-1.5c-0.2-0.3-0.3-0.6-0.5-0.8c-0.1-0.1-0.2-0.2-0.4-0.2c-1,0-2,0-2.9,0c-0.1,0-0.1,0-0.2,0
			c0,0.1-0.1,0.2-0.1,0.3c-0.1,0.6-0.1,1.2-0.2,1.7c0,0.4-0.1,0.9-0.1,1.3c0,0.1,0,0.2,0,0.3c0,0.3,0.1,0.5,0.4,0.5
			c0.1,0,0.3,0.1,0.4,0.1c0.1,0,0.2,0.1,0.1,0.2c-0.1,0-0.1,0-0.2,0c-1,0-1.9,0-2.9,0c-0.1,0-0.2,0-0.3-0.2c0.1,0,0.2,0,0.3,0
			c0.7-0.1,1-0.3,1.1-1.1c0.1-0.5,0.2-0.9,0.2-1.4c0.2-1,0.3-2,0.4-3c0.1-0.3,0.1-0.7,0.2-1c0.1-0.7,0.2-1.4,0.3-2.1
			c0.1-0.5,0.2-1.1,0.3-1.6c0.1-0.3,0.1-0.6,0.1-0.9C114.2,14.8,114.2,14.7,114.3,14.6z M114.6,16.9c-0.1,0.1-0.1,0.1-0.1,0.2
			c-0.2,1.3-0.3,2.6-0.4,4c0,0,0,0.1,0,0.1c1,0,1.9,0,2.9,0C116.2,19.7,115.3,18.4,114.6,16.9z"/>
		<path class="st2" d="M70.4,44.2c0,0.2-0.2,0.2-0.3,0.2c-0.6,0-1.3,0-1.9,0c-0.2,0-0.4,0-0.6,0c-0.1,0-0.2,0-0.3-0.1
			c0-0.1,0-0.1,0-0.1c0.2-0.1,0.2-0.3,0.1-0.5c-0.2-0.4-0.3-0.9-0.5-1.3c-0.2-0.6-0.5-1.2-0.7-1.9c-0.2-0.6-0.1-0.6-0.8-0.6
			c-0.8,0-1.7,0-2.5,0c-0.3,0-0.4,0.1-0.5,0.3c-0.2,0.6-0.4,1.1-0.5,1.7c0,0.2-0.2,0.5-0.3,0.7c-0.1,0.3-0.2,0.6-0.2,1
			c0,0.3,0,0.4,0.3,0.5c0.1,0,0.2,0,0.3,0c0.1,0,0.2,0,0.2,0.1c0,0.1-0.1,0.1-0.2,0.1c-0.2,0-0.4,0-0.6,0c-0.5,0-1,0-1.5,0
			c-0.3,0-0.6,0-0.9,0c0,0-0.1,0-0.1,0c0,0-0.1-0.1-0.1-0.1c0,0,0-0.1,0.1-0.1c0.1,0,0.2,0,0.3,0c0.3,0,0.7-0.1,0.9-0.4
			c0.2-0.2,0.3-0.4,0.4-0.7c0.3-0.9,0.6-1.7,1-2.6c0.3-0.8,0.6-1.5,0.8-2.3c0.3-0.8,0.6-1.5,0.8-2.3c0.2-0.4,0.3-0.9,0.5-1.3
			c0.1-0.2,0.2-0.3,0.2-0.5c0.1-0.3,0.2-0.6,0.3-0.9c0.1-0.1,0.1-0.3,0.3-0.3c0.2,0,0.2,0.2,0.3,0.4c0.3,0.7,0.6,1.4,0.8,2
			c0.1,0.4,0.2,0.7,0.4,1.1c0.2,0.6,0.5,1.2,0.7,1.8c0.4,1,0.8,2,1.2,3c0.2,0.5,0.4,1,0.6,1.5c0.1,0.3,0.4,0.5,0.5,0.8
			c0.1,0.3,0.4,0.4,0.7,0.6c0.2,0.1,0.4,0.1,0.5,0.1C70.2,44.2,70.3,44.2,70.4,44.2z M62.8,39.3c0.6,0.1,2.7,0,2.9,0
			c-0.1-0.2-0.1-0.4-0.2-0.5c-0.2-0.7-0.5-1.4-0.7-2.1c-0.1-0.4-0.3-0.8-0.4-1.2c0-0.1-0.1-0.3-0.2-0.4c0,0.1-0.1,0.1-0.1,0.1
			C63.7,36.6,63.3,37.9,62.8,39.3z"/>
		<path class="st2" d="M115,36.1c0-0.3-0.1-0.5-0.1-0.7c0-0.9-0.6-1.4-1.4-1.7c-0.7-0.3-1.4-0.4-2.1-0.4c-0.8,0-1.7,0.1-2.5,0.4
			c-0.8,0.3-1.5,0.9-1.9,1.7c-0.2,0.5-0.4,1-0.5,1.5c0,0.2,0,0.4-0.1,0.6c-0.1,0.8,0,1.7,0.2,2.5c0.2,0.6,0.5,1.2,0.9,1.8
			c0.4,0.5,0.9,1,1.5,1.4c0.2,0.1,0.4,0.2,0.6,0.3c0.7,0.4,1.5,0.5,2.3,0.5c0.6,0,1.1,0,1.7-0.2c0.6-0.2,1-0.6,1.2-1.2
			c0.1-0.2,0.2-0.4,0.2-0.7c0-0.1,0.1-0.1,0.1-0.2c0,0,0.1,0,0.1,0c0,0.1,0.1,0.2,0,0.3c-0.1,0.4-0.2,0.8-0.2,1.3
			c0,0.2-0.1,0.4-0.1,0.6c0,0.3-0.2,0.4-0.5,0.5c-0.3,0.1-0.6,0.1-1,0.2c-0.6,0.1-1.1,0.1-1.7,0.1c-0.8,0-1.7-0.1-2.5-0.3
			c-0.6-0.1-1.1-0.3-1.7-0.6c-0.1-0.1-0.2-0.1-0.3-0.3c0,0-0.1-0.1-0.1-0.1c-0.9-0.6-1.5-1.5-1.9-2.5c-0.2-0.5-0.2-1-0.3-1.5
			c0-0.1,0-0.2,0-0.4c-0.1-0.7,0.1-1.3,0.2-1.9c0.2-0.9,0.7-1.8,1.3-2.5c0.5-0.5,1-1,1.7-1.2c0.4-0.1,0.7-0.3,1.1-0.4
			c0.3-0.1,0.6-0.1,0.9-0.1c1.2-0.1,2.5,0,3.7,0.2c0.3,0,0.5,0.1,0.8,0.1c0.1,0,0.2,0,0.3,0c0.2,0,0.2,0.1,0.2,0.3
			c0,0.4,0,0.8-0.1,1.2c0,0.3,0,0.6,0,0.9C115.2,35.8,115.2,35.9,115,36.1z"/>
		<path class="st2" d="M61.5,26.4c-0.2-0.1-0.3-0.2-0.4-0.4c-0.2-0.6-0.5-1.3-0.7-1.9c-0.2-0.6-0.5-1.2-0.8-1.9
			c-0.3-0.7-0.5-1.4-0.8-2.1c-0.3-0.8-0.6-1.6-1-2.4c-0.3-0.7-0.6-1.3-0.8-2c-0.2-0.6-0.7-0.7-1.2-0.8c-0.1,0-0.2,0-0.3,0
			c0-0.1,0.1-0.2,0.2-0.2c0.2,0,0.3,0,0.5,0c0.4,0,0.8,0.1,1.2,0.1c0.4,0,0.9,0,1.3,0c0.2,0,0.3,0,0.5,0c0.1,0,0.1,0.1,0.3,0.1
			C59.3,15,59.3,15,59.2,15c-0.1,0-0.2,0-0.3,0c-0.4,0.1-0.5,0.2-0.4,0.6c0.1,0.2,0.1,0.5,0.2,0.7c0.3,0.8,0.6,1.5,0.8,2.3
			c0.4,1,0.8,2.1,1.2,3.1c0.3,0.8,0.6,1.7,1,2.6c0.1-0.1,0.1-0.2,0.2-0.3c0.3-0.9,0.7-1.7,1-2.6c0.2-0.6,0.5-1.2,0.7-1.9
			c0.2-0.4,0.3-0.8,0.5-1.3c0.2-0.6,0.4-1.2,0.6-1.8c0.1-0.3,0.2-0.6,0.3-0.9c0.1-0.3,0-0.5-0.4-0.5c-0.2,0-0.3,0-0.5-0.1
			c0.1,0,0.1-0.1,0.2-0.1c0.2,0,0.3,0,0.5,0c0.7,0,1.4,0.1,2.1,0c0.1,0,0.3,0,0.4,0c0,0.2-0.1,0.2-0.2,0.2c-0.3,0-0.6,0.1-0.8,0.3
			c-0.2,0.2-0.4,0.5-0.5,0.8c-0.3,0.7-0.6,1.5-0.9,2.3c-0.3,0.6-0.5,1.2-0.8,1.9c-0.3,0.6-0.6,1.3-0.8,1.9c-0.3,0.7-0.6,1.5-0.9,2.2
			c-0.2,0.4-0.4,0.9-0.6,1.3c-0.1,0.1-0.1,0.3-0.2,0.4C61.6,26.2,61.6,26.3,61.5,26.4z"/>
		<path class="st2" d="M87.8,42.4c0.2,0,0.2,0.1,0.2,0.2c0,0.2,0,0.3,0,0.5c-0.1,0.4-0.1,0.7-0.2,1.1c0,0.2-0.1,0.3-0.3,0.3
			c-0.2,0-0.3,0-0.5,0c-0.8,0-1.5,0-2.3,0c-0.5,0-1-0.1-1.6-0.1c-0.4,0-0.9,0-1.3,0c-0.1,0-0.3,0-0.3-0.2c0.1,0,0.1,0,0.2-0.1
			c0.1,0,0.2,0,0.2,0c0.4-0.1,0.5-0.2,0.6-0.6c0-0.5,0.1-1,0.1-1.5c0-2.6,0-5.3,0-7.9c0-0.1,0-0.1,0-0.2c0-0.5-0.3-0.8-0.8-0.8
			c-0.1,0-0.2,0-0.3,0c0,0-0.1-0.1-0.1-0.1c0,0,0.1-0.1,0.1-0.1c0.2,0,0.3,0,0.5,0c1.6,0,3.1,0,4.7,0c0.3,0,0.5-0.1,0.8-0.1
			c0.1,0,0.2,0,0.3,0c0,0.2,0,0.4-0.1,0.6c0,0.3-0.1,0.6-0.1,0.9c0,0.1,0,0.3-0.1,0.4c0,0-0.1,0.1-0.1,0.1c0,0-0.1-0.1-0.1-0.1
			c0-0.1-0.1-0.2-0.1-0.3c-0.1-0.5-0.3-0.7-0.7-0.7c-0.5,0-1-0.1-1.6-0.1c-0.3,0-0.6,0-0.9,0c0,1.5,0,2.9,0,4.4c0.1,0,0.2,0,0.3,0
			c0.6,0,1.2,0,1.8,0c0.4,0,0.9,0,1.2-0.4c0,0,0.1,0,0.1,0c0,0.4-0.1,0.7-0.1,1.1c0,0.4-0.1,0.7-0.1,1.2c-0.1-0.1-0.2-0.1-0.2-0.2
			c0-0.1,0-0.2,0-0.4c0-0.3-0.2-0.5-0.5-0.6c-0.1,0-0.2,0-0.3-0.1c-0.1,0-0.2,0-0.2,0c-0.6,0-1.3,0-2,0c0,0.1,0,0.2,0,0.3
			c0,1.2,0,2.3,0,3.5c0,0.2,0,0.5,0.1,0.7c0.1,0.3,0.3,0.5,0.6,0.5c0.2,0.1,0.5,0.1,0.7,0.1c0.4,0,0.9,0,1.3,0c0.6,0,1-0.5,1.1-1
			C87.7,42.7,87.8,42.5,87.8,42.4z"/>
		<path class="st2" d="M71.1,19.8c0.4,0,0.8,0,1.1,0c0.4,0,0.7,0,1.1,0c0.4,0,0.8,0,1.1-0.4c0,0,0.1,0,0.1,0c0,0.1,0.1,0.1,0.1,0.1
			c-0.1,0.6-0.1,1.2-0.2,1.8c0,0.1,0,0.2-0.1,0.2c-0.2,0-0.2-0.1-0.2-0.2c0-0.2,0-0.3-0.1-0.5c-0.1-0.2-0.3-0.4-0.5-0.4
			c-0.2,0-0.5-0.1-0.7-0.1c-0.5,0-1,0-1.4-0.1c-0.3,0-0.3,0-0.3,0.3c0,1.2,0,2.4,0,3.6c0,0.3,0,0.7,0.3,1c0.1,0.1,0.2,0.2,0.4,0.2
			c0.8,0.1,1.6,0.1,2.4,0c0.3-0.1,0.5-0.2,0.6-0.5c0.1-0.2,0.1-0.4,0.2-0.6c0-0.1,0-0.2,0.2-0.2c0,0.1,0,0.2,0,0.3
			c0,0.4-0.1,0.8-0.1,1.2c0,0.1,0,0.1,0,0.2c-0.2,0.4-0.1,0.4-0.5,0.4c-0.8,0-1.5,0-2.3,0c-0.1,0-0.2,0-0.3,0c-0.9,0-1.9,0-2.8,0
			c-0.1,0-0.2,0-0.3,0c0,0,0,0,0-0.1c0,0,0.1-0.1,0.1-0.1c0.1,0,0.2-0.1,0.3-0.1c0.2,0,0.4-0.1,0.4-0.3c0.1-0.2,0.1-0.4,0.1-0.5
			c0-0.5,0.1-1.1,0.1-1.6c0-2.2,0-4.4,0-6.6c0-0.3,0-0.7,0-1c0-0.5-0.2-0.8-0.8-0.8c-0.2,0-0.3-0.1-0.5-0.1c0.1-0.2,0.2-0.2,0.4-0.2
			c0.4,0,0.8,0,1.2,0c0.7,0,1.5,0,2.2,0c0.4,0,0.8,0,1.1,0c0.5,0,0.9,0,1.4-0.1c0,0,0,0.1,0,0.2c-0.1,0.6-0.1,1.1-0.2,1.7
			c0,0,0,0-0.1,0.1c-0.1-0.2-0.1-0.4-0.2-0.6c0-0.4-0.3-0.5-0.6-0.6c-0.1,0-0.3-0.1-0.4-0.1c-0.6,0-1.2-0.1-1.9-0.1
			c-0.3,0-0.3,0-0.3,0.3c0,1.3,0,2.5,0,3.8C71,19.6,71,19.7,71.1,19.8z"/>
		<path class="st2" d="M130.3,14.7c0,0.7,0,1.3,0,2c-0.2,0-0.2-0.2-0.3-0.3c0-0.2-0.1-0.4-0.2-0.5c-0.3-0.2-0.6-0.3-1-0.4
			c-0.8,0-1.6-0.1-2.3-0.1c-0.1,0-0.1,0-0.2,0c0,0.1,0,0.2,0,0.3c0,2.6,0,5.3,0,7.9c0,0.5,0.1,1.1,0.1,1.6c0.1,0.4,0.3,0.6,0.7,0.6
			c0.2,0,0.4,0,0.6,0.1c0,0.2-0.1,0.2-0.2,0.2c-0.1,0-0.3,0-0.4,0c-0.9,0-1.9,0-2.8,0c-0.2,0-0.2,0-0.4-0.2c0.2,0,0.3-0.1,0.4-0.1
			c0.3,0,0.4-0.2,0.4-0.4c0.1-0.2,0.1-0.4,0.1-0.6c0-0.5,0.1-1.1,0.1-1.6c0-2.5,0-5,0-7.4c0-0.1,0-0.3,0-0.4c-0.3,0-0.6,0-0.9,0
			c-0.4,0-0.8,0-1.1,0c-0.3,0-0.6,0-0.9,0.1c-0.4,0-0.7,0.2-0.9,0.6c-0.1,0.1-0.2,0.3-0.3,0.4c0,0,0,0-0.1,0c0-0.1,0-0.1,0-0.2
			c0.2-0.6,0.1-1.2,0.4-1.8c0.7,0.3,1.3,0.2,2,0.3c1.9,0,3.7,0,5.6,0C129.2,14.8,129.7,14.8,130.3,14.7z"/>
		<path class="st2" d="M100.9,16.6c0-0.1-0.1-0.1-0.1-0.2c0.1-0.6,0.3-1.1,0.4-1.7c0,0,0.1-0.1,0.1-0.1c0.6,0.2,1.3,0.2,1.9,0.2
			c1.8,0,3.7,0,5.5,0c0.5,0,1-0.1,1.6-0.1c0,0.7,0,1.3,0,2c-0.2,0-0.2-0.2-0.2-0.3c0-0.5-0.3-0.7-0.7-0.8c-0.3-0.1-0.6-0.1-1-0.2
			c-0.6,0-1.2,0-1.9,0c-0.1,0-0.1,0-0.2,0c0,0.1,0,0.1,0,0.2c0,2.7,0,5.4,0,8.1c0,0.5,0.1,1.1,0.1,1.6c0.1,0.4,0.3,0.5,0.7,0.6
			c0.2,0,0.4,0,0.6,0.1c0,0.2-0.1,0.2-0.2,0.2c-0.2,0-0.3,0-0.5,0c-0.9,0-1.8,0-2.8,0c-0.1,0-0.2,0-0.3,0c-0.1,0-0.1-0.1-0.2-0.2
			c0.2,0,0.3-0.1,0.5-0.1c0.3-0.1,0.4-0.1,0.5-0.5c0.1-0.4,0.1-0.9,0.1-1.4c0-2.8,0-5.6,0.1-8.3c0-0.1,0-0.2,0-0.3
			c-0.3,0-0.6,0-0.9,0c-0.4,0-0.9,0-1.3,0c-0.4,0-0.8,0-1.2,0.2c-0.2,0.1-0.3,0.2-0.4,0.4C101.2,16.3,101,16.4,100.9,16.6
			C100.9,16.6,100.9,16.6,100.9,16.6z"/>
		<path class="st2" d="M71.9,33.1C72,33,72.1,33,72.1,33c1.2,0,2.4,0,3.7,0c0.1,0.1,0,0.2-0.1,0.2c-0.1,0-0.2,0-0.4,0
			c-0.4,0.1-0.7,0.2-0.7,0.7c0,0.4,0,0.8,0,1.1c0,0.2,0,0.4,0,0.6c0,1.4,0,2.9,0,4.3c0,0.8,0,1.5,0.1,2.3c0,0.3,0.1,0.6,0.1,0.8
			c0.1,0.3,0.3,0.6,0.7,0.6c0.7,0.1,1.4,0.1,2.1,0c0.6-0.1,1-0.4,1.2-1c0-0.1,0.1-0.2,0.1-0.3c0-0.1,0.1-0.1,0.2-0.2
			c0.1,0.1,0.1,0.3,0.1,0.4C79.1,43,79,43.4,79,43.8c0,0.1-0.1,0.2-0.1,0.3c-0.1,0.2-0.2,0.3-0.4,0.3c-0.6,0-1.2,0-1.8,0
			c-0.2,0-0.3,0-0.5,0c-0.7,0-1.4-0.1-2.1-0.1c-0.5,0-0.9,0-1.4,0.1c-0.1,0-0.3,0-0.4,0c-0.1,0-0.2-0.1-0.2-0.1c0,0,0,0,0-0.1
			c0.2,0,0.3-0.1,0.5-0.1c0.2,0,0.3-0.2,0.4-0.4c0.1-0.3,0.2-0.7,0.2-1c0-2.6,0-5.1,0.1-7.7c0-0.4,0-0.7-0.1-1.1
			c0-0.4-0.3-0.7-0.8-0.7c-0.1,0-0.2,0-0.3,0C72.1,33.2,72,33.2,71.9,33.1z"/>
		<path class="st2" d="M93.3,12.6c0,0.3,0,0.6,0,0.8c0,0.2,0,0.5,0,0.7c0,0.1,0,0.1,0,0.2c0,0.1-0.1,0.2-0.2,0.2
			c-0.1,0-0.2-0.1-0.2-0.2c0-0.2-0.1-0.3-0.1-0.5c-0.1-0.2-0.2-0.4-0.4-0.5c-0.4-0.2-0.9-0.3-1.4-0.3c-0.4,0-0.8,0.1-1,0.5
			c-0.2,0.2-0.3,0.5-0.4,0.8c0,0.3,0,0.6,0.2,0.9c0.2,0.5,0.6,0.8,1,1.1c0.4,0.4,0.8,0.7,1.2,1c0.4,0.3,0.7,0.7,1,1.1
			c0.4,0.6,0.7,1.3,0.6,2.1c-0.1,0.5-0.2,0.9-0.4,1.3c-0.3,0.5-0.8,0.9-1.3,1.1c-0.7,0.3-1.4,0.3-2.1,0.2c-0.4,0-0.7-0.1-1-0.3
			c-0.1-0.1-0.3-0.2-0.5-0.3c0-0.4,0-0.7,0.1-1.1c0-0.2,0-0.5,0-0.7c0-0.1,0-0.1,0-0.2c0,0,0.1-0.1,0.1-0.1c0.1,0,0.1,0.1,0.1,0.1
			c0,0.1,0.1,0.3,0.1,0.4c0,0.3,0.1,0.6,0.3,0.8c0.1,0.1,0.2,0.2,0.3,0.2c0.1,0,0.1,0.1,0.2,0.1c0.7,0.4,1.4,0.4,2.1,0.1
			c0.6-0.3,1-0.9,1-1.5c0-0.8-0.4-1.4-0.9-1.8c-0.3-0.2-0.6-0.5-0.8-0.7c-0.2-0.2-0.4-0.3-0.6-0.5c-0.4-0.4-0.8-0.8-1.1-1.3
			c-0.5-0.8-0.6-1.6-0.3-2.4c0.3-0.7,0.9-1.2,1.7-1.4c0.3-0.1,0.5-0.2,0.8-0.2c0.4,0,0.8,0,1.1,0.1C92.6,12.5,92.9,12.5,93.3,12.6z"
			/>
		<path class="st2" d="M50.6,14.9c0.2-0.1,0.4-0.1,0.5-0.1c0.8,0.1,1.6,0.1,2.5,0c0.1,0,0.3,0,0.4,0c0,0,0.1,0.1,0.1,0.1
			c0,0-0.1,0.1-0.1,0.1c-0.1,0-0.2,0-0.3,0.1c-0.4,0.1-0.5,0.2-0.6,0.6c0,0.2-0.1,0.4-0.1,0.6c0,1.8,0,3.6,0,5.5c0,1,0,2,0.1,2.9
			c0,0.3,0.1,0.5,0.1,0.8c0.1,0.3,0.3,0.5,0.6,0.5c0.2,0,0.4,0,0.6,0.1c0,0,0,0,0.1,0c0,0.1-0.1,0.2-0.2,0.2c-0.2,0-0.3,0-0.5,0
			c-0.9,0-1.9,0-2.8,0c-0.1,0-0.2,0.1-0.3-0.1c0.1-0.2,0.2-0.1,0.4-0.1c0.4-0.1,0.5-0.1,0.5-0.5c0.1-0.6,0.1-1.1,0.1-1.7
			c0-2.3,0-4.7,0-7c0-0.4,0-0.7-0.1-1.1c0-0.4-0.2-0.6-0.7-0.6C50.8,15,50.8,15,50.6,14.9z"/>
		<path class="st2" d="M99.2,26.1c-0.1,0.2-0.2,0.2-0.3,0.1c-0.7,0-1.4,0-2.1,0c-0.4,0-0.7,0-1.1,0c-0.1,0-0.2,0-0.3-0.2
			c0.1,0,0.3-0.1,0.4-0.1c0.3,0,0.4-0.2,0.5-0.4c0.1-0.3,0.1-0.6,0.1-0.9c0-2.7,0-5.3,0-8c0-0.3,0-0.6-0.1-1c0-0.4-0.2-0.6-0.7-0.7
			c-0.1,0-0.3,0-0.3-0.2c0.2-0.1,0.4-0.1,0.6-0.1c0.4,0,0.7,0.1,1.1,0.1c0.4,0,0.9,0,1.3-0.1c0.2,0,0.4,0,0.5,0.1
			c0,0.1,0,0.2-0.1,0.2c-0.1,0-0.3,0.1-0.4,0.1c-0.3,0-0.4,0.3-0.5,0.5c0,0.1,0,0.1,0,0.2c0,0.5,0,0.9,0,1.4c0,2.1,0,4.3,0,6.4
			c0,0.6,0.1,1.1,0.1,1.7c0.1,0.4,0.3,0.6,0.8,0.6C98.8,26,98.9,26,99.2,26.1C99.1,26,99.1,26,99.2,26.1z"/>
		<path class="st2" d="M121.4,33.1c0,0.2-0.2,0.2-0.3,0.2c-0.1,0-0.2,0-0.3,0.1c-0.4,0.1-0.5,0.4-0.5,0.8c0,0.6,0,1.2,0,1.7
			c0,1.7,0,3.5,0,5.2c0,0.7,0,1.4,0.1,2.1c0,0.2,0.1,0.4,0.2,0.6c0.1,0.2,0.2,0.2,0.4,0.3c0.3,0,0.5,0.1,0.8,0.1
			c0,0.1,0,0.2-0.1,0.2c-0.2,0-0.3,0-0.5,0c-0.9-0.1-1.8-0.1-2.7,0c-0.1,0-0.3,0-0.4,0c-0.1,0-0.1-0.1-0.2-0.2
			c0.2,0,0.4-0.1,0.5-0.1c0.2,0,0.3-0.2,0.4-0.4c0.1-0.2,0.1-0.3,0.1-0.5c0-0.7,0.1-1.4,0.1-2c0-2.1,0-4.1,0-6.2c0-0.4,0-0.7,0-1.1
			c-0.1-0.5-0.3-0.7-0.8-0.7c-0.2,0-0.2,0-0.3-0.2c0.1,0,0.1-0.1,0.2-0.1c0.3,0,0.5,0,0.8,0c0.5,0,1.1,0,1.6,0c0.2,0,0.5,0,0.7,0
			C121.3,33,121.4,33,121.4,33.1z"/>
		<path class="st2" d="M82.1,30.5c0.1,0,0.2-0.1,0.3-0.1c0.3-0.1,0.6-0.2,0.9-0.3c0.1,0,0.2,0,0.3,0.1c0.3,0.2,0.6,0.5,0.9,0.7
			c0.4,0.3,0.7,0.5,1.1,0.8c0,0,0.1,0.1,0.2,0.2c-0.2,0-0.3,0-0.4,0c-0.5-0.1-0.9-0.3-1.4-0.4c-0.2-0.1-0.4-0.2-0.6-0.3
			c-0.3-0.1-0.6-0.2-0.9-0.3C82.3,30.7,82.2,30.7,82.1,30.5C82.1,30.6,82.1,30.5,82.1,30.5z"/>
		<path class="st2" d="M35.7,39.5c0-0.1-0.1-0.2-0.1-0.3c0-0.2-0.2-0.3-0.4-0.4c0,0,0,0-0.1,0c-0.5,0-1,0-1.5-0.1c0,0.1,0,0.2,0,0.2
			c0,0.7,0,1.5,0,2.2c0,0.5,0.2,0.8,0.6,0.9c0.2,0,0.4,0.1,0.5,0c0.3,0,0.5-0.1,0.8-0.1c0.2,0,0.4-0.2,0.4-0.4
			c0-0.2,0.1-0.3,0.2-0.5c0,0.1,0.1,0.2,0.1,0.2c0,0.3-0.1,0.6-0.1,0.9c0,0.2-0.1,0.3-0.4,0.3c-0.3,0-0.6,0-0.9,0
			c-0.7,0-1.4,0-2.1,0c-0.2,0-0.4,0.1-0.7-0.1c0.1,0,0.2-0.1,0.3-0.1c0.2,0,0.3-0.1,0.3-0.3c0-0.2,0.1-0.5,0.1-0.7
			c0-1.8,0-3.6,0-5.3c0-0.5-0.2-0.6-0.5-0.6c-0.1,0-0.2-0.1-0.3-0.1c0.1-0.1,0.2-0.1,0.4-0.1c0.8,0,1.6,0,2.3,0c0.4,0,0.9,0,1.3,0
			c0,0.4-0.1,0.8-0.1,1.2c-0.2-0.1-0.2-0.2-0.2-0.3c0-0.2-0.2-0.4-0.4-0.4c-0.5,0-1.1-0.1-1.7-0.1c0,0.1,0,0.2,0,0.3
			c0,0.7,0,1.5,0,2.2c0,0.3,0,0.4,0.4,0.4c0.4,0,0.8,0,1.2,0c0.2,0,0.4-0.1,0.6-0.2c0,0.4-0.1,0.9-0.1,1.3
			C35.8,39.5,35.7,39.5,35.7,39.5z"/>
	</g>
</g>
</svg>
