<?xml version="1.0" encoding="utf-8"?>
<!-- Generator: Adobe Illustrator 25.0.0, SVG Export Plug-In . SVG Version: 6.00 Build 0)  -->
<svg version="1.1" id="Capa_1" xmlns="http://www.w3.org/2000/svg" xmlns:xlink="http://www.w3.org/1999/xlink" x="0px" y="0px"
	 viewBox="0 0 20 17" style="enable-background:new 0 0 20 17;" xml:space="preserve">
<path d="M19.8,2.5c-0.2-1.3-1.2-2.2-2.5-2.3L10,0L2.7,0.2c-1.3,0-2.3,1-2.5,2.3c-0.3,2.8-0.3,5.7,0,8.5c0.2,1.3,1.2,2.2,2.5,2.3
	l6,0.2v2H5c-0.4,0-0.8,0.3-0.8,0.8C4.2,16.7,4.6,17,5,17h10c0.4,0,0.8-0.3,0.8-0.8c0-0.4-0.3-0.8-0.8-0.8h-3.7v-2l6-0.2
	c1.3,0,2.4-1,2.5-2.3C20.1,8.2,20.1,5.3,19.8,2.5z M17,11.5H3c-0.4,0-0.8-0.3-0.8-0.8C2.2,10.3,2.6,10,3,10h14
	c0.4,0,0.8,0.3,0.8,0.8C17.8,11.2,17.4,11.5,17,11.5z"/>
</svg>
