<?xml version="1.0" encoding="utf-8"?>
<!-- Generator: Adobe Illustrator 25.0.0, SVG Export Plug-In . SVG Version: 6.00 Build 0)  -->
<svg version="1.1" id="Capa_1" xmlns="http://www.w3.org/2000/svg" xmlns:xlink="http://www.w3.org/1999/xlink" x="0px" y="0px"
	 viewBox="0 0 16.3 18" style="enable-background:new 0 0 16.3 18;" xml:space="preserve">
<path d="M16,7.7C14.8,3.4,10.4,0.8,6,2c0,0,0,0,0,0L5.2,0.4C5.2,0.3,5,0.1,4.9,0.1c-0.4-0.2-0.8,0-1,0.4L2.2,4c0,0,0,0.1,0,0.1
	C2.1,4.5,2.3,4.9,2.7,5l3.8,1C6.6,6.1,6.8,6.1,7,6c0.4-0.2,0.5-0.6,0.4-1L6.6,3.4c1-0.3,2.1-0.3,3.2,0c3.6,0.9,5.7,4.5,4.8,8.1
	s-4.5,5.7-8.1,4.8c-3.6-0.9-5.7-4.5-4.9-8c0.1-0.4-0.1-0.8-0.5-0.9C0.8,7.2,0.3,7.5,0.2,7.9c-1.1,4.4,1.6,8.8,5.9,9.9
	c4.4,1.1,8.8-1.6,9.9-5.9C16.4,10.5,16.4,9.1,16,7.7z"/>
</svg>
