<?xml version="1.0" encoding="utf-8"?>
<!-- Generator: Adobe Illustrator 25.0.0, SVG Export Plug-In . SVG Version: 6.00 Build 0)  -->
<svg version="1.1" id="Capa_1" xmlns="http://www.w3.org/2000/svg" xmlns:xlink="http://www.w3.org/1999/xlink" x="0px" y="0px"
	 viewBox="0 0 18.4 18.4" style="enable-background:new 0 0 18.4 18.4;" xml:space="preserve">
<g>
	<path d="M18.1,4.4c0,0,0-0.1-0.1-0.1c-0.1-0.1-0.2-0.1-0.3,0l-8.5,8.4C9.3,12.9,9.1,13,9,13l-3.8,1c-0.1,0-0.2,0-0.4,0
		c-0.4-0.1-0.7-0.5-0.6-0.9c0-0.1,0-0.1,0-0.1l1-3.8c0-0.1,0.1-0.2,0.2-0.3l8.3-8.3c0,0,0.1-0.1,0.1-0.1c0-0.1-0.1-0.2-0.2-0.2
		c0,0,0,0,0,0C10.5-0.1,7.2-0.1,4,0.3C2.1,0.5,0.5,2,0.3,3.9c-0.4,3.5-0.4,7.1,0,10.6c0.2,1.9,1.8,3.4,3.7,3.6c3.5,0.4,7,0.4,10.5,0
		c1.9-0.2,3.4-1.7,3.6-3.6C18.5,11.2,18.5,7.8,18.1,4.4z"/>
	<path d="M6.7,9.8l-0.5,1.9c0,0,0,0.1,0,0.1c0,0.1,0.2,0.2,0.3,0.2l1.9-0.5c0,0,0.1,0,0.1-0.1l8.3-8.3c0.1-0.1,0.1-0.2,0-0.3
		c0,0,0,0,0,0l-1.4-1.4c-0.1-0.1-0.2-0.1-0.3,0c0,0,0,0,0,0L6.7,9.7C6.7,9.8,6.7,9.8,6.7,9.8z"/>
</g>
</svg>
