<?xml version="1.0" encoding="utf-8"?>
<!-- Generator: Adobe Illustrator 25.0.0, SVG Export Plug-In . SVG Version: 6.00 Build 0)  -->
<svg version="1.1" id="Capa_1" xmlns="http://www.w3.org/2000/svg" xmlns:xlink="http://www.w3.org/1999/xlink" x="0px" y="0px"
	 viewBox="0 0 21 14" style="enable-background:new 0 0 21 14;" xml:space="preserve">
<g>
	<path d="M8.6,6.4c0.5-0.2,1-0.6,1.4-1.1c0.3-0.5,0.5-1.1,0.5-1.8c0-0.6-0.1-1.1-0.3-1.6C10,1.4,9.7,1,9.3,0.8
		C8.9,0.5,8.5,0.3,8,0.2C7.5,0.1,6.9,0,6.4,0H0.3C0.1,0,0,0.1,0,0.3c0,0,0,0,0,0v13.3c0,0.2,0.1,0.3,0.3,0.3c0,0,0,0,0,0h6.1
		c0.6,0,1.2-0.1,1.7-0.2c0.5-0.1,1-0.4,1.5-0.7c0.4-0.3,0.8-0.8,1-1.3c0.3-0.6,0.4-1.2,0.4-1.8c0-0.8-0.2-1.6-0.6-2.2
		C10,7,9.4,6.6,8.6,6.4z M2.8,2.5c0-0.1,0.1-0.2,0.2-0.2h2.8c1,0,1.8,0.8,1.8,1.8S6.8,5.8,5.8,5.8H3c-0.1,0-0.2-0.1-0.2-0.2V2.5z
		 M6.3,11.8c-0.1,0-0.2,0-0.3,0H3c-0.1,0-0.2-0.1-0.2-0.2V7.7c0-0.1,0.1-0.2,0.2-0.2h3c1.2-0.1,2.2,0.8,2.3,2S7.5,11.7,6.3,11.8z"/>
	<path d="M13.9,2.3h4.7C18.8,2.3,19,2.2,19,2c0,0,0,0,0,0V1c0-0.2-0.1-0.3-0.3-0.3c0,0,0,0,0,0h-4.8c-0.2,0-0.3,0.1-0.3,0.3
		c0,0,0,0,0,0v1C13.7,2.2,13.8,2.3,13.9,2.3z"/>
	<path d="M18.6,10.6c-0.1,0-0.2,0.1-0.2,0.1c-0.1,0.3-0.3,0.5-0.6,0.7c-0.4,0.3-0.8,0.4-1.3,0.4h-0.1c-0.3,0-0.6,0-0.9-0.1
		c-0.3-0.1-0.6-0.3-0.8-0.5c-0.5-0.5-0.7-1.2-0.7-2h7c0-0.7,0-1.5-0.2-2.2c-0.2-0.7-0.4-1.3-0.8-1.9c-0.4-0.6-0.9-1-1.5-1.3
		c-0.6-0.3-1.3-0.5-2-0.5h-0.1c-0.7,0-1.4,0.1-2,0.4c-0.6,0.3-1.1,0.6-1.5,1.1c-0.4,0.5-0.8,1.1-1,1.7c-0.2,0.7-0.3,1.4-0.3,2.1
		c0,0.7,0.1,1.5,0.3,2.1c0.2,0.6,0.5,1.2,0.9,1.7c0.4,0.5,0.9,0.9,1.5,1.1c0.6,0.2,1.3,0.4,1.9,0.4h0.2c0.9,0,1.8-0.3,2.6-0.8
		c0.8-0.6,1.4-1.4,1.6-2.4c0-0.1,0-0.1,0-0.2c0-0.1-0.1-0.1-0.2-0.1H18.6z M16.1,5.4C16.1,5.4,16.1,5.4,16.1,5.4l0.2,0
		c1.1,0,2,0.9,2,2c0,0.1,0,0.1-0.1,0.1h-4c-0.1,0-0.1,0-0.1-0.1C14.1,6.3,15,5.4,16.1,5.4z"/>
</g>
</svg>
