<?xml version="1.0" encoding="utf-8"?>
<!-- Generator: Adobe Illustrator 25.0.0, SVG Export Plug-In . SVG Version: 6.00 Build 0)  -->
<svg version="1.1" id="Capa_1" xmlns="http://www.w3.org/2000/svg" xmlns:xlink="http://www.w3.org/1999/xlink" x="0px" y="0px"
	 viewBox="0 0 17.5 17" style="enable-background:new 0 0 17.5 17;" xml:space="preserve">
<path d="M9.5,0C9.5,0,9.5,0,9.5,0H9.2c-1.4,0-2.8,0.3-4,1c-2.4,1.3-4,3.7-4.3,6.4c-0.2,1.4,0,2.8,0.6,4.1l0.9,2.3
	c0,0.1,0,0.2-0.1,0.3l-2,1.6C0.1,15.9,0,16.1,0,16.3C0,16.7,0.3,17,0.8,17h7.8c5,0,9-4,9-9C17.6,3.6,13.9,0,9.5,0z"/>
</svg>
